<svg width="109" height="22" viewBox="0 0 109 22" fill="none" xmlns="http://www.w3.org/2000/svg">
<path d="M56.1156 10.6851C55.2156 10.6851 54.5668 10.9861 53.909 11.2927V18.231C54.5391 18.2922 54.9003 18.2922 55.4981 18.2922C57.6584 18.2922 57.9545 17.2833 57.9545 15.8747V12.5609C57.9545 11.5207 57.616 10.6851 56.1156 10.6851ZM41.7688 10.3065C40.2699 10.3065 39.9279 11.1456 39.9279 12.1848V12.7688H43.6077V12.1848C43.6077 11.1456 43.2656 10.3065 41.7688 10.3065ZM13.9761 17.5282C13.9761 18.3503 14.3565 18.7773 15.1959 18.7773C16.0965 18.7773 16.6297 18.4779 17.2871 18.1702V16.5244H15.318C14.3857 16.5244 13.9761 16.7014 13.9761 17.5282ZM70.0715 10.6851C68.5702 10.6851 68.05 11.5207 68.05 12.5609V16.3572C68.05 17.4001 68.5702 18.2382 70.0715 18.2382C71.5689 18.2382 72.093 17.4001 72.093 16.3572V12.5609C72.0925 11.5207 71.5684 10.6851 70.0715 10.6851ZM6.61849 21.785H2.20515V10.8914H0V7.13783H2.20566V4.8834C2.20566 1.82073 3.45025 0 6.98778 0H9.93303V3.75464H8.09212C6.71485 3.75464 6.62404 4.27941 6.62404 5.25845L6.61849 7.13732H9.95321L9.56323 10.8909H6.61849V21.785ZM21.7014 21.8132H18.0231L17.8642 20.8646C16.1847 21.8132 14.6859 21.9671 13.6971 21.9671C10.9995 21.9671 9.56374 20.1294 9.56374 17.5879C9.56374 14.5895 11.2392 13.5194 14.2364 13.5194H17.2871V12.8711C17.2871 11.3406 17.115 10.8914 14.807 10.8914H11.0333L11.4021 7.13783H15.5269C20.591 7.13783 21.7014 8.76924 21.7014 12.9015V21.8132ZM34.2094 11.1667C31.9205 10.7664 31.2631 10.6785 30.1618 10.6785C28.1837 10.6785 27.5859 11.1235 27.5859 12.8367V16.0774C27.5859 17.7906 28.1837 18.2376 30.1618 18.2376C31.2631 18.2376 31.9205 18.1481 34.2094 17.7463V21.4078C32.2045 21.8662 30.8984 21.9866 29.7946 21.9866C25.0563 21.9866 23.173 19.4456 23.173 15.7748V13.1454C23.173 9.4715 25.0563 6.92587 29.7946 6.92587C30.8984 6.92587 32.2045 7.04677 34.2094 7.50723V11.1667ZM48.0205 15.7748H39.9274V16.0774C39.9274 17.7906 40.5257 18.2376 42.5033 18.2376C44.2812 18.2376 45.3663 18.1481 47.6512 17.7463V21.4078C45.4476 21.8662 44.2993 21.9866 42.1376 21.9866C37.3988 21.9866 35.5145 19.4456 35.5145 15.7748V12.7683C35.5145 9.55638 36.9125 6.92587 41.7683 6.92587C46.6241 6.92587 48.0205 9.52603 48.0205 12.7683V15.7748ZM62.3669 15.8443C62.3669 19.3921 61.3725 21.9799 55.3488 21.9799C53.1734 21.9799 51.8975 21.785 49.4967 21.4084V1.12773L53.9085 0.377111V7.47121C54.862 7.11005 56.096 6.92638 57.219 6.92638C61.6313 6.92638 62.3664 8.94364 62.3664 12.1854V15.8443H62.3669ZM76.5094 15.9215C76.5094 18.9821 75.2704 21.9506 70.0862 21.9506C64.8994 21.9506 63.6372 18.9821 63.6372 15.9215V12.9663C63.6372 9.90417 64.8994 6.93513 70.0862 6.93513C75.2704 6.93513 76.5094 9.90417 76.5094 12.9663V15.9215ZM90.6424 15.9215C90.6424 18.9821 89.4018 21.9506 84.2186 21.9506C79.0319 21.9506 77.7696 18.9821 77.7696 15.9215V12.9663C77.7696 9.90417 79.0319 6.93513 84.2186 6.93513C89.4018 6.93513 90.6424 9.90417 90.6424 12.9663V15.9215ZM105.146 21.785H100.364L96.3195 14.8997V21.785H91.9061V1.12722L96.3195 0.376596V13.6753L100.364 7.13783H105.146L100.731 14.2721L105.146 21.785ZM84.2035 10.6851C82.7046 10.6851 82.1845 11.5207 82.1845 12.5609V16.3572C82.1845 17.4001 82.7046 18.2382 84.2035 18.2382C85.7003 18.2382 86.23 17.4001 86.23 16.3572V12.5609C86.23 11.5207 85.7003 10.6851 84.2035 10.6851ZM107.665 19.2157C108.408 19.2157 109 19.8335 109 20.6053C109 21.3888 108.408 22 107.66 22C106.915 22 106.311 21.3888 106.311 20.6053C106.311 19.8335 106.915 19.2157 107.66 19.2157H107.665ZM107.66 19.4317C107.061 19.4317 106.571 19.957 106.571 20.6053C106.571 21.2653 107.061 21.7839 107.665 21.7839C108.269 21.7901 108.752 21.2653 108.752 20.6114C108.752 19.9575 108.269 19.4317 107.665 19.4317H107.66ZM107.406 21.414H107.164V19.8634C107.291 19.8454 107.412 19.8274 107.593 19.8274C107.824 19.8274 107.974 19.8768 108.066 19.9442C108.155 20.0126 108.203 20.117 108.203 20.2647C108.203 20.4694 108.071 20.5924 107.908 20.6423V20.6541C108.041 20.6793 108.131 20.8018 108.162 21.0297C108.197 21.271 108.234 21.3631 108.258 21.4135H108.004C107.968 21.3631 107.931 21.2216 107.901 21.0174C107.866 20.8203 107.768 20.7462 107.574 20.7462H107.406V21.414H107.406ZM107.406 20.5559H107.581C107.78 20.5559 107.949 20.4813 107.949 20.2894C107.949 20.1535 107.853 20.0182 107.581 20.0182C107.502 20.0182 107.447 20.0244 107.406 20.0301V20.5559Z" fill="black"/>
</svg>
