<svg width="90" height="19" viewBox="0 0 90 19" fill="none" xmlns="http://www.w3.org/2000/svg">
<path d="M46.3081 9.1498C45.5793 9.1498 45.054 9.39351 44.5213 9.6418V15.2601C45.0315 15.3096 45.324 15.3096 45.8081 15.3096C47.5574 15.3096 47.7972 14.4927 47.7972 13.352V10.6687C47.7972 9.82635 47.5231 9.1498 46.3081 9.1498ZM34.6907 8.84318C33.477 8.84318 33.2 9.52265 33.2 10.3642V10.837H36.1797V10.3642C36.1797 9.52265 35.9028 8.84318 34.6907 8.84318ZM12.1854 14.691C12.1854 15.3567 12.4934 15.7025 13.1732 15.7025C13.9024 15.7025 14.3342 15.46 14.8665 15.2109V13.8782H13.272C12.5171 13.8782 12.1854 14.0215 12.1854 14.691ZM57.609 9.1498C56.3933 9.1498 55.9721 9.82635 55.9721 10.6687V13.7428C55.9721 14.5873 56.3933 15.2659 57.609 15.2659C58.8215 15.2659 59.246 14.5873 59.246 13.7428V10.6687C59.2455 9.82635 58.8211 9.1498 57.609 9.1498ZM6.22753 18.1379H2.6538V9.31685H0.868164V6.27734H2.65421V4.4518C2.65421 1.97178 3.66203 0.497437 6.52656 0.497437H8.9115V3.53778H7.42081C6.30555 3.53778 6.23202 3.96271 6.23202 4.7555L6.22753 6.27692H8.92784L8.61205 9.31644H6.22753V18.1379ZM18.441 18.1608H15.4625L15.3338 17.3926C13.9739 18.1608 12.7602 18.2854 11.9595 18.2854C9.7751 18.2854 8.61246 16.7973 8.61246 14.7393C8.61246 12.3114 9.96915 11.4448 12.3962 11.4448H14.8665V10.9199C14.8665 9.68054 14.7272 9.31685 12.8582 9.31685H9.80248L10.1011 6.27734H13.4412C17.5419 6.27734 18.441 7.59838 18.441 10.9445V18.1608ZM28.5694 9.53973C26.716 9.21562 26.1837 9.14438 25.2919 9.14438C23.6901 9.14438 23.206 9.50474 23.206 10.892V13.5162C23.206 14.9035 23.6901 15.2655 25.2919 15.2655C26.1837 15.2655 26.716 15.193 28.5694 14.8676V17.8326C26.946 18.2038 25.8883 18.3012 24.9945 18.3012C21.1577 18.3012 19.6327 16.2437 19.6327 13.2712V11.142C19.6327 8.16704 21.1577 6.1057 24.9945 6.1057C25.8883 6.1057 26.946 6.2036 28.5694 6.57646V9.53973ZM39.7531 13.2712H33.1996V13.5162C33.1996 14.9035 33.6841 15.2655 35.2855 15.2655C36.7251 15.2655 37.6038 15.193 39.454 14.8676V17.8326C37.6696 18.2038 36.7398 18.3012 34.9893 18.3012C31.1521 18.3012 29.6263 16.2437 29.6263 13.2712V10.8366C29.6263 8.23578 30.7583 6.1057 34.6903 6.1057C38.6223 6.1057 39.7531 8.2112 39.7531 10.8366V13.2712ZM51.3701 13.3275C51.3701 16.2003 50.5649 18.2958 45.6872 18.2958C43.9257 18.2958 42.8925 18.1379 40.9484 17.833V1.41062L44.5209 0.802805V6.5473C45.293 6.25484 46.2922 6.10612 47.2016 6.10612C50.7745 6.10612 51.3697 7.73961 51.3697 10.3646V13.3275H51.3701ZM62.8221 13.3899C62.8221 15.8683 61.8188 18.2721 57.6209 18.2721C53.4209 18.2721 52.3988 15.8683 52.3988 13.3899V10.997C52.3988 8.5174 53.4209 6.1132 57.6209 6.1132C61.8188 6.1132 62.8221 8.5174 62.8221 10.997V13.3899ZM74.2664 13.3899C74.2664 15.8683 73.2618 18.2721 69.0647 18.2721C64.8647 18.2721 63.8426 15.8683 63.8426 13.3899V10.997C63.8426 8.5174 64.8647 6.1132 69.0647 6.1132C73.2618 6.1132 74.2664 8.5174 74.2664 10.997V13.3899ZM86.0109 18.1379H82.1385L78.8634 12.5626V18.1379H75.2897V1.41021L78.8634 0.802388V11.5711L82.1385 6.27734H86.0109L82.4355 12.0543L86.0109 18.1379ZM69.0525 9.1498C67.8387 9.1498 67.4176 9.82635 67.4176 10.6687V13.7428C67.4176 14.5873 67.8387 15.2659 69.0525 15.2659C70.2645 15.2659 70.6935 14.5873 70.6935 13.7428V10.6687C70.6935 9.82635 70.2645 9.1498 69.0525 9.1498ZM88.0506 16.0574C88.6524 16.0574 89.1316 16.5578 89.1316 17.1827C89.1316 17.8172 88.652 18.3121 88.0461 18.3121C87.4432 18.3121 86.9542 17.8172 86.9542 17.1827C86.9542 16.5578 87.4432 16.0574 88.0461 16.0574H88.0506ZM88.0461 16.2324C87.5612 16.2324 87.1646 16.6578 87.1646 17.1827C87.1646 17.7172 87.5616 18.1371 88.0506 18.1371C88.54 18.1421 88.931 17.7172 88.931 17.1877C88.931 16.6582 88.54 16.2324 88.0506 16.2324H88.0461ZM87.8407 17.8376H87.6446V16.5819C87.7475 16.5674 87.8456 16.5528 87.9926 16.5528C88.1789 16.5528 88.3006 16.5928 88.3754 16.6473C88.4477 16.7027 88.4865 16.7873 88.4865 16.9069C88.4865 17.0727 88.3795 17.1723 88.2475 17.2127V17.2222C88.355 17.2427 88.4281 17.3418 88.453 17.5264C88.4816 17.7218 88.5114 17.7963 88.5306 17.8371H88.3252C88.2962 17.7963 88.2663 17.6818 88.2418 17.5164C88.2132 17.3568 88.134 17.2968 87.9771 17.2968H87.8411V17.8376H87.8407ZM87.8407 17.1427H87.9828C88.1438 17.1427 88.2806 17.0823 88.2806 16.9269C88.2806 16.8169 88.203 16.7073 87.9828 16.7073C87.9187 16.7073 87.8742 16.7123 87.8407 16.7169V17.1427Z" fill="black"/>
</svg>
