<svg width="116" height="32" viewBox="0 0 116 32" fill="none" xmlns="http://www.w3.org/2000/svg">
<path d="M39.1111 26.2197V25.9218L39.707 25.7132C40.1043 25.594 40.3625 25.4153 40.4817 25.1769C40.6208 24.9386 40.6903 24.6207 40.6903 24.2235V8.61081C40.6903 8.21354 40.6208 7.89573 40.4817 7.65737C40.3427 7.419 40.0745 7.2303 39.6773 7.09126L39.1111 6.8529V6.55495H46.3514C49.311 6.55495 51.4463 7.10119 52.7573 8.19368C54.0882 9.2663 54.7536 10.6865 54.7536 12.4544C54.7536 13.5866 54.4755 14.6294 53.9193 15.5829C53.383 16.5165 52.4892 17.2613 51.2378 17.8175C49.9864 18.3737 48.298 18.6518 46.1726 18.6518H45.1596V24.1341C45.1596 24.9088 45.5469 25.4153 46.3216 25.6536L47.2154 25.9218V26.2197H39.1111ZM45.1596 18.0559H46.2918C47.2651 18.0559 48.0596 17.897 48.6754 17.5792C49.2912 17.2613 49.748 16.7052 50.046 15.9106C50.3439 15.1161 50.4929 14.0137 50.4929 12.6034C50.4929 11.1732 50.3241 10.0608 49.9864 9.2663C49.6686 8.47177 49.1918 7.92552 48.5562 7.62757C47.9206 7.30976 47.126 7.15085 46.1726 7.15085H45.1596V18.0559Z" fill="black"/>
<path d="M60.7331 26.6667C59.7598 26.6667 58.8858 26.5475 58.1111 26.3091C57.3365 26.0906 56.6214 25.8125 55.9659 25.4749L55.9957 21.9292H56.2936L57.3067 23.717C57.7437 24.5115 58.2204 25.1074 58.7368 25.5047C59.2732 25.8821 59.9485 26.0708 60.7629 26.0708C61.7164 26.0708 62.4811 25.8622 63.0571 25.4451C63.653 25.0081 63.951 24.432 63.951 23.717C63.951 23.0615 63.7424 22.5252 63.3253 22.108C62.9082 21.6909 62.1335 21.3135 61.0013 20.9758L59.7499 20.5885C58.5382 20.2309 57.5848 19.6747 56.8895 18.9199C56.1943 18.1651 55.8467 17.2415 55.8467 16.149C55.8467 14.838 56.3632 13.7256 57.3961 12.8119C58.429 11.8982 59.9088 11.4414 61.8355 11.4414C62.6102 11.4414 63.3352 11.5307 64.0106 11.7095C64.7058 11.8684 65.3712 12.1167 66.0069 12.4544L65.8281 15.6723H65.5301L64.4873 13.825C64.1099 13.1695 63.7325 12.7126 63.3551 12.4544C62.9975 12.1763 62.4513 12.0373 61.7164 12.0373C61.041 12.0373 60.4054 12.226 59.8095 12.6034C59.2136 12.9808 58.9156 13.5171 58.9156 14.2123C58.9156 14.8877 59.1639 15.424 59.6605 15.8212C60.1769 16.2185 60.9318 16.586 61.9249 16.9237L63.2657 17.311C64.6959 17.748 65.7188 18.3538 66.3346 19.1285C66.9504 19.8833 67.2583 20.797 67.2583 21.8697C67.2583 23.3197 66.6822 24.4817 65.5301 25.3557C64.3979 26.2297 62.7989 26.6667 60.7331 26.6667Z" fill="black"/>
<path d="M74.2168 26.6667C72.9456 26.6667 71.9524 26.3489 71.2373 25.7132C70.5421 25.0776 70.1945 24.0646 70.1945 22.6741V12.4842H68.1386V12.1862L68.8537 12.067C69.4695 11.928 69.9958 11.7294 70.4328 11.4711C70.8897 11.2129 71.3366 10.8653 71.7736 10.4283L74.2168 7.71696H74.5148L74.4254 11.8883H77.7624V12.4842H74.3956V23.2104C74.3956 23.9057 74.5446 24.432 74.8425 24.7896C75.1603 25.1471 75.5576 25.3259 76.0343 25.3259C76.4515 25.3259 76.8189 25.2266 77.1367 25.0279C77.4546 24.8094 77.7724 24.5214 78.0902 24.1639L78.3881 24.4618C77.9909 25.1372 77.4446 25.6735 76.7494 26.0708C76.0542 26.468 75.21 26.6667 74.2168 26.6667Z" fill="black"/>
<path d="M79.411 26.2197V25.9218L79.7685 25.8026C80.4836 25.5643 80.8411 25.0677 80.8411 24.3129V8.37245C80.8411 7.97518 80.7617 7.67723 80.6028 7.4786C80.4439 7.2601 80.1658 7.10119 79.7685 7.00187L79.3812 6.91249V6.61453L84.8337 5.33334L85.1912 5.6015L85.072 9.77282V19.9628C85.072 20.6977 85.072 21.4327 85.072 22.1676C85.0919 22.8827 85.1018 23.5978 85.1018 24.3129C85.1018 24.7101 85.1813 25.0379 85.3402 25.2961C85.4991 25.5345 85.7673 25.7132 86.1447 25.8324L86.532 25.9218V26.2197H79.411Z" fill="black"/>
<path d="M93.0015 26.6667C92.0282 26.6667 91.1542 26.5475 90.3795 26.3091C89.6049 26.0906 88.8898 25.8125 88.2343 25.4749L88.2641 21.9292H88.562L89.5751 23.717C90.0121 24.5115 90.4888 25.1074 91.0052 25.5047C91.5415 25.8821 92.2169 26.0708 93.0313 26.0708C93.9847 26.0708 94.7495 25.8622 95.3255 25.4451C95.9214 25.0081 96.2194 24.432 96.2194 23.717C96.2194 23.0615 96.0108 22.5252 95.5937 22.108C95.1765 21.6909 94.4019 21.3135 93.2697 20.9758L92.0183 20.5885C90.8066 20.2309 89.8531 19.6747 89.1579 18.9199C88.4627 18.1651 88.1151 17.2415 88.1151 16.149C88.1151 14.838 88.6315 13.7256 89.6644 12.8119C90.6973 11.8982 92.1772 11.4414 94.1039 11.4414C94.8786 11.4414 95.6036 11.5307 96.279 11.7095C96.9742 11.8684 97.6396 12.1167 98.2752 12.4544L98.0965 15.6723H97.7985L96.7557 13.825C96.3783 13.1695 96.0009 12.7126 95.6235 12.4544C95.2659 12.1763 94.7197 12.0373 93.9847 12.0373C93.3094 12.0373 92.6738 12.226 92.0779 12.6034C91.4819 12.9808 91.184 13.5171 91.184 14.2123C91.184 14.8877 91.4323 15.424 91.9289 15.8212C92.4453 16.2185 93.2001 16.586 94.1933 16.9237L95.5341 17.311C96.9643 17.748 97.9872 18.3538 98.603 19.1285C99.2188 19.8833 99.5266 20.797 99.5266 21.8697C99.5266 23.3197 98.9506 24.4817 97.7985 25.3557C96.6663 26.2297 95.0673 26.6667 93.0015 26.6667Z" fill="black"/>
<path d="M104.29 26.6667C103.575 26.6667 102.969 26.4184 102.473 25.9218C101.976 25.4252 101.728 24.8293 101.728 24.1341C101.728 23.4389 101.976 22.833 102.473 22.3166C102.969 21.8001 103.575 21.5419 104.29 21.5419C105.005 21.5419 105.611 21.8001 106.108 22.3166C106.604 22.833 106.853 23.4389 106.853 24.1341C106.853 24.8293 106.604 25.4252 106.108 25.9218C105.611 26.4184 105.005 26.6667 104.29 26.6667Z" fill="black"/>
<path d="M5.31777 21.3178C5.31777 22.8783 5.65389 24.3604 6.2577 25.6956C2.56758 24.0268 0 20.3132 0 16C0 11.6867 2.56758 7.97319 6.2577 6.30438C5.65389 7.63953 5.31777 9.12163 5.31777 10.6822C5.31777 12.6194 5.83569 14.4356 6.74061 16C5.83569 17.5643 5.31777 19.3806 5.31777 21.3178Z" fill="#AA8AFF"/>
<path d="M26.6822 21.3178C26.6822 22.8783 26.3461 24.3604 25.7423 25.6956C29.4324 24.0268 32 20.3132 32 16C32 11.6867 29.4324 7.97319 25.7423 6.30438C26.3461 7.63953 26.6822 9.12163 26.6822 10.6822C26.6822 12.6194 26.1643 14.4356 25.2594 16C26.1643 17.5643 26.6822 19.3806 26.6822 21.3178Z" fill="#AA8AFF"/>
<path d="M10.6826 5.31777C9.12202 5.31777 7.63992 5.65389 6.30477 6.2577C7.97358 2.56758 11.6871 -6.12346e-07 16.0004 -4.23808e-07C20.3136 -2.3527e-07 24.0272 2.56758 25.696 6.2577C24.3608 5.65389 22.8787 5.31777 21.3181 5.31777C19.3809 5.31777 17.5647 5.83569 16.0004 6.74061C14.436 5.83569 12.6198 5.31777 10.6826 5.31777Z" fill="#AA8AFF"/>
<path d="M10.6826 26.6822C9.12202 26.6822 7.63993 26.3461 6.30478 25.7423C7.97358 29.4324 11.6871 32 16.0004 32C20.3136 32 24.0272 29.4324 25.696 25.7423C24.3608 26.3461 22.8787 26.6822 21.3181 26.6822C19.3809 26.6822 17.5647 26.1643 16.0004 25.2594C14.436 26.1643 12.6198 26.6822 10.6826 26.6822Z" fill="#AA8AFF"/>
<path d="M21.2713 16C21.2713 14.4394 20.9352 12.9573 20.3314 11.6222C22.3641 12.5415 24.0563 14.0813 25.1662 16C24.0563 17.9187 22.3641 19.4585 20.3314 20.3778C20.9352 19.0427 21.2713 17.5606 21.2713 16Z" fill="#AA8AFF"/>
<path d="M10.5418 16C10.5418 14.4394 10.8779 12.9573 11.4818 11.6222C9.44896 12.5415 7.75683 14.0813 6.6469 16C7.75683 17.9187 9.44896 19.4585 11.4818 20.3778C10.8779 19.0427 10.5418 17.5606 10.5418 16Z" fill="#AA8AFF"/>
<path d="M15.9066 21.3644C17.4672 21.3644 18.9493 21.0283 20.2845 20.4245C19.3652 22.4573 17.8254 24.1494 15.9066 25.2594C13.9879 24.1494 12.4481 22.4573 11.5288 20.4245C12.864 21.0283 14.3461 21.3644 15.9066 21.3644Z" fill="#AA8AFF"/>
<path d="M15.9066 10.6356C17.4672 10.6356 18.9493 10.9717 20.2845 11.5755C19.3652 9.54271 17.8254 7.85058 15.9066 6.74065C13.9879 7.85058 12.4481 9.54271 11.5288 11.5755C12.864 10.9717 14.3461 10.6356 15.9066 10.6356Z" fill="#AA8AFF"/>
</svg>
