<svg width="1440" height="630" viewBox="0 0 1440 630" fill="none" xmlns="http://www.w3.org/2000/svg">
<path opacity="0.4" d="M828.182 596.783C861.723 575.283 888.569 541.485 908.756 495.477C929.593 449.421 939.982 389.559 939.982 315.943C939.982 241.702 929.594 181.526 908.758 135.469C888.571 88.8319 861.724 54.7158 828.177 33.2136C795.31 11.7441 759.894 1 721.95 1C684.004 1 648.275 11.745 614.781 33.2123L614.774 33.2171C581.855 54.7213 555.325 88.8392 535.139 135.476C514.934 181.53 504.861 241.703 504.861 315.943C504.861 389.558 514.935 449.418 535.141 495.471C555.328 541.481 581.859 575.281 614.774 596.783L614.781 596.788C648.275 618.255 684.004 629 721.95 629C759.896 629 795.313 618.255 828.182 596.783ZM828.182 596.783C828.179 596.785 828.177 596.786 828.175 596.788L827.635 595.946M828.182 596.783C828.182 596.783 828.182 596.783 828.182 596.783L827.635 595.946M827.635 595.946C794.923 617.315 759.695 628 721.95 628C684.205 628 648.662 617.315 615.321 595.946L907.843 135.874C928.603 181.755 938.982 241.778 938.982 315.943C938.982 389.479 928.603 449.188 907.843 495.069C887.712 540.951 860.976 574.576 827.635 595.946ZM760.986 596.086L760.997 596.078C772.071 588.087 781.104 573.551 787.995 552.27C794.881 531.007 799.905 501.554 803.048 463.876C803.048 463.876 803.048 463.875 803.048 463.875L804.045 463.958L760.986 596.086ZM760.986 596.086L760.975 596.094M760.986 596.086L760.975 596.094M760.975 596.094C750.483 604.11 737.496 608.145 721.95 608.145C706.411 608.145 693.1 604.113 681.971 596.086C671.512 588.09 662.792 573.858 655.902 553.207C649.018 531.945 643.994 502.181 640.852 463.876C637.709 425.575 636.137 376.266 636.137 315.943C636.137 254.99 637.709 205.368 640.852 167.067L640.852 167.065C643.995 128.126 649.02 98.3652 655.901 77.7382L655.904 77.7298M760.975 596.094L655.904 77.7298M655.904 77.7298C662.797 56.4444 671.518 41.9054 681.971 33.9142M655.904 77.7298L639.855 166.985C643 128.017 648.033 98.1627 654.953 77.4217C661.873 56.0522 670.68 41.2821 681.374 33.1114M681.374 33.1114L681.959 33.9224C681.963 33.9197 681.967 33.917 681.971 33.9142M681.374 33.1114L681.981 33.9061C681.978 33.9088 681.974 33.9115 681.971 33.9142M681.374 33.1114C692.698 24.9408 706.223 20.8555 721.95 20.8555C737.677 20.8555 750.888 24.9408 761.582 33.1114L681.971 33.9142M247.172 613.858V614.858H248.172H368.955H369.955V613.858V462.13H458.599H459.599V461.13V391.364V390.364H458.599H369.955V8.59942V7.59942H368.955H276.48H275.957L275.659 8.02967L-0.821812 406.822L-1 407.079V407.392V461.13V462.13H0H247.172V613.858ZM1228.57 613.858V614.858H1229.57H1350.36H1351.36V613.858V462.13H1440H1441V461.13V391.364V390.364H1440H1351.36V8.59942V7.59942H1350.36H1257.88H1257.36L1257.06 8.02967L980.579 406.822L980.401 407.079V407.392V461.13V462.13H981.401H1228.57V613.858ZM247.172 97.5794V390.364H43.4334L247.172 97.5794ZM1228.57 97.5794V390.364H1024.83L1228.57 97.5794Z" stroke="#F4F0FF" stroke-width="2"/>
</svg>
