<svg width="109" height="36" viewBox="0 0 109 36" fill="none" xmlns="http://www.w3.org/2000/svg">
<g clip-path="url(#clip0)">
<path d="M25.3534 19.129C25.3084 14.5737 29.2078 12.385 29.3832 12.2808C27.1884 9.18453 23.7792 8.75896 22.5648 8.71119C19.6639 8.42458 16.9023 10.3614 15.4271 10.3614C13.9519 10.3614 11.6806 8.75027 9.27434 8.79804C6.10801 8.84147 3.18905 10.5742 1.55641 13.31C-1.72686 18.8077 0.719854 26.9718 3.92666 31.4403C5.49633 33.6246 7.35835 36.0868 9.81406 35.9956C12.1798 35.9044 13.0703 34.5192 15.9218 34.5192C18.7733 34.5192 19.5784 35.9956 22.0746 35.9522C24.6157 35.9044 26.2259 33.7201 27.7821 31.5271C29.5721 28.9867 30.3142 26.5332 30.3592 26.4029C30.3008 26.3812 25.4073 24.5703 25.3534 19.129Z" fill="black"/>
<path d="M20.6627 5.74958C21.967 4.22533 22.844 2.11049 22.6056 0C20.7301 0.0738239 18.4588 1.20724 17.114 2.73148C15.9087 4.07768 14.8517 6.23161 15.1396 8.29867C17.222 8.45501 19.3629 7.26948 20.6627 5.74958ZM41.8015 23.6063L39.6427 29.9247H36.8676L43.9334 9.84463H47.1717L54.2644 29.9247H51.395L49.1731 23.6063H41.8015ZM48.6199 21.5783L46.587 15.7983C46.1237 14.4869 45.8179 13.297 45.5076 12.1332H45.4491C45.1388 13.323 44.8014 14.5433 44.4011 15.7679L42.3682 21.5739L48.6199 21.5783ZM56.3693 20.2104C56.3693 18.3648 56.3109 16.8709 56.2434 15.503H58.6811L58.807 17.9783H58.8655C59.9764 16.2195 61.735 15.1773 64.1727 15.1773C67.7843 15.1773 70.4964 18.1259 70.4964 22.5076C70.4964 27.6926 67.2266 30.2504 63.7095 30.2504C61.735 30.2504 60.0079 29.4166 59.1129 27.9879H59.0544V35.822H56.3693V20.2104ZM59.0499 24.0536C59.0499 24.4444 59.1084 24.7961 59.1758 25.1262C59.6706 26.9414 61.3032 28.1964 63.2507 28.1964C66.1202 28.1964 67.7888 25.9339 67.7888 22.6249C67.7888 19.7327 66.2146 17.2661 63.3452 17.2661C61.4966 17.2661 59.7695 18.5472 59.2388 20.5144C59.1444 20.84 59.0544 21.2309 59.0544 21.587L59.0499 24.0536ZM73.3029 20.2104C73.3029 18.3648 73.2444 16.8709 73.177 15.503H75.6147L75.7406 17.9783H75.7991C76.91 16.2195 78.6686 15.1773 81.1063 15.1773C84.7179 15.1773 87.4299 18.1259 87.4299 22.5076C87.4299 27.6926 84.1602 30.2504 80.643 30.2504C78.6686 30.2504 76.9415 29.4166 76.0465 27.9879H75.988V35.822H73.3029V20.2104ZM75.988 24.0536C75.988 24.4444 76.0465 24.7961 76.1139 25.1262C76.6087 26.9414 78.2413 28.1964 80.1888 28.1964C83.0583 28.1964 84.7269 25.9339 84.7269 22.6249C84.7269 19.7327 83.1527 17.2661 80.2832 17.2661C78.4347 17.2661 76.7076 18.5472 76.1769 20.5144C76.0824 20.84 75.9925 21.2309 75.9925 21.587L75.988 24.0536ZM90.241 8.77201H92.9575V29.9204H90.241V8.77201ZM98.4176 23.1894C98.4761 26.7329 100.824 28.1964 103.536 28.1964C105.479 28.1964 106.653 27.8707 107.669 27.4538L108.133 29.3298C107.179 29.7467 105.542 30.2244 103.167 30.2244C98.5706 30.2244 95.8225 27.3062 95.8225 22.9549C95.8225 18.6036 98.4761 15.1773 102.825 15.1773C107.701 15.1773 108.996 19.3158 108.996 21.9691C108.996 22.5076 108.938 22.9201 108.902 23.1894H98.4176ZM106.378 21.3134C106.41 19.6458 105.668 17.0533 102.614 17.0533C99.8659 17.0533 98.665 19.4982 98.4491 21.3134H106.378Z" fill="black"/>
</g>
<defs>
<clipPath id="clip0">
<rect width="109" height="36" fill="white"/>
</clipPath>
</defs>
</svg>
