<svg width="168" height="56" viewBox="0 0 168 56" fill="none" xmlns="http://www.w3.org/2000/svg">
<g clip-path="url(#clip0)">
<path d="M39.0763 29.7563C39.007 22.6702 45.0171 19.2656 45.2875 19.1035C41.9046 14.2871 36.65 13.6251 34.7784 13.5508C30.3072 13.1049 26.0508 16.1177 23.7771 16.1177C21.5034 16.1177 18.0026 13.6116 14.294 13.6859C9.41374 13.7534 4.91479 16.4487 2.39843 20.7045C-2.66202 29.2565 1.10905 41.9561 6.05166 48.9071C8.47097 52.305 11.3409 56.1351 15.1258 55.9933C18.7721 55.8514 20.1447 53.6965 24.5396 53.6965C28.9346 53.6965 30.1754 55.9933 34.0228 55.9257C37.9394 55.8514 40.4211 52.4536 42.8196 49.0422C45.5786 45.0905 46.7224 41.2738 46.7917 41.0712C46.7016 41.0374 39.1595 38.2205 39.0763 29.7563Z" fill="#FFF0FE"/>
<path d="M31.8461 8.94379C33.8564 6.57274 35.2082 3.28299 34.8407 0C31.9501 0.114837 28.4493 1.87793 26.3766 4.24897C24.5188 6.34306 22.8898 9.69361 23.3334 12.909C26.543 13.1522 29.8427 11.3081 31.8461 8.94379ZM64.427 36.7209L61.0996 46.5496H56.8225L67.7129 15.3139H72.704L83.636 46.5496H79.2133L75.7888 36.7209H64.427ZM74.9361 33.5662L71.8028 24.5752C71.0888 22.5351 70.6174 20.6842 70.1391 18.8738H70.049C69.5707 20.7247 69.0508 22.6229 68.4338 24.5279L65.3005 33.5595L74.9361 33.5662ZM86.8802 31.4384C86.8802 28.5674 86.7901 26.2437 86.6861 24.1158H90.4433L90.6374 27.9662H90.7275C92.4398 25.2304 95.1502 23.6092 98.9074 23.6092C104.474 23.6092 108.654 28.1959 108.654 35.0118C108.654 43.0774 103.614 47.0562 98.1934 47.0562C95.1502 47.0562 92.4883 45.7592 91.1088 43.5368H91.0187V55.723H86.8802V31.4384ZM91.0117 37.4166C91.0117 38.0246 91.1019 38.5718 91.2058 39.0852C91.9684 41.9088 94.4847 43.861 97.4863 43.861C101.909 43.861 104.481 40.3416 104.481 35.1942C104.481 30.6953 102.055 26.8584 97.6319 26.8584C94.7828 26.8584 92.1209 28.8511 91.3029 31.9112C91.1573 32.4179 91.0187 33.0258 91.0187 33.5797L91.0117 37.4166ZM112.98 31.4384C112.98 28.5674 112.89 26.2437 112.786 24.1158H116.543L116.737 27.9662H116.827C118.539 25.2304 121.25 23.6092 125.007 23.6092C130.573 23.6092 134.753 28.1959 134.753 35.0118C134.753 43.0774 129.714 47.0562 124.293 47.0562C121.25 47.0562 118.588 45.7592 117.208 43.5368H117.118V55.723H112.98V31.4384ZM117.118 37.4166C117.118 38.0246 117.208 38.5718 117.312 39.0852C118.075 41.9088 120.591 43.861 123.593 43.861C128.015 43.861 130.587 40.3416 130.587 35.1942C130.587 30.6953 128.161 26.8584 123.738 26.8584C120.889 26.8584 118.227 28.8511 117.409 31.9112C117.264 32.4179 117.125 33.0258 117.125 33.5797L117.118 37.4166ZM139.086 13.6454H143.273V46.5428H139.086V13.6454ZM151.689 36.0724C151.779 41.5846 155.397 43.861 159.577 43.861C162.572 43.861 164.381 43.3544 165.948 42.7059L166.662 45.6241C165.192 46.2726 162.669 47.0157 159.009 47.0157C151.924 47.0157 147.689 42.4762 147.689 35.7076C147.689 28.939 151.779 23.6092 158.482 23.6092C165.997 23.6092 167.993 30.0468 167.993 34.1742C167.993 35.0118 167.903 35.6536 167.847 36.0724H151.689ZM163.958 33.1542C164.007 30.5602 162.863 26.5274 158.156 26.5274C153.921 26.5274 152.07 30.3305 151.737 33.1542H163.958Z" fill="#FFF0FE"/>
</g>
<defs>
<clipPath id="clip0">
<rect width="168" height="56" fill="white"/>
</clipPath>
</defs>
</svg>
