<svg width="90" height="30" viewBox="0 0 90 30" fill="none" xmlns="http://www.w3.org/2000/svg">
<g clip-path="url(#clip0)">
<path d="M11.7376 0.833252H12.5225C15.2474 0.893192 17.9279 2.00209 19.8531 3.96514C19.1423 4.69941 18.4166 5.40371 17.7206 6.13799C16.6395 5.14897 15.3363 4.38473 13.9146 4.11499C11.8117 3.66544 9.54587 4.07004 7.78356 5.28383C5.85835 6.55757 4.55513 8.71543 4.27376 11.0231C3.96276 13.3009 4.59956 15.6985 6.06568 17.4667C7.47257 19.19 9.61991 20.269 11.8413 20.3439C13.9146 20.4638 16.0768 19.8194 17.5873 18.3509C18.7721 17.3169 19.32 15.7435 19.4977 14.215C17.0394 14.215 14.581 14.23 12.1227 14.215V11.128H22.4744C23.0075 14.4397 22.2374 18.171 19.7495 20.5387C18.0908 22.217 15.7954 23.206 13.4555 23.4008C11.1897 23.6256 8.84983 23.1911 6.83577 22.0822C4.42185 20.7785 2.49664 18.5756 1.54885 15.9832C0.660288 13.6006 0.645479 10.9033 1.4748 8.50564C2.23007 6.31781 3.68139 4.38473 5.54736 3.03607C7.33928 1.70239 9.51625 0.968118 11.7376 0.833252Z" fill="black"/>
<path d="M71.123 1.61108H74.2922V23.0098C73.2408 23.0098 72.1745 23.0248 71.123 22.9949C71.1379 15.8769 71.123 8.744 71.123 1.61108Z" fill="black"/>
<path d="M29.5245 9.02868C31.4793 8.65405 33.5971 9.07364 35.2113 10.2575C36.6774 11.3064 37.6992 12.9548 38.0102 14.753C38.4101 16.8359 37.9066 19.1137 36.5737 20.762C35.1372 22.6052 32.7826 23.5942 30.4871 23.4444C28.3842 23.3245 26.3405 22.2605 25.0965 20.5223C23.6896 18.6042 23.349 15.9668 24.1191 13.719C24.8892 11.3064 27.0662 9.46325 29.5245 9.02868ZM29.9688 11.8759C29.1691 12.0856 28.4286 12.5502 27.8955 13.2095C26.459 14.9478 26.5478 17.78 28.1324 19.3984C29.0358 20.3275 30.3983 20.762 31.657 20.5073C32.827 20.2975 33.8488 19.5033 34.4116 18.4543C35.389 16.6711 35.1076 14.2135 33.6119 12.8199C32.6493 11.9208 31.2424 11.5462 29.9688 11.8759Z" fill="black"/>
<path d="M45.222 9.02881C47.4582 8.59424 49.9017 9.22361 51.5752 10.812C54.3001 13.2846 54.5963 17.915 52.2712 20.7622C50.8644 22.5604 48.5837 23.5494 46.3327 23.4445C44.1854 23.3846 42.0676 22.3056 40.794 20.5224C39.3575 18.5593 39.0465 15.862 39.861 13.5693C40.6755 11.2316 42.8081 9.44839 45.222 9.02881ZM45.6663 11.876C44.8666 12.0858 44.1261 12.5503 43.593 13.1947C42.1713 14.903 42.2305 17.6902 43.7559 19.3236C44.6593 20.2976 46.0661 20.7771 47.3694 20.5074C48.5245 20.2826 49.5611 19.5034 50.1239 18.4545C51.0865 16.6562 50.8051 14.1987 49.2946 12.8051C48.332 11.906 46.9251 11.5463 45.6663 11.876Z" fill="black"/>
<path d="M58.5356 9.89792C60.2386 8.81899 62.5045 8.51929 64.3408 9.44837C64.9184 9.70312 65.3923 10.1377 65.8514 10.5723C65.8662 10.1677 65.8514 9.74807 65.8662 9.32849C66.8584 9.34347 67.8506 9.32849 68.8577 9.34347V22.5603C68.8429 24.5534 68.3393 26.6663 66.9176 28.1198C65.3627 29.7232 62.9784 30.2177 60.831 29.8881C58.5356 29.5434 56.5363 27.8501 55.6478 25.7072C56.5363 25.2727 57.4693 24.928 58.3875 24.5234C58.9058 25.7522 59.9573 26.8011 61.2753 27.0409C62.5933 27.2807 64.1187 26.951 64.9776 25.8421C65.8958 24.7032 65.8958 23.1448 65.8514 21.7512C65.1701 22.4255 64.3853 23.0249 63.4375 23.2497C61.379 23.8341 59.1131 23.1148 57.5285 21.7062C55.9291 20.2976 54.9813 18.1248 55.0702 15.9669C55.1146 13.5243 56.4771 11.1717 58.5356 9.89792ZM61.6011 11.816C60.6977 11.9659 59.8536 12.4754 59.276 13.1797C57.884 14.858 57.884 17.5403 59.2908 19.1887C60.0906 20.1627 61.379 20.7022 62.6229 20.5673C63.7929 20.4474 64.874 19.6982 65.4515 18.6642C66.4289 16.911 66.266 14.5283 64.948 12.9998C64.1335 12.0558 62.8303 11.5912 61.6011 11.816Z" fill="black"/>
<path d="M78.0989 10.6622C79.876 8.98391 82.6158 8.41447 84.8964 9.29859C87.0585 10.1228 88.4358 12.2057 89.1318 14.3486C85.9182 15.6972 82.7194 17.0309 79.5058 18.3796C79.9501 19.2337 80.6313 20.013 81.5495 20.3276C82.8379 20.7922 84.3781 20.6273 85.4591 19.7582C85.8886 19.4285 86.2292 18.994 86.555 18.5744C87.3695 19.1288 88.184 19.6683 88.9986 20.2227C87.8434 21.976 85.9034 23.2048 83.8153 23.3996C81.505 23.6843 79.0467 22.7852 77.551 20.957C75.0926 18.0799 75.3296 13.2547 78.0989 10.6622ZM79.6835 13.4345C79.18 14.1688 78.9727 15.0679 78.9875 15.952C81.1348 15.0529 83.2822 14.1538 85.4295 13.2397C85.0741 12.4005 84.2152 11.891 83.3414 11.7562C81.9345 11.5014 80.4684 12.2656 79.6835 13.4345Z" fill="black"/>
</g>
<defs>
<clipPath id="clip0">
<rect width="88.2634" height="29.1512" fill="white" transform="translate(0.868164 0.829346)"/>
</clipPath>
</defs>
</svg>
