<svg width="87" height="24" viewBox="0 0 87 24" fill="none" xmlns="http://www.w3.org/2000/svg">
<path d="M29.3335 19.6648V19.4413L29.7804 19.2849C30.0784 19.1955 30.272 19.0615 30.3614 18.8827C30.4657 18.7039 30.5179 18.4655 30.5179 18.1676V6.4581C30.5179 6.16015 30.4657 5.92179 30.3614 5.74302C30.2571 5.56425 30.056 5.42272 29.7581 5.31844L29.3335 5.13966V4.9162H34.7637C36.9834 4.9162 38.5849 5.32588 39.5681 6.14525C40.5663 6.94972 41.0653 8.0149 41.0653 9.34078C41.0653 10.1899 40.8568 10.9721 40.4396 11.6872C40.0374 12.3873 39.367 12.946 38.4285 13.3631C37.4899 13.7803 36.2236 13.9888 34.6296 13.9888H33.8698V18.1006C33.8698 18.6816 34.1603 19.0615 34.7413 19.2402L35.4117 19.4413V19.6648H29.3335ZM33.8698 13.5419H34.719C35.449 13.5419 36.0449 13.4227 36.5067 13.1844C36.9685 12.946 37.3111 12.5289 37.5346 11.933C37.7581 11.3371 37.8698 10.5102 37.8698 9.45251C37.8698 8.37989 37.7432 7.54562 37.4899 6.94972C37.2516 6.35382 36.894 5.94413 36.4173 5.72067C35.9406 5.48231 35.3447 5.36313 34.6296 5.36313H33.8698V13.5419Z" fill="black"/>
<path d="M45.55 20C44.82 20 44.1645 19.9106 43.5835 19.7318C43.0025 19.568 42.4662 19.3594 41.9746 19.1061L41.9969 16.4469H42.2204L42.9801 17.7877C43.3079 18.3836 43.6654 18.8305 44.0528 19.1285C44.455 19.4115 44.9615 19.5531 45.5723 19.5531C46.2874 19.5531 46.861 19.3966 47.293 19.0838C47.7399 18.7561 47.9634 18.324 47.9634 17.7877C47.9634 17.2961 47.807 16.8939 47.4941 16.581C47.1813 16.2682 46.6003 15.9851 45.7511 15.7318L44.8125 15.4413C43.9038 15.1732 43.1887 14.7561 42.6673 14.1899C42.1459 13.6238 41.8852 12.9311 41.8852 12.1117C41.8852 11.1285 42.2725 10.2942 43.0472 9.60894C43.8219 8.92365 44.9317 8.58101 46.3768 8.58101C46.9578 8.58101 47.5016 8.64804 48.0081 8.78212C48.5295 8.9013 49.0286 9.08752 49.5053 9.34078L49.3712 11.7542H49.1477L48.3656 10.3687C48.0826 9.87709 47.7995 9.53445 47.5165 9.34078C47.2483 9.13222 46.8386 9.02793 46.2874 9.02793C45.7809 9.02793 45.3042 9.16946 44.8572 9.45251C44.4103 9.73557 44.1868 10.1378 44.1868 10.6592C44.1868 11.1657 44.3731 11.568 44.7455 11.8659C45.1328 12.1639 45.699 12.4395 46.4438 12.6927L47.4494 12.9832C48.522 13.311 49.2893 13.7654 49.7511 14.3464C50.2129 14.9125 50.4438 15.5978 50.4438 16.4022C50.4438 17.4898 50.0118 18.3613 49.1477 19.0168C48.2986 19.6723 47.0993 20 45.55 20Z" fill="black"/>
<path d="M55.6628 20C54.7093 20 53.9644 19.7616 53.4281 19.2849C52.9067 18.8082 52.646 18.0484 52.646 17.0056V9.36313H51.1041V9.13966L51.6404 9.05028C52.1022 8.946 52.497 8.79702 52.8248 8.60335C53.1674 8.40968 53.5026 8.14898 53.8304 7.82123L55.6628 5.78771H55.8862L55.8192 8.9162H58.322V9.36313H55.7968V17.4078C55.7968 17.9292 55.9086 18.324 56.132 18.5922C56.3704 18.8603 56.6683 18.9944 57.0259 18.9944C57.3387 18.9944 57.6143 18.9199 57.8527 18.7709C58.0911 18.6071 58.3294 18.3911 58.5678 18.1229L58.7912 18.3464C58.4933 18.8529 58.0836 19.2551 57.5622 19.5531C57.0408 19.851 56.4076 20 55.6628 20Z" fill="black"/>
<path d="M59.5584 19.6648V19.4413L59.8265 19.352C60.3628 19.1732 60.631 18.8007 60.631 18.2346V6.27933C60.631 5.98138 60.5714 5.75791 60.4522 5.60894C60.333 5.44507 60.1245 5.32588 59.8265 5.2514L59.536 5.18436V4.96089L63.6254 4L63.8936 4.20112L63.8042 7.32961V14.9721C63.8042 15.5233 63.8042 16.0745 63.8042 16.6257C63.8191 17.162 63.8265 17.6983 63.8265 18.2346C63.8265 18.5326 63.8861 18.7784 64.0053 18.9721C64.1245 19.1508 64.3256 19.2849 64.6086 19.3743L64.8991 19.4413V19.6648H59.5584Z" fill="black"/>
<path d="M69.7513 20C69.0213 20 68.3658 19.9106 67.7848 19.7318C67.2038 19.568 66.6675 19.3594 66.1758 19.1061L66.1982 16.4469H66.4217L67.1814 17.7877C67.5092 18.3836 67.8667 18.8305 68.2541 19.1285C68.6563 19.4115 69.1628 19.5531 69.7736 19.5531C70.4887 19.5531 71.0623 19.3966 71.4943 19.0838C71.9412 18.7561 72.1647 18.324 72.1647 17.7877C72.1647 17.2961 72.0082 16.8939 71.6954 16.581C71.3825 16.2682 70.8015 15.9851 69.9524 15.7318L69.0138 15.4413C68.1051 15.1732 67.39 14.7561 66.8686 14.1899C66.3472 13.6238 66.0865 12.9311 66.0865 12.1117C66.0865 11.1285 66.4738 10.2942 67.2485 9.60894C68.0231 8.92365 69.133 8.58101 70.5781 8.58101C71.1591 8.58101 71.7029 8.64804 72.2094 8.78212C72.7308 8.9013 73.2299 9.08752 73.7066 9.34078L73.5725 11.7542H73.349L72.5669 10.3687C72.2839 9.87709 72.0008 9.53445 71.7177 9.34078C71.4496 9.13222 71.0399 9.02793 70.4887 9.02793C69.9822 9.02793 69.5055 9.16946 69.0585 9.45251C68.6116 9.73557 68.3881 10.1378 68.3881 10.6592C68.3881 11.1657 68.5744 11.568 68.9468 11.8659C69.3341 12.1639 69.9002 12.4395 70.6451 12.6927L71.6507 12.9832C72.7233 13.311 73.4906 13.7654 73.9524 14.3464C74.4142 14.9125 74.6451 15.5978 74.6451 16.4022C74.6451 17.4898 74.2131 18.3613 73.349 19.0168C72.4999 19.6723 71.3006 20 69.7513 20Z" fill="black"/>
<path d="M78.2177 20C77.6814 20 77.2271 19.8138 76.8546 19.4413C76.4822 19.0689 76.296 18.622 76.296 18.1006C76.296 17.5791 76.4822 17.1248 76.8546 16.7374C77.2271 16.3501 77.6814 16.1564 78.2177 16.1564C78.7541 16.1564 79.2084 16.3501 79.5809 16.7374C79.9533 17.1248 80.1395 17.5791 80.1395 18.1006C80.1395 18.622 79.9533 19.0689 79.5809 19.4413C79.2084 19.8138 78.7541 20 78.2177 20Z" fill="black"/>
<path d="M3.98833 15.9883C3.98833 17.1588 4.24042 18.2703 4.69327 19.2717C1.92569 18.0201 0 15.2349 0 12C0 8.76507 1.92569 5.97991 4.69327 4.7283C4.24042 5.72966 3.98833 6.84124 3.98833 8.01168C3.98833 9.46458 4.37677 10.8267 5.05546 12C4.37677 13.1733 3.98833 14.5354 3.98833 15.9883Z" fill="#AA8AFF"/>
<path d="M20.0117 15.9883C20.0117 17.1588 19.7596 18.2703 19.3067 19.2717C22.0743 18.0201 24 15.2349 24 12C24 8.76507 22.0743 5.97991 19.3067 4.7283C19.7596 5.72966 20.0117 6.84124 20.0117 8.01168C20.0117 9.46458 19.6232 10.8267 18.9445 12C19.6232 13.1733 20.0117 14.5354 20.0117 15.9883Z" fill="#AA8AFF"/>
<path d="M8.01194 3.98832C6.8415 3.98832 5.72993 4.24042 4.72857 4.69327C5.98017 1.92569 8.76533 -4.5926e-07 12.0003 -3.17856e-07C15.2352 -1.76453e-07 18.0204 1.92569 19.272 4.69327C18.2706 4.24042 17.159 3.98833 15.9886 3.98833C14.5357 3.98833 13.1735 4.37677 12.0003 5.05546C10.827 4.37677 9.46484 3.98832 8.01194 3.98832Z" fill="#AA8AFF"/>
<path d="M8.01194 20.0117C6.8415 20.0117 5.72993 19.7596 4.72857 19.3067C5.98017 22.0743 8.76533 24 12.0003 24C15.2352 24 18.0204 22.0743 19.272 19.3067C18.2706 19.7596 17.159 20.0117 15.9886 20.0117C14.5357 20.0117 13.1735 19.6232 12.0003 18.9445C10.827 19.6232 9.46484 20.0117 8.01194 20.0117Z" fill="#AA8AFF"/>
<path d="M15.9535 12C15.9535 10.8295 15.7014 9.71798 15.2485 8.71661C16.7731 9.4061 18.0422 10.5609 18.8747 12C18.0422 13.439 16.7731 14.5939 15.2485 15.2834C15.7014 14.282 15.9535 13.1704 15.9535 12Z" fill="#AA8AFF"/>
<path d="M7.90638 12C7.90638 10.8295 8.15848 9.71798 8.61133 8.71661C7.08674 9.4061 5.81764 10.5609 4.98519 12C5.81764 13.439 7.08674 14.5939 8.61133 15.2834C8.15848 14.282 7.90638 13.1704 7.90638 12Z" fill="#AA8AFF"/>
<path d="M11.93 16.0233C13.1004 16.0233 14.212 15.7712 15.2134 15.3184C14.5239 16.843 13.369 18.1121 11.93 18.9445C10.491 18.1121 9.33611 16.843 8.64662 15.3184C9.64798 15.7712 10.7596 16.0233 11.93 16.0233Z" fill="#AA8AFF"/>
<path d="M11.93 7.97666C13.1004 7.97666 14.212 8.22876 15.2134 8.68161C14.5239 7.15702 13.369 5.88792 11.93 5.05547C10.491 5.88792 9.33611 7.15702 8.64662 8.68161C9.64798 8.22876 10.7596 7.97666 11.93 7.97666Z" fill="#AA8AFF"/>
</svg>
