<svg width="116" height="32" viewBox="0 0 116 32" fill="none" xmlns="http://www.w3.org/2000/svg">
<path d="M39.1111 26.2197V25.9217L39.707 25.7131C40.1043 25.594 40.3625 25.4152 40.4817 25.1768C40.6208 24.9385 40.6903 24.6207 40.6903 24.2234V8.61072C40.6903 8.21345 40.6208 7.89564 40.4817 7.65727C40.3427 7.41891 40.0745 7.23021 39.6773 7.09117L39.1111 6.8528V6.55485H46.3514C49.311 6.55485 51.4463 7.1011 52.7573 8.19359C54.0882 9.26621 54.7536 10.6864 54.7536 12.4543C54.7536 13.5865 54.4755 14.6293 53.9193 15.5828C53.383 16.5164 52.4892 17.2612 51.2378 17.8174C49.9864 18.3736 48.298 18.6517 46.1726 18.6517H45.1596V24.134C45.1596 24.9087 45.5469 25.4152 46.3216 25.6535L47.2154 25.9217V26.2197H39.1111ZM45.1596 18.0558H46.2918C47.2651 18.0558 48.0596 17.8969 48.6754 17.5791C49.2912 17.2612 49.748 16.7051 50.046 15.9105C50.3439 15.116 50.4929 14.0136 50.4929 12.6033C50.4929 11.1731 50.3241 10.0608 49.9864 9.26621C49.6686 8.47168 49.1918 7.92543 48.5562 7.62748C47.9206 7.30966 47.126 7.15076 46.1726 7.15076H45.1596V18.0558Z" fill="black"/>
<path d="M60.7331 26.6666C59.7598 26.6666 58.8858 26.5474 58.1111 26.309C57.3365 26.0905 56.6214 25.8125 55.9659 25.4748L55.9957 21.9292H56.2936L57.3067 23.7169C57.7437 24.5114 58.2204 25.1073 58.7368 25.5046C59.2732 25.882 59.9485 26.0707 60.7629 26.0707C61.7164 26.0707 62.4811 25.8621 63.0571 25.445C63.653 25.008 63.951 24.4319 63.951 23.7169C63.951 23.0614 63.7424 22.5251 63.3253 22.1079C62.9082 21.6908 62.1335 21.3134 61.0013 20.9757L59.7499 20.5884C58.5382 20.2308 57.5848 19.6747 56.8895 18.9198C56.1943 18.165 55.8467 17.2414 55.8467 16.1489C55.8467 14.8379 56.3632 13.7256 57.3961 12.8118C58.429 11.8981 59.9088 11.4413 61.8355 11.4413C62.6102 11.4413 63.3352 11.5306 64.0106 11.7094C64.7058 11.8683 65.3712 12.1166 66.0069 12.4543L65.8281 15.6722H65.5301L64.4873 13.8249C64.1099 13.1694 63.7325 12.7125 63.3551 12.4543C62.9975 12.1762 62.4513 12.0372 61.7164 12.0372C61.041 12.0372 60.4054 12.2259 59.8095 12.6033C59.2136 12.9807 58.9156 13.517 58.9156 14.2122C58.9156 14.8876 59.1639 15.4239 59.6605 15.8211C60.1769 16.2184 60.9318 16.5859 61.9249 16.9236L63.2657 17.3109C64.6959 17.7479 65.7188 18.3537 66.3346 19.1284C66.9504 19.8832 67.2583 20.7969 67.2583 21.8696C67.2583 23.3196 66.6822 24.4816 65.5301 25.3556C64.3979 26.2296 62.7989 26.6666 60.7331 26.6666Z" fill="black"/>
<path d="M74.2168 26.6666C72.9456 26.6666 71.9524 26.3488 71.2373 25.7131C70.5421 25.0775 70.1945 24.0645 70.1945 22.674V12.4841H68.1386V12.1861L68.8537 12.067C69.4695 11.9279 69.9958 11.7293 70.4328 11.4711C70.8897 11.2128 71.3366 10.8652 71.7736 10.4282L74.2168 7.71686H74.5148L74.4254 11.8882H77.7624V12.4841H74.3956V23.2103C74.3956 23.9056 74.5446 24.4319 74.8425 24.7895C75.1603 25.147 75.5576 25.3258 76.0343 25.3258C76.4515 25.3258 76.8189 25.2265 77.1367 25.0279C77.4546 24.8094 77.7724 24.5213 78.0902 24.1638L78.3881 24.4617C77.9909 25.1371 77.4446 25.6734 76.7494 26.0707C76.0542 26.468 75.21 26.6666 74.2168 26.6666Z" fill="black"/>
<path d="M79.411 26.2197V25.9217L79.7685 25.8025C80.4836 25.5642 80.8411 25.0676 80.8411 24.3128V8.37236C80.8411 7.97509 80.7617 7.67714 80.6028 7.4785C80.4439 7.26001 80.1658 7.1011 79.7685 7.00178L79.3812 6.9124V6.61444L84.8337 5.33325L85.1912 5.60141L85.072 9.77273V19.9627C85.072 20.6976 85.072 21.4326 85.072 22.1675C85.0919 22.8826 85.1018 23.5977 85.1018 24.3128C85.1018 24.71 85.1813 25.0378 85.3402 25.296C85.4991 25.5344 85.7673 25.7131 86.1447 25.8323L86.532 25.9217V26.2197H79.411Z" fill="black"/>
<path d="M93.0015 26.6666C92.0282 26.6666 91.1542 26.5474 90.3795 26.309C89.6049 26.0905 88.8898 25.8125 88.2343 25.4748L88.2641 21.9292H88.562L89.5751 23.7169C90.0121 24.5114 90.4888 25.1073 91.0052 25.5046C91.5415 25.882 92.2169 26.0707 93.0313 26.0707C93.9847 26.0707 94.7495 25.8621 95.3255 25.445C95.9214 25.008 96.2194 24.4319 96.2194 23.7169C96.2194 23.0614 96.0108 22.5251 95.5937 22.1079C95.1765 21.6908 94.4019 21.3134 93.2697 20.9757L92.0183 20.5884C90.8066 20.2308 89.8531 19.6747 89.1579 18.9198C88.4627 18.165 88.1151 17.2414 88.1151 16.1489C88.1151 14.8379 88.6315 13.7256 89.6644 12.8118C90.6973 11.8981 92.1772 11.4413 94.1039 11.4413C94.8786 11.4413 95.6036 11.5306 96.279 11.7094C96.9742 11.8683 97.6396 12.1166 98.2752 12.4543L98.0965 15.6722H97.7985L96.7557 13.8249C96.3783 13.1694 96.0009 12.7125 95.6235 12.4543C95.2659 12.1762 94.7197 12.0372 93.9847 12.0372C93.3094 12.0372 92.6738 12.2259 92.0779 12.6033C91.4819 12.9807 91.184 13.517 91.184 14.2122C91.184 14.8876 91.4323 15.4239 91.9289 15.8211C92.4453 16.2184 93.2001 16.5859 94.1933 16.9236L95.5341 17.3109C96.9643 17.7479 97.9872 18.3537 98.603 19.1284C99.2188 19.8832 99.5266 20.7969 99.5266 21.8696C99.5266 23.3196 98.9506 24.4816 97.7985 25.3556C96.6663 26.2296 95.0673 26.6666 93.0015 26.6666Z" fill="black"/>
<path d="M104.29 26.6666C103.575 26.6666 102.969 26.4183 102.473 25.9217C101.976 25.4251 101.728 24.8292 101.728 24.134C101.728 23.4388 101.976 22.8329 102.473 22.3165C102.969 21.8 103.575 21.5418 104.29 21.5418C105.005 21.5418 105.611 21.8 106.108 22.3165C106.604 22.8329 106.853 23.4388 106.853 24.134C106.853 24.8292 106.604 25.4251 106.108 25.9217C105.611 26.4183 105.005 26.6666 104.29 26.6666Z" fill="black"/>
<path d="M5.31777 21.3178C5.31777 22.8784 5.65389 24.3605 6.2577 25.6957C2.56758 24.0268 0 20.3133 0 16C0 11.6868 2.56758 7.97325 6.2577 6.30444C5.65389 7.63959 5.31777 9.12169 5.31777 10.6823C5.31777 12.6195 5.83569 14.4357 6.74061 16C5.83569 17.5644 5.31777 19.3806 5.31777 21.3178Z" fill="#A3FF1D"/>
<path d="M26.6822 21.3178C26.6822 22.8784 26.3461 24.3605 25.7423 25.6957C29.4324 24.0268 32 20.3133 32 16C32 11.6868 29.4324 7.97325 25.7423 6.30444C26.3461 7.63959 26.6822 9.12169 26.6822 10.6823C26.6822 12.6195 26.1643 14.4357 25.2594 16C26.1643 17.5644 26.6822 19.3806 26.6822 21.3178Z" fill="#A3FF1D"/>
<path d="M10.6826 5.31777C9.12201 5.31777 7.63991 5.65389 6.30476 6.2577C7.97357 2.56758 11.6871 -6.12346e-07 16.0004 -4.23808e-07C20.3136 -2.3527e-07 24.0272 2.56758 25.696 6.2577C24.3608 5.65389 22.8787 5.31777 21.3181 5.31777C19.3809 5.31777 17.5647 5.83569 16.0004 6.74061C14.436 5.83569 12.6198 5.31777 10.6826 5.31777Z" fill="#A3FF1D"/>
<path d="M10.6826 26.6822C9.12201 26.6822 7.63991 26.3461 6.30476 25.7423C7.97357 29.4324 11.6871 32 16.0004 32C20.3136 32 24.0272 29.4324 25.696 25.7423C24.3608 26.3461 22.8787 26.6822 21.3181 26.6822C19.3809 26.6822 17.5647 26.1643 16.0004 25.2594C14.436 26.1643 12.6198 26.6822 10.6826 26.6822Z" fill="#A3FF1D"/>
<path d="M21.2713 15.9999C21.2713 14.4393 20.9352 12.9572 20.3314 11.6221C22.3642 12.5414 24.0563 14.0812 25.1662 15.9999C24.0563 17.9186 22.3642 19.4584 20.3314 20.3777C20.9352 19.0426 21.2713 17.5605 21.2713 15.9999Z" fill="#A3FF1D"/>
<path d="M10.5418 15.9999C10.5418 14.4393 10.878 12.9572 11.4818 11.6221C9.44898 12.5414 7.75684 14.0812 6.64691 15.9999C7.75684 17.9186 9.44898 19.4584 11.4818 20.3777C10.878 19.0426 10.5418 17.5605 10.5418 15.9999Z" fill="#A3FF1D"/>
<path d="M15.9067 21.3645C17.4673 21.3645 18.9494 21.0284 20.2845 20.4246C19.3652 22.4573 17.8254 24.1495 15.9067 25.2594C13.9879 24.1495 12.4481 22.4573 11.5288 20.4246C12.864 21.0284 14.3461 21.3645 15.9067 21.3645Z" fill="#A3FF1D"/>
<path d="M15.9067 10.6355C17.4673 10.6355 18.9494 10.9716 20.2845 11.5754C19.3652 9.54265 17.8254 7.85052 15.9067 6.74059C13.9879 7.85052 12.4481 9.54265 11.5288 11.5754C12.864 10.9716 14.3461 10.6355 15.9067 10.6355Z" fill="#A3FF1D"/>
</svg>
