<svg width="109" height="18" viewBox="0 0 109 18" fill="none" xmlns="http://www.w3.org/2000/svg">
<path fill-rule="evenodd" clip-rule="evenodd" d="M107.343 14.5358C107.122 14.5319 106.903 14.5697 106.698 14.647C106.493 14.7243 106.306 14.8395 106.148 14.986C105.991 15.1325 105.865 15.3072 105.78 15.5001C105.694 15.6929 105.65 15.8999 105.65 16.109C105.65 16.3181 105.694 16.5251 105.78 16.7179C105.865 16.9108 105.991 17.0855 106.148 17.232C106.306 17.3784 106.493 17.4937 106.698 17.571C106.903 17.6483 107.122 17.6861 107.343 17.6822C107.561 17.682 107.777 17.641 107.979 17.5616C108.18 17.4822 108.363 17.3659 108.517 17.2194C108.671 17.0729 108.793 16.8991 108.876 16.708C108.959 16.5168 109.001 16.312 109 16.1054C109 15.8993 108.957 15.6952 108.874 15.5048C108.791 15.3144 108.669 15.1413 108.515 14.9956C108.361 14.8498 108.178 14.7342 107.977 14.6553C107.776 14.5764 107.561 14.5358 107.343 14.5358ZM107.343 17.493C107.151 17.4932 106.96 17.4574 106.783 17.3877C106.605 17.318 106.444 17.2157 106.308 17.0868C106.172 16.9579 106.065 16.8048 105.992 16.6364C105.918 16.4679 105.881 16.2875 105.882 16.1054C105.882 15.9239 105.92 15.7442 105.993 15.5766C106.067 15.4089 106.175 15.2567 106.31 15.1285C106.446 15.0004 106.607 14.8988 106.784 14.8297C106.962 14.7605 107.151 14.7252 107.343 14.7256C107.534 14.7256 107.724 14.7613 107.901 14.8306C108.077 14.9 108.238 15.0016 108.373 15.1298C108.509 15.2579 108.616 15.41 108.689 15.5774C108.762 15.7448 108.8 15.9242 108.8 16.1054C108.801 16.2872 108.764 16.4673 108.691 16.6355C108.618 16.8037 108.511 16.9567 108.376 17.0856C108.24 17.2145 108.079 17.3168 107.902 17.3867C107.725 17.4566 107.535 17.4927 107.343 17.493Z" fill="black"/>
<path fill-rule="evenodd" clip-rule="evenodd" d="M108.195 15.6933C108.195 15.5449 108.126 15.3888 107.987 15.3143C107.848 15.2359 107.691 15.2282 107.535 15.2282H106.726V16.9865H106.952V16.1755H107.37L107.9 16.9865H108.17L107.609 16.1755C107.94 16.1667 108.195 16.0392 108.195 15.6933ZM107.3 16.0061H106.952V15.3844H107.482C107.712 15.3844 107.965 15.4175 107.965 15.6894C107.966 16.0475 107.56 16.0061 107.3 16.0061ZM97.6046 7.19261L101.001 3.75823C101.198 3.5061 101.296 3.32955 101.296 3.17839C101.296 2.92626 101.067 2.82529 100.347 2.82529H99.4899V0.657084H108.766V2.82529H107.548C106.14 2.82529 105.878 3.02667 103.914 5.37142L98.5409 10.8664V14.2197C98.5409 15.0776 98.9982 15.3794 100.308 15.3794H102.337V17.4715H89.3436V15.3794H91.3723C92.6809 15.3794 93.1394 15.0776 93.1394 14.2197V10.8664L86.8104 4.23656C85.7646 3.07742 85.9091 2.82529 82.9971 2.82529V0.657084H94.7474V2.82529H93.9108C93.0596 2.82529 92.6989 2.97646 92.6989 3.2788C92.6989 3.53148 92.9605 3.73285 93.1242 3.93422L96.3263 7.23895C96.7068 7.61356 97.1711 7.66211 97.6046 7.19261ZM18.7662 0.656533H21.6006V6.70655H18.9829C18.751 5.49721 17.9517 5.0266 17.2228 4.39214C15.9079 3.2479 13.06 2.2951 10.6649 2.2951C7.57348 2.2951 4.96451 3.20321 4.96451 4.53834C4.96451 8.24471 22.6441 5.29528 22.6441 12.3031C22.6441 15.9581 18.8571 18 12.0562 18C9.70179 18 6.13907 17.3082 4.03697 16.2511C3.37803 15.8908 3.09837 16.592 2.97486 17.4709H0.0687492V11.219H2.69753C3.27724 12.8073 4.07601 13.1345 4.81069 13.7651C6.08547 14.8746 9.11975 15.6817 11.9023 15.6558C16.0978 15.6166 17.5404 14.7482 17.5404 13.4876C17.5404 12.2275 16.1135 11.9246 11.5161 11.2443L7.61251 10.6391C3.20732 10.0085 0 9.07613 0 5.74879C0 2.2951 4.05737 0.12689 10.4726 0.12689C13.176 0.12689 15.4377 0.468952 17.6085 1.63085C18.2098 2.00104 18.7738 2.04518 18.7662 0.656533ZM74.0825 10.7859L74.1384 4.06167C74.1384 3.17949 73.6537 2.87715 72.2688 2.87715H70.6415V0.785077H80.9947V2.87715H79.6453C78.2593 2.87715 77.7745 3.18004 77.7745 4.06167V17.5989L73.7224 17.5686L60.5995 5.8012V14.3471C60.5995 15.2045 61.0842 15.5317 62.4691 15.5317H64.2706V17.5989H53.5183V15.5317H55.3C56.6848 15.5317 57.1696 15.2039 57.1696 14.3471V4.06167C57.1696 3.17949 56.6848 2.87715 55.3 2.87715H53.5183V0.785077H62.8146L74.0825 10.7859ZM39.4032 0C31.1521 0 25.9872 3.45424 25.9872 8.99945C25.9872 14.4453 31.0804 17.8731 39.1515 17.8731C47.7242 17.8731 52.7108 14.4956 52.7108 8.72249C52.7114 3.52982 47.3303 0 39.4032 0ZM39.2156 15.6806C34.6484 15.6806 32.0231 13.1847 32.0231 8.87366C32.0231 4.66413 34.7626 2.16821 39.444 2.16821C43.9348 2.16821 46.5601 4.71489 46.5601 9.05076C46.5601 13.2857 43.8963 15.6806 39.2156 15.6806Z" fill="black"/>
</svg>
