<svg width="64" height="64" viewBox="0 0 64 64" fill="none" xmlns="http://www.w3.org/2000/svg">
<circle cx="32" cy="32" r="32" fill="#F4F0FF"/>
<path d="M32.75 38.6534C32.75 38.2392 32.4142 37.9034 32 37.9034C31.5858 37.9034 31.25 38.2392 31.25 38.6534H32.75ZM31.25 38.6667C31.25 39.0809 31.5858 39.4167 32 39.4167C32.4142 39.4167 32.75 39.0809 32.75 38.6667H31.25ZM31.25 34.6667C31.25 35.0809 31.5858 35.4167 32 35.4167C32.4142 35.4167 32.75 35.0809 32.75 34.6667H31.25ZM27.2759 28.0471C27.168 28.4471 27.4048 28.8587 27.8047 28.9666C28.2046 29.0744 28.6163 28.8376 28.7241 28.4377L27.2759 28.0471ZM31.25 38.6534V38.6667H32.75V38.6534H31.25ZM35.25 29.2121C35.25 30.1586 34.6279 30.649 33.5775 31.3652C32.6512 31.9967 31.25 32.8753 31.25 34.6667H32.75C32.75 33.7914 33.3488 33.3366 34.4225 32.6045C35.3721 31.9571 36.75 31.0535 36.75 29.2121H35.25ZM32 26.0833C33.8478 26.0833 35.25 27.5015 35.25 29.2121H36.75C36.75 26.6384 34.6412 24.5833 32 24.5833V26.0833ZM28.7241 28.4377C29.0802 27.1175 30.4183 26.0833 32 26.0833V24.5833C29.7944 24.5833 27.8221 26.0215 27.2759 28.0471L28.7241 28.4377ZM43.25 32C43.25 38.2132 38.2132 43.25 32 43.25V44.75C39.0416 44.75 44.75 39.0416 44.75 32H43.25ZM32 43.25C25.7868 43.25 20.75 38.2132 20.75 32H19.25C19.25 39.0416 24.9584 44.75 32 44.75V43.25ZM20.75 32C20.75 25.7868 25.7868 20.75 32 20.75V19.25C24.9584 19.25 19.25 24.9584 19.25 32H20.75ZM32 20.75C38.2132 20.75 43.25 25.7868 43.25 32H44.75C44.75 24.9584 39.0416 19.25 32 19.25V20.75Z" fill="#5F24FF"/>
</svg>
