<svg width="88" height="88" viewBox="0 0 88 88" fill="none" xmlns="http://www.w3.org/2000/svg">
<path d="M62.8637 33.5303C63.1566 33.2374 63.1566 32.7626 62.8637 32.4697C62.5708 32.1768 62.0959 32.1768 61.803 32.4697L62.8637 33.5303ZM36.6666 58.6667L36.1363 59.1971C36.4292 59.49 36.904 59.49 37.1969 59.1971L36.6666 58.6667ZM26.1968 47.1363C25.9039 46.8434 25.429 46.8434 25.1361 47.1363C24.8432 47.4292 24.8432 47.9041 25.1361 48.197L26.1968 47.1363ZM61.803 32.4697L36.1363 58.1364L37.1969 59.1971L62.8637 33.5303L61.803 32.4697ZM25.1361 48.197L36.1363 59.1971L37.1969 58.1364L26.1968 47.1363L25.1361 48.197ZM76.25 44C76.25 61.8112 61.8112 76.25 44 76.25V77.75C62.6396 77.75 77.75 62.6396 77.75 44H76.25ZM44 76.25C26.1888 76.25 11.75 61.8112 11.75 44H10.25C10.25 62.6396 25.3604 77.75 44 77.75V76.25ZM11.75 44C11.75 26.1888 26.1888 11.75 44 11.75V10.25C25.3604 10.25 10.25 25.3604 10.25 44H11.75ZM44 11.75C61.8112 11.75 76.25 26.1888 76.25 44H77.75C77.75 25.3604 62.6396 10.25 44 10.25V11.75Z" fill="#2DF39C"/>
</svg>
