<svg width="40" height="40" viewBox="0 0 40 40" fill="none" xmlns="http://www.w3.org/2000/svg">
<path d="M31.6667 23.3334C33.5076 23.3334 35 21.841 35 20.0001C35 18.1591 33.5076 16.6667 31.6667 16.6667M31.6667 23.3334C29.8257 23.3334 28.3333 21.841 28.3333 20.0001C28.3333 18.1591 29.8257 16.6667 31.6667 16.6667M31.6667 23.3334V33.3334M31.6667 16.6667V6.66675M20 26.6667C18.1591 26.6667 16.6667 28.1591 16.6667 30.0001C16.6667 31.841 18.1591 33.3334 20 33.3334C21.8409 33.3334 23.3333 31.841 23.3333 30.0001C23.3333 28.1591 21.8409 26.6667 20 26.6667ZM20 26.6667V6.66675M8.33333 13.3334C10.1743 13.3334 11.6667 11.841 11.6667 10.0001C11.6667 8.15913 10.1743 6.66675 8.33333 6.66675C6.49238 6.66675 5 8.15913 5 10.0001C5 11.841 6.49238 13.3334 8.33333 13.3334ZM8.33333 13.3334V33.3334" stroke="#BEE0FB" stroke-width="2.5" stroke-linecap="round"/>
</svg>
