<svg width="40" height="40" viewBox="0 0 40 40" fill="none" xmlns="http://www.w3.org/2000/svg">
<circle cx="20" cy="20" r="20" fill="#F6FFE9"/>
<path d="M25.5303 17.5303C25.8232 17.2374 25.8232 16.7626 25.5303 16.4697C25.2374 16.1768 24.7626 16.1768 24.4697 16.4697L25.5303 17.5303ZM18 24L17.4697 24.5304C17.7625 24.8232 18.2374 24.8232 18.5303 24.5303L18 24ZM15.5303 20.4697C15.2374 20.1768 14.7625 20.1768 14.4696 20.4697C14.1767 20.7626 14.1767 21.2374 14.4696 21.5303L15.5303 20.4697ZM24.4697 16.4697L17.4697 23.4697L18.5303 24.5303L25.5303 17.5303L24.4697 16.4697ZM14.4696 21.5303L17.4697 24.5304L18.5303 23.4697L15.5303 20.4697L14.4696 21.5303ZM28.25 20C28.25 24.5563 24.5563 28.25 20 28.25V29.75C25.3848 29.75 29.75 25.3848 29.75 20H28.25ZM20 28.25C15.4437 28.25 11.75 24.5563 11.75 20H10.25C10.25 25.3848 14.6152 29.75 20 29.75V28.25ZM11.75 20C11.75 15.4437 15.4437 11.75 20 11.75V10.25C14.6152 10.25 10.25 14.6152 10.25 20H11.75ZM20 11.75C24.5563 11.75 28.25 15.4437 28.25 20H29.75C29.75 14.6152 25.3848 10.25 20 10.25V11.75Z" fill="#A3FF1D"/>
</svg>
