<svg width="40" height="40" viewBox="0 0 40 40" fill="none" xmlns="http://www.w3.org/2000/svg">
<path d="M31.6667 23.3332C33.5076 23.3332 35 21.8408 35 19.9998C35 18.1589 33.5076 16.6665 31.6667 16.6665M31.6667 23.3332C29.8257 23.3332 28.3333 21.8408 28.3333 19.9998C28.3333 18.1589 29.8257 16.6665 31.6667 16.6665M31.6667 23.3332V33.3332M31.6667 16.6665V6.6665M20 26.6665C18.1591 26.6665 16.6667 28.1589 16.6667 29.9998C16.6667 31.8408 18.1591 33.3332 20 33.3332C21.8409 33.3332 23.3333 31.8408 23.3333 29.9998C23.3333 28.1589 21.8409 26.6665 20 26.6665ZM20 26.6665V6.6665M8.33333 13.3332C10.1743 13.3332 11.6667 11.8408 11.6667 9.99984C11.6667 8.15889 10.1743 6.6665 8.33333 6.6665C6.49238 6.6665 5 8.15889 5 9.99984C5 11.8408 6.49238 13.3332 8.33333 13.3332ZM8.33333 13.3332V33.3332" stroke="black" stroke-width="2.5" stroke-linecap="round"/>
</svg>
