<svg width="64" height="64" viewBox="0 0 64 64" fill="none" xmlns="http://www.w3.org/2000/svg">
<circle cx="32" cy="32" r="32" fill="#FFF0FE"/>
<path d="M41.3333 34.6666C42.8061 34.6666 44 33.4727 44 31.9999C44 30.5272 42.8061 29.3333 41.3333 29.3333M41.3333 34.6666C39.8606 34.6666 38.6667 33.4727 38.6667 31.9999C38.6667 30.5272 39.8606 29.3333 41.3333 29.3333M41.3333 34.6666V42.6666M41.3333 29.3333V21.3333M32 37.3333C30.5272 37.3333 29.3333 38.5272 29.3333 39.9999C29.3333 41.4727 30.5272 42.6666 32 42.6666C33.4728 42.6666 34.6667 41.4727 34.6667 39.9999C34.6667 38.5272 33.4728 37.3333 32 37.3333ZM32 37.3333V21.3333M22.6667 26.6666C24.1394 26.6666 25.3333 25.4727 25.3333 23.9999C25.3333 22.5272 24.1394 21.3333 22.6667 21.3333C21.1939 21.3333 20 22.5272 20 23.9999C20 25.4727 21.1939 26.6666 22.6667 26.6666ZM22.6667 26.6666V42.6666" stroke="#FF57F3" stroke-width="2" stroke-linecap="round"/>
</svg>
