<svg width="64" height="64" viewBox="0 0 64 64" fill="none" xmlns="http://www.w3.org/2000/svg">
<circle cx="32" cy="32" r="32" fill="#F6FFE9"/>
<path d="M39.3738 28.7071C39.7643 28.3166 39.7643 27.6834 39.3738 27.2929C38.9832 26.9024 38.3501 26.9024 37.9596 27.2929L39.3738 28.7071ZM29.3333 37.3334L28.6262 38.0405C29.0167 38.431 29.6499 38.431 30.0404 38.0405L29.3333 37.3334ZM26.0404 32.6262C25.6498 32.2357 25.0167 32.2357 24.6261 32.6262C24.2356 33.0168 24.2356 33.6499 24.6261 34.0404L26.0404 32.6262ZM37.9596 27.2929L28.6262 36.6263L30.0404 38.0405L39.3738 28.7071L37.9596 27.2929ZM24.6261 34.0404L28.6262 38.0405L30.0404 36.6263L26.0404 32.6262L24.6261 34.0404ZM43 32C43 38.0751 38.0751 43 32 43V45C39.1797 45 45 39.1797 45 32H43ZM32 43C25.9249 43 21 38.0751 21 32H19C19 39.1797 24.8203 45 32 45V43ZM21 32C21 25.9249 25.9249 21 32 21V19C24.8203 19 19 24.8203 19 32H21ZM32 21C38.0751 21 43 25.9249 43 32H45C45 24.8203 39.1797 19 32 19V21Z" fill="#B8FF50"/>
</svg>
