<svg width="19" height="19" viewBox="0 0 19 19" fill="none" xmlns="http://www.w3.org/2000/svg">
<path d="M17.4697 18.5303C17.7626 18.8232 18.2374 18.8232 18.5303 18.5303C18.8232 18.2374 18.8232 17.7626 18.5303 17.4697L17.4697 18.5303ZM14.25 8C14.25 11.4518 11.4518 14.25 8 14.25V15.75C12.2802 15.75 15.75 12.2802 15.75 8H14.25ZM8 14.25C4.54822 14.25 1.75 11.4518 1.75 8H0.25C0.25 12.2802 3.71979 15.75 8 15.75V14.25ZM1.75 8C1.75 4.54822 4.54822 1.75 8 1.75V0.25C3.71979 0.25 0.25 3.71979 0.25 8H1.75ZM8 1.75C11.4518 1.75 14.25 4.54822 14.25 8H15.75C15.75 3.71979 12.2802 0.25 8 0.25V1.75ZM18.5303 17.4697L13.5303 12.4697L12.4697 13.5303L17.4697 18.5303L18.5303 17.4697Z" fill="black"/>
</svg>
