<svg width="170" height="46" viewBox="0 0 170 46" fill="none" xmlns="http://www.w3.org/2000/svg">
<path d="M51.1298 5.37699C50.5395 9.3257 49.3588 18.904 51.8889 28.398C52.395 29.658 53.6599 29.3221 54.1661 28.7339C54.3348 28.4819 56.0213 26.8856 56.0213 26.8856C56.6117 26.0451 57.2021 26.2971 57.6237 26.8856C58.0453 27.474 59.226 29.3221 60.9971 29.406C62.7679 29.4899 65.5509 27.3895 66.6471 26.5491C67.4062 27.9777 68.3337 29.3221 69.8518 29.2376C71.37 29.1537 72.8033 28.0616 74.0685 26.7172C74.9963 27.8096 76.0083 28.9856 77.189 28.9017C78.3694 28.8178 80.5624 27.5573 82.6706 25.6248C83.5139 24.7008 84.4416 25.1208 85.0317 26.0449C85.6218 26.9689 86.4654 28.4814 87.5618 28.4814C88.6581 28.4814 90.2601 26.9689 90.766 26.5488C91.2721 26.1293 91.778 25.7929 92.3686 26.4649L93.6335 27.641C94.3926 28.3975 95.9949 28.2294 97.1754 27.137C98.3561 26.0446 98.609 25.709 99.1149 25.709C99.621 25.709 99.8739 26.381 100.38 26.885C100.886 27.389 104.765 30.7498 109.91 25.5406C109.994 28.1455 109.403 42.764 109.403 44.8649C109.403 45.8729 110.584 46.2093 112.271 45.8729C113.957 45.537 114.801 45.0325 114.716 42.5965C114.632 40.16 114.295 28.1455 114.295 28.1455C114.548 26.213 116.234 23.0202 118.005 22.9363C119.776 22.8521 118.933 25.0366 118.09 25.0366C117.247 25.0366 116.319 25.4567 116.319 26.2127C116.319 26.9686 116.572 29.1532 121.548 29.1532C126.523 29.1532 127.113 27.5568 128.463 26.9686C129.306 28.565 131.836 31.086 138.836 26.6327C140.269 28.3128 142.968 30.4137 145.919 28.3128C146.847 27.5568 147.775 25.7923 147.437 24.2799C147.184 23.692 147.353 23.44 147.775 23.44H150.558C151.148 23.44 152.16 23.8601 152.497 25.5403C152.835 27.2209 154.015 28.6492 154.943 28.5647C155.87 28.4808 157.641 27.0528 158.653 26.0443C159.497 27.2209 163.123 32.6821 169.785 23.5239C170.376 22.6838 169.448 22.2637 168.942 22.8518C168.436 23.44 166.918 24.3643 165.653 24.4479C164.388 24.5324 162.87 23.2719 161.689 21.6755C160.509 20.0792 159.16 20.667 158.316 21.9275C157.726 22.5996 157.389 23.2716 156.714 24.0276C156.292 23.2716 155.786 21.6755 154.943 21.0874C154.099 20.4992 153.425 20.4153 151.401 20.9193C149.377 21.4233 147.1 21.6755 144.823 21.7594C143.558 21.6755 143.895 22.2637 143.98 22.7677C144.064 23.2719 144.991 25.372 143.305 25.4564C141.619 25.5403 141.787 23.0199 142.968 21.6755C143.558 21.0874 142.715 19.8269 141.787 20.3312C140.86 20.8354 140.269 21.0874 139.51 22.2634C138.751 23.4397 137.149 25.2042 134.534 25.2881C131.92 25.372 132.679 22.3476 132.763 21.0032C132.763 20.247 132.257 19.5749 130.908 19.9111C129.559 20.2472 127.788 20.0792 127.957 23.7756C127.029 25.12 124.921 25.9601 123.234 25.7082C122.728 25.6237 122.559 25.3717 122.728 24.7841C122.897 24.1957 123.318 20.9193 120.788 20.0789C118.258 19.2387 116.318 20.4151 115.054 21.5072C114.379 21.8433 114.21 21.5072 114.21 20.919L114.294 17.8105C114.294 16.3822 111.427 16.046 111.006 17.7263C110.584 19.4066 110.078 22.6835 107.548 23.8598C105.018 25.0358 104.175 23.5234 102.825 21.8431C101.476 20.1628 100.127 20.2467 98.6087 21.7592L97.0906 23.1875C96.5002 23.6914 96.1631 23.5234 95.6572 22.7671C95.1511 22.0112 94.8137 21.0027 93.8862 20.9188C92.9587 20.8348 92.7897 21.1707 92.1151 21.675L90.1756 23.1875C89.4168 23.7753 89.2481 23.7753 88.4893 22.7671C88.4893 22.7671 87.2241 20.6668 85.9595 20.6668C84.6943 20.6668 84.2727 21.423 83.5139 22.0112C83.5139 22.0112 81.5741 23.3555 80.8995 23.9434C80.225 24.5319 78.2852 25.7079 76.4299 22.9352C75.7554 21.927 74.5746 21.1707 73.7314 22.599C72.8881 24.0271 71.5389 26.2116 70.5269 25.5395C69.515 24.8675 71.2015 22.9352 72.4664 22.7668C73.7314 22.599 72.9726 21.0024 71.7074 20.9185C70.4422 20.8346 68.4185 21.6747 67.4907 22.7668C66.5632 23.8592 65.0451 25.1192 63.5272 25.0355C62.0094 24.9511 61.6719 23.7751 60.9129 22.179C60.1538 20.5826 58.8047 20.7507 57.7927 21.5908C56.7807 22.431 56.5275 22.6829 55.7687 23.607C55.0096 24.5316 55.0096 24.0271 54.9254 23.4394C54.8409 22.8513 54.3351 12.0128 55.1786 5.03945C55.5149 3.27664 51.8886 2.68849 51.1298 5.37699Z" fill="black"/>
<path d="M130.908 18.3254C132.357 18.3254 133.532 17.1552 133.532 15.7115C133.532 14.2678 132.357 13.0975 130.908 13.0975C129.459 13.0975 128.284 14.2678 128.284 15.7115C128.284 17.1552 129.459 18.3254 130.908 18.3254ZM46.9132 21.0046C46.5761 21.2569 37.0465 24.4491 31.8178 24.7855V5.2931C34.8538 5.37701 40.5883 6.63749 44.2147 7.9816C45.0579 8.40167 46.829 7.8977 44.9737 6.04934C40.6726 2.6046 33.926 0 24.9868 0C16.0476 0 0.0244141 4.95721 0.0244141 15.0392C0.0244141 25.1211 12.8429 30.1625 25.071 30.1625C33.6731 30.1625 41.6846 27.0537 47.5036 21.5086C48.4314 20.5845 47.2504 20.7526 46.9132 21.0046ZM17.986 24.7709C10.7068 23.2772 5.54688 19.5207 5.54688 15.1233C5.54688 10.7276 10.7109 6.97256 17.986 5.47769V24.7709ZM166.028 18.4809C165.347 18.4809 164.796 19.0137 164.796 19.6643C164.796 20.3287 165.347 20.8615 166.028 20.8615C166.704 20.8615 167.253 20.3287 167.253 19.6643C167.253 19.0135 166.705 18.4809 166.028 18.4809ZM166.028 20.6288C165.472 20.6288 165.029 20.2074 165.029 19.6643C165.029 19.1384 165.472 18.7133 166.028 18.7133C166.576 18.7133 167.019 19.1381 167.019 19.6643C167.019 20.2074 166.576 20.6288 166.028 20.6288Z" fill="black"/>
<path d="M166.658 19.354C166.658 19.2426 166.607 19.1249 166.505 19.0674C166.401 19.0102 166.285 19.0033 166.17 19.0033H165.571V20.3353H165.774V19.7216H166.014L166.407 20.3353H166.641L166.224 19.7216C166.468 19.715 166.658 19.6173 166.658 19.354ZM165.998 19.5562H165.774V19.1551H166.13C166.302 19.1551 166.455 19.1788 166.455 19.3505C166.455 19.5901 166.191 19.5562 165.998 19.5562Z" fill="black"/>
</svg>
