<svg width="90" height="24" viewBox="0 0 90 24" fill="none" xmlns="http://www.w3.org/2000/svg">
<g clip-path="url(#clip0)">
<path d="M27.4151 3.00355C27.1086 5.01936 26.4956 9.90905 27.8092 14.7558C28.072 15.399 28.7288 15.2275 28.9916 14.9272C29.0792 14.7986 29.9548 13.9836 29.9548 13.9836C30.2613 13.5546 30.5678 13.6833 30.7867 13.9836C31.0057 14.284 31.6187 15.2275 32.5382 15.2703C33.4576 15.3131 34.9025 14.2409 35.4717 13.8119C35.8658 14.5412 36.3473 15.2275 37.1355 15.1844C37.9238 15.1415 38.668 14.584 39.3248 13.8977C39.8065 14.4554 40.332 15.0557 40.945 15.0129C41.5579 14.9701 42.6964 14.3266 43.791 13.34C44.2288 12.8683 44.7105 13.0827 45.0169 13.5545C45.3233 14.0262 45.7612 14.7983 46.3305 14.7983C46.8997 14.7983 47.7315 14.0262 47.9941 13.8117C48.2569 13.5976 48.5195 13.4258 48.8262 13.7689L49.4829 14.3693C49.877 14.7555 50.709 14.6697 51.3218 14.112C51.9349 13.5543 52.0662 13.383 52.3288 13.383C52.5916 13.383 52.7229 13.7261 52.9856 13.9834C53.2483 14.2406 55.2624 15.9563 57.9334 13.2971C57.9771 14.6268 57.6706 22.0896 57.6706 23.1621C57.6706 23.6766 58.2835 23.8484 59.1595 23.6766C60.035 23.5052 60.4729 23.2476 60.4291 22.0041C60.3852 20.7602 60.2102 14.6268 60.2102 14.6268C60.3416 13.6403 61.2171 12.0104 62.1367 11.9675C63.0562 11.9246 62.6182 13.0398 62.1805 13.0398C61.7429 13.0398 61.261 13.2542 61.261 13.6401C61.261 14.0261 61.3925 15.1413 63.9759 15.1413C66.5591 15.1413 66.8655 14.3263 67.5662 14.0261C68.0041 14.841 69.3175 16.128 72.9516 13.8546C73.696 14.7122 75.0972 15.7847 76.6296 14.7122C77.1112 14.3263 77.5929 13.4256 77.4177 12.6534C77.2864 12.3533 77.3738 12.2247 77.5929 12.2247H79.0378C79.3443 12.2247 79.8697 12.4391 80.0448 13.2969C80.22 14.1548 80.8328 14.884 81.3145 14.8409C81.796 14.798 82.7155 14.069 83.2411 13.5542C83.679 14.1548 85.5618 16.9428 89.0207 12.2675C89.3272 11.8386 88.8455 11.6242 88.5827 11.9244C88.3201 12.2247 87.5319 12.6966 86.8751 12.7392C86.2184 12.7824 85.4303 12.1389 84.8173 11.3239C84.2045 10.509 83.5038 10.8091 83.0659 11.4526C82.7594 11.7957 82.5843 12.1387 82.2339 12.5247C82.015 12.1387 81.7524 11.3239 81.3145 11.0237C80.8766 10.7234 80.5263 10.6806 79.4755 10.9379C78.4246 11.1952 77.2425 11.3239 76.0603 11.3668C75.4036 11.3239 75.5788 11.6242 75.6225 11.8815C75.6662 12.1389 76.1478 13.211 75.2723 13.2541C74.3966 13.2969 74.484 12.0102 75.0971 11.3239C75.4036 11.0237 74.9656 10.3802 74.484 10.6376C74.0025 10.895 73.696 11.0237 73.3019 11.624C72.9079 12.2245 72.0758 13.1253 70.7185 13.1681C69.3611 13.211 69.7552 11.667 69.799 10.9807C69.799 10.5947 69.5363 10.2516 68.8357 10.4232C68.1351 10.5948 67.2156 10.509 67.3033 12.396C66.8218 13.0823 65.727 13.5112 64.8512 13.3826C64.5886 13.3395 64.501 13.2108 64.5886 12.9109C64.6762 12.6105 64.8951 10.9379 63.5816 10.5088C62.268 10.08 61.2609 10.6805 60.6041 11.238C60.2539 11.4096 60.1663 11.238 60.1663 10.9377L60.21 9.35081C60.21 8.62167 58.7213 8.45006 58.5024 9.30784C58.2835 10.1656 58.0209 11.8385 56.7074 12.439C55.3938 13.0394 54.9559 12.2672 54.2553 11.4095C53.5547 10.5517 52.8542 10.5945 52.066 11.3666L51.2778 12.0958C50.9713 12.353 50.7963 12.2672 50.5336 11.8812C50.2708 11.4953 50.0957 10.9804 49.6141 10.9376C49.1325 10.8948 49.0448 11.0662 48.6946 11.3237L47.6876 12.0958C47.2936 12.3959 47.206 12.3959 46.8121 11.8812C46.8121 11.8812 46.1552 10.809 45.4986 10.809C44.8417 10.809 44.6228 11.195 44.2288 11.4953C44.2288 11.4953 43.2217 12.1816 42.8715 12.4817C42.5212 12.7821 41.5141 13.3824 40.5509 11.967C40.2006 11.4523 39.5876 11.0662 39.1498 11.7954C38.712 12.5244 38.0115 13.6396 37.4861 13.2965C36.9606 12.9534 37.8363 11.967 38.493 11.881C39.1498 11.7954 38.7558 10.9803 38.0989 10.9375C37.4421 10.8946 36.3914 11.3235 35.9097 11.881C35.4281 12.4387 34.6399 13.0819 33.8518 13.0392C33.0638 12.9961 32.8886 12.3957 32.4945 11.5809C32.1004 10.766 31.3999 10.8518 30.8745 11.2807C30.3491 11.7096 30.2176 11.8382 29.8236 12.3099C29.4295 12.7819 29.4295 12.5244 29.3858 12.2244C29.3419 11.9242 29.0793 6.39114 29.5173 2.83124C29.6919 1.93132 27.8091 1.63107 27.4151 3.00355Z" fill="black"/>
<path d="M68.8352 9.61354C69.5876 9.61354 70.1974 9.01612 70.1974 8.27912C70.1974 7.54211 69.5876 6.9447 68.8352 6.9447C68.0829 6.9447 67.473 7.54211 67.473 8.27912C67.473 9.01612 68.0829 9.61354 68.8352 9.61354ZM25.2254 10.9812C25.0503 11.11 20.1026 12.7396 17.3879 12.9114V2.96054C18.9642 3.00338 21.9415 3.64685 23.8243 4.33302C24.2621 4.54746 25.1817 4.29019 24.2184 3.3466C21.9852 1.58807 18.4825 0.258423 13.8413 0.258423C9.20004 0.258423 0.880859 2.78907 0.880859 7.93589C0.880859 13.0827 7.53617 15.6563 13.885 15.6563C18.3511 15.6563 22.5107 14.0693 25.5319 11.2385C26.0136 10.7668 25.4004 10.8526 25.2254 10.9812ZM10.2064 12.9039C6.42712 12.1414 3.74811 10.2237 3.74811 7.97887C3.74811 5.73485 6.42927 3.8179 10.2064 3.05478V12.9039ZM87.0692 9.69288C86.716 9.69288 86.4295 9.96491 86.4295 10.297C86.4295 10.6362 86.716 10.9082 87.0692 10.9082C87.4206 10.9082 87.7054 10.6362 87.7054 10.297C87.7054 9.96477 87.4207 9.69288 87.0692 9.69288ZM87.0692 10.7894C86.7809 10.7894 86.5508 10.5743 86.5508 10.297C86.5508 10.0285 86.7809 9.81155 87.0692 9.81155C87.3538 9.81155 87.584 10.0284 87.584 10.297C87.584 10.5743 87.3539 10.7894 87.0692 10.7894Z" fill="black"/>
<path d="M87.3962 10.1388C87.3962 10.0819 87.3697 10.0218 87.317 9.99244C87.2626 9.96323 87.2028 9.95972 87.143 9.95972H86.832V10.6397H86.9374V10.3264H87.0621L87.266 10.6397H87.3873L87.1711 10.3264C87.2977 10.323 87.3962 10.2732 87.3962 10.1388ZM87.0534 10.242H86.9374V10.0372H87.1219C87.2115 10.0372 87.2907 10.0493 87.2907 10.1369C87.2907 10.2593 87.1536 10.242 87.0534 10.242Z" fill="black"/>
</g>
<defs>
<clipPath id="clip0">
<rect width="88.2634" height="23.4829" fill="white" transform="translate(0.868164 0.258545)"/>
</clipPath>
</defs>
</svg>
