<svg width="109" height="35" viewBox="0 0 109 35" fill="none" xmlns="http://www.w3.org/2000/svg">
<g clip-path="url(#clip0)">
<path d="M41.8571 30.5266C37.8012 27.9657 32.2969 27.5163 23.4199 29.9303C13.9564 32.11 10.8011 33.5073 6.65734 30.7023C5.0654 29.3244 4.49465 27.1057 4.92084 23.91C5.90933 18.7003 8.58065 13.6868 13.3257 8.12565C15.9741 5.23275 18.431 2.75011 21.6749 1.75318C24.1612 1.12778 23.9288 3.04298 23.628 3.31689C23.3105 3.31689 22.7772 3.3659 22.3651 3.62952C22.0306 3.88379 21.1124 4.70484 21.0631 5.80927C20.9919 7.49998 22.7769 7.14808 23.5469 6.2198C24.3768 5.17372 25.6033 3.17052 24.6385 1.30353C24.2341 0.639002 23.5354 0.179734 22.6679 0.0233501C19.6974 -0.143049 16.931 1.2449 14.3777 2.77936C8.79388 6.58131 4.32719 11.8495 1.79976 17.616C0.3427 21.0953 -0.97511 26.0793 1.00011 30.1358C2.52829 32.9504 5.70059 34.4455 9.48548 34.1329C12.14 33.8595 15.35 33.0185 17.5088 32.5108C19.6679 32.0021 30.7188 28.2788 34.3499 34.7592C34.3499 34.7592 35.5573 32.4618 38.5749 32.4128C41.0557 32.1884 44.6347 33.1167 47.2409 34.9929C46.3726 33.713 43.9108 31.8266 41.8571 30.5266Z" fill="black"/>
<path d="M24.5467 8.77916C22.4798 7.44997 18.3255 9.9911 14.9981 14.3499C11.9554 18.2598 10.6415 22.804 12.0715 24.9054C14.1983 27.378 18.147 23.7814 19.8261 21.8563L20.0428 21.6313C21.1847 20.4291 22.0668 18.9825 22.9208 17.5945C22.9208 17.5945 23.7056 16.3239 23.7431 16.2651C24.2281 16.1775 24.8124 16.0406 25.4707 15.8549C25.4613 15.884 22.9519 20.0183 23.2079 22.0704C23.2876 22.6965 23.2268 24.9835 25.5048 25.6773C28.541 26.1761 30.9654 23.8692 33.1043 21.8167C33.1043 21.8167 33.4687 21.4749 33.6749 21.2798C33.6227 21.4844 33.5547 21.7575 33.5547 21.7575C32.6658 24.7874 33.864 25.4233 34.6135 25.6578C36.8787 26.3033 39.5847 23.0778 39.5936 23.0778C39.5233 24.0938 39.3182 24.9342 40.4109 25.6088C41.4422 25.9707 42.486 25.4188 43.2795 24.9008C46.1374 22.9267 48.4397 19.8367 50.2993 17.1659H49.1131C49.099 17.1659 46.1862 21.3043 44.2946 22.2037C44.2916 22.2037 43.9473 22.3769 43.7491 22.2399C43.5034 22.0346 43.6003 21.6077 43.7519 21.3053C43.7615 21.2857 51.0555 8.886 51.0555 8.886H47.6116C47.6116 8.886 47.2354 9.48255 47.2048 9.52168C47.1816 9.50218 47.1264 9.39962 47.0883 9.35048C44.9546 6.45758 40.1228 10.9074 36.485 16.0676C35.0845 18.0519 33.3014 20.286 31.4525 21.8986C31.4525 21.8986 28.7133 24.3596 27.5431 22.5914C27.1152 21.8485 27.2469 20.7623 27.4882 20.0491C28.8508 16.247 31.1988 12.7965 33.8708 10.7147C34.6249 10.1384 35.4449 9.97174 35.8516 10.2161C36.2394 10.4413 36.3019 10.9979 36.0567 11.3792C35.4344 11.3597 34.9357 11.5451 34.5305 11.9556C33.7321 12.7766 33.4547 13.5684 33.7085 14.3113C34.9417 16.0314 37.4012 12.6301 37.2822 10.5581C37.2397 9.81522 36.8355 9.11169 36.2319 8.76928C35.3325 8.24177 33.9604 8.37839 33.0725 8.79893C31.8837 9.23856 30.0022 10.7729 28.9039 11.9655C27.5213 13.4611 25.1498 15.1224 24.4084 14.9363C24.6508 14.3009 26.6538 10.2841 24.5467 8.77916ZM41.1502 14.7215C41.8202 13.8127 43.77 11.3789 44.2454 10.9685C45.8442 9.58992 46.4832 10.1965 46.5385 10.6262C45.0464 13.2455 43.2854 16.2462 41.6297 18.9438C41.6331 18.9342 41.1115 19.7159 41.1115 19.7159C40.3803 20.8101 39.644 21.7486 38.4429 22.4032C38.2717 22.4525 37.9894 22.4721 37.8015 22.3347C37.5753 22.1881 37.4861 21.9437 37.5115 21.6895C37.5836 20.8493 38.4564 18.2793 41.1502 14.7215ZM22.4152 16.2949C22.4152 16.2949 22.3851 16.3832 22.3703 16.412C22.3665 16.412 20.8687 18.8063 20.8687 18.8063C19.9648 19.9891 18.8363 21.4751 17.4256 22.1882C17.0074 22.325 16.4293 22.4132 16.1347 22.0519C15.5103 21.3187 15.8321 20.3021 16.0936 19.4813L16.1862 19.1881C16.9359 17.1945 18.1252 15.4349 19.2831 13.8027C19.2975 13.793 19.3299 13.7833 19.3416 13.7833C19.3445 13.793 19.3491 13.793 19.351 13.8127C20.0775 15.1807 21.4398 15.8158 22.4585 16.1094C22.4646 16.1094 22.4713 16.1192 22.4713 16.1388C22.4714 16.1679 22.4548 16.2073 22.4152 16.2949ZM23.8341 13.4707C23.8274 13.4902 23.167 14.9757 23.167 14.9757C23.0715 15.0539 22.9205 15.0149 22.7475 14.9757L22.451 14.9266C21.52 14.6433 20.8178 14.0373 20.6013 13.3141C20.3027 11.9067 21.5294 10.8023 22.0698 10.4018C22.5883 10.0496 23.3945 9.86396 23.8627 10.2257C24.1514 10.5581 24.2608 10.988 24.2608 11.4574C24.2609 12.0925 24.0609 12.8059 23.8341 13.4707ZM67.3714 18.0053C67.0392 17.3017 66.251 16.8521 65.4109 16.9008C62.6828 17.1453 60.0143 19.3443 58.6131 22.501C57.8779 24.1236 57.4767 25.4624 57.2136 27.593C58.062 26.6355 59.7924 25.062 61.756 24.2018C61.756 24.2018 62.0232 22.1592 63.3857 20.3413C63.9013 19.5885 64.9329 18.3766 66.0915 18.699C67.1038 19.0314 66.7479 21.778 65.4026 24.4358C64.4071 26.3908 62.8839 28.3461 61.3426 29.6945C59.98 30.8282 57.9639 32.1965 56.2 31.1411C55.089 30.4963 54.5223 29.1471 54.642 27.4075C55.1728 22.472 57.4651 18.2693 60.7453 13.4803C64.1276 9.0333 67.8559 4.46906 72.8785 2.03504C73.903 1.52689 74.8517 1.40964 75.6718 1.7224C75.6718 1.7224 70.957 4.26354 68.7095 8.96479C68.1378 10.1574 67.3427 11.7695 68.1434 13.1966C68.5618 13.9393 69.3047 13.998 69.9029 13.9589C72.6578 13.3332 74.4376 10.8117 75.8918 8.50539C76.7349 6.75592 77.4843 5.01621 77.4843 3.08098C77.4843 2.84647 77.4719 2.53384 77.4517 2.29906C78.7678 1.61517 81.4667 2.82684 81.4667 2.82684C83.5758 3.51127 88.0664 6.88333 89.5812 7.52809C90.3201 6.68768 91.5344 5.41725 92.2182 4.78183L91.2284 4.18554C89.6438 3.23749 87.9689 2.33819 86.3204 1.4489C82.5764 -0.554439 79.5287 0.149086 77.9778 0.696496C77.3682 0.911373 76.8112 1.09714 76.8112 1.09714C75.6602 -0.1343 73.7723 -0.0173131 72.3813 0.315219C67.379 1.72254 62.7347 5.15296 57.7554 11.1053C54.0947 15.7674 51.8239 19.7942 50.6136 23.7719C49.6807 26.4498 49.3972 30.3885 51.6742 32.7245C53.6102 34.7081 56.1772 34.2784 57.9899 33.5652C61.9176 31.6691 65.4477 27.5835 67.2067 22.8823C67.6312 21.4848 68.1022 19.5106 67.3714 18.0053ZM76.403 3.27662C75.8831 9.12131 71.248 12.5521 70.101 12.8254C69.406 12.962 68.2201 12.6592 69.2789 10.2064C70.8379 6.90256 73.4998 4.0978 76.3556 2.66097C76.4252 2.90536 76.4233 3.06135 76.403 3.27662ZM103.898 4.01914C101.405 5.40723 98.8201 6.30614 95.6915 5.9935C94.8245 6.95157 93.9802 7.93862 93.2021 8.95491C97.5933 10.0496 102.249 7.61597 104.845 5.29986C107.592 2.96386 109 0.0222168 109 0.0222168C109 0.0222168 106.941 2.32857 103.898 4.01914ZM56.7792 8.88626H53.5086L51.6638 11.8243H54.9337L56.7792 8.88626Z" fill="black"/>
<path d="M95.6782 30.7973C95.3265 31.0318 94.8325 30.8515 95.0171 30.3141C95.4774 28.9458 97.3067 26.1573 97.3067 26.1573L102.402 17.2997H98.9118C98.7459 17.5668 98.3912 18.18 98.3912 18.18C98.2298 17.9164 97.7469 17.3302 97.5481 17.2035C96.6954 16.6753 95.4445 16.9251 94.5815 17.4038C90.8293 19.5543 88.0917 23.8031 85.9325 27.1166C85.9325 27.1166 83.6597 30.7998 82.3982 31.0737C81.4132 31.152 81.5149 29.8515 81.5575 29.5485C81.9383 27.3588 82.8227 25.2772 83.7137 23.3909C85.5261 22.1594 87.5942 20.5469 89.4738 18.7779C93.5528 14.956 96.9916 10.6263 97.4943 9.65876C97.4943 9.65876 96.9502 9.7664 96.3078 9.78577C93.1697 14.0764 86.748 20.3122 84.8011 21.2405C85.6636 19.2071 91.2359 9.50225 95.9777 4.85989L96.7239 4.15596C97.8778 3.05153 99.0733 1.91784 100.005 1.73208C100.103 1.72233 100.23 1.73208 100.339 1.95724C100.381 2.81715 100.054 3.45257 99.6797 4.17572L99.1546 5.23141C99.1546 5.23141 99.8984 5.09453 100.387 4.93774C100.954 3.89247 101.582 2.71926 101.35 1.32196C101.273 0.872305 100.941 0.530291 100.507 0.452032C99.0922 0.188143 97.5507 1.21405 96.3101 2.04511L96.2601 2.07423C89.8834 6.97086 84.4989 14.0275 79.7912 23.6644C79.45 23.9181 78.1318 24.2214 77.9078 24.0746C78.3727 23.1366 78.958 21.8755 79.2508 20.5072C79.3015 20.116 79.3486 19.7157 79.3486 19.3248C79.3486 18.4836 79.1426 17.6922 78.3739 17.1451C77.4725 16.7052 76.3584 16.9106 75.6071 17.2426C72.2421 18.611 69.7271 21.9929 67.9121 24.778C66.936 26.5475 65.9628 28.4427 65.6933 30.6128C65.5035 32.3132 65.8899 33.408 66.8763 33.9554C67.8906 34.4633 69.1672 33.9353 69.6688 33.6815C73.0779 31.9221 75.4599 28.3941 77.3375 25.1687C77.4121 25.159 78.4373 25.1299 79.2128 24.9341C79.223 24.9341 79.2274 24.9341 79.2445 24.9443C79.2001 25.0904 78.7994 26.2636 78.7994 26.2636C77.6094 29.684 77.0591 32.0104 78.1832 33.3883C79.7894 35.3333 82.4487 33.3202 84.612 30.6613C84.1476 33.8473 85.8322 34.3461 87.1165 34.102C88.5917 33.7113 90.2356 32.1666 90.9984 31.3752C90.7534 32.3035 90.8199 33.9654 92.162 34.1313C93.0817 34.2979 93.7701 33.8075 94.5665 33.3871C97.4236 31.8623 100.844 26.7812 101.732 25.3122H100.567C99.3049 27.1823 97.6987 29.6337 95.6782 30.7973ZM70.0335 30.457C69.8523 30.193 69.7922 29.9045 69.7862 29.5925C69.7515 27.676 71.8552 24.2441 73.3399 22.3744H73.343C73.9651 23.7099 75.3742 24.5684 76.2248 24.9301C75.1685 27.2369 71.5452 32.1771 70.0335 30.457ZM76.8212 23.8989C76.7207 23.9678 74.9438 23.381 74.6003 21.7684C74.309 20.3801 75.2844 19.2953 76.2281 18.7485C76.6332 18.4355 77.2433 18.3284 77.6909 18.4841C78.1063 18.7583 78.2189 19.2473 78.2189 19.7742C78.2189 20.0973 78.1751 20.4293 78.1366 20.7322L78.1281 20.8009C77.8305 21.8844 77.3912 22.9257 76.8212 23.8989ZM91.0725 29.8413C91.071 29.8413 90.7353 30.1345 90.7353 30.1345C90.256 30.5546 89.7628 31.0041 89.1674 30.7792C89.0029 30.7207 88.8872 30.5059 88.8594 30.3392C88.8323 29.137 89.3845 28.0231 89.9203 26.9383L90.0576 26.6548C91.5983 24.1333 93.3892 21.1621 96.0194 19.1001C96.4626 18.7867 96.9436 18.5234 97.4512 18.7287C97.568 18.8361 97.704 19.0219 97.704 19.2074C97.704 19.2663 97.6506 19.4225 97.6199 19.4713C96.8852 20.6349 96.1857 21.8563 95.5054 23.0291C94.1759 25.3455 92.7966 27.7396 91.0725 29.8413Z" fill="black"/>
</g>
<defs>
<clipPath id="clip0">
<rect width="109" height="35" fill="white"/>
</clipPath>
</defs>
</svg>
