<svg width="90" height="30" viewBox="0 0 90 30" fill="none" xmlns="http://www.w3.org/2000/svg">
<g clip-path="url(#clip0)">
<path d="M34.7622 25.5483C31.4779 23.4746 27.0207 23.1107 19.8326 25.0655C12.1694 26.8305 9.61443 27.962 6.25899 25.6906C4.9699 24.5748 4.50773 22.7783 4.85284 20.1905C5.65328 15.9719 7.81639 11.9122 11.6587 7.40904C13.8033 5.0665 15.7928 3.05617 18.4196 2.2489C20.4329 1.74248 20.2447 3.29332 20.001 3.51512C19.744 3.51512 19.3122 3.55481 18.9784 3.76828C18.7075 3.97418 17.964 4.63902 17.9241 5.53335C17.8665 6.9024 19.3119 6.61745 19.9354 5.86577C20.6074 5.0187 21.6006 3.3966 20.8194 1.88479C20.4919 1.34669 19.9261 0.974791 19.2237 0.848158C16.8183 0.713415 14.5781 1.83732 12.5106 3.07985C7.98906 6.15851 4.37214 10.4244 2.32553 15.0939C1.14567 17.9113 0.0785629 21.9471 1.67801 25.2319C2.91546 27.5111 5.48426 28.7217 8.54909 28.4685C10.6986 28.2472 13.2979 27.5662 15.046 27.1551C16.7943 26.7432 25.7429 23.7282 28.6832 28.9757C28.6832 28.9757 29.6609 27.1154 32.1044 27.0757C34.1133 26.894 37.0114 27.6457 39.1218 29.165C38.4186 28.1285 36.4252 26.6011 34.7622 25.5483Z" fill="black"/>
<path d="M20.745 7.93828C19.0713 6.86196 15.7073 8.91965 13.013 12.4493C10.5491 15.6153 9.48519 19.295 10.6431 20.9966C12.3653 22.9988 15.5628 20.0865 16.9225 18.5276L17.0979 18.3454C18.0226 17.3719 18.7369 16.2005 19.4284 15.0765C19.4284 15.0765 20.0639 14.0477 20.0942 14.0001C20.487 13.9292 20.9601 13.8183 21.4932 13.6679C21.4856 13.6915 19.4536 17.0393 19.6609 18.701C19.7254 19.2079 19.6762 21.0598 21.5208 21.6216C23.9794 22.0255 25.9426 20.1575 27.6745 18.4955C27.6745 18.4955 27.9696 18.2188 28.1366 18.0608C28.0943 18.2264 28.0393 18.4476 28.0393 18.4476C27.3195 20.9011 28.2897 21.4159 28.8966 21.6058C30.7309 22.1286 32.9221 19.5167 32.9293 19.5167C32.8724 20.3394 32.7063 21.0199 33.5911 21.5661C34.4262 21.8592 35.2715 21.4124 35.914 20.9929C38.2282 19.3944 40.0925 16.8922 41.5983 14.7295H40.6378C40.6264 14.7295 38.2677 18.0806 36.736 18.8089C36.7335 18.8089 36.4547 18.9491 36.2942 18.8382C36.0953 18.672 36.1737 18.3263 36.2965 18.0814C36.3043 18.0655 42.2106 8.02479 42.2106 8.02479H39.4219C39.4219 8.02479 39.1173 8.50785 39.0925 8.53954C39.0737 8.52375 39.0291 8.4407 38.9982 8.4009C37.2704 6.05836 33.3578 9.66161 30.4121 13.8402C29.278 15.4469 27.8342 17.256 26.337 18.5618C26.337 18.5618 24.1189 20.5546 23.1713 19.1228C22.8249 18.5212 22.9315 17.6417 23.1269 17.0641C24.2303 13.9854 26.1316 11.1914 28.2952 9.50556C28.9059 9.03893 29.5699 8.90397 29.8992 9.10187C30.2132 9.28419 30.2638 9.73492 30.0652 10.0437C29.5614 10.0279 29.1576 10.178 28.8294 10.5104C28.1829 11.1752 27.9583 11.8164 28.1638 12.418C29.1624 13.8108 31.154 11.0566 31.0577 9.37882C31.0232 8.77723 30.6959 8.20755 30.2071 7.93028C29.4788 7.50312 28.3678 7.61375 27.6488 7.95428C26.6862 8.31028 25.1627 9.55271 24.2733 10.5184C23.1537 11.7295 21.2334 13.0747 20.633 12.9241C20.8292 12.4096 22.4512 9.15691 20.745 7.93828ZM34.1898 12.7501C34.7323 12.0142 36.3112 10.0434 36.6961 9.71113C37.9907 8.5948 38.5082 9.08597 38.553 9.43397C37.3448 11.5549 35.9188 13.9847 34.578 16.1692C34.5808 16.1614 34.1585 16.7943 34.1585 16.7943C33.5663 17.6804 32.9701 18.4403 31.9975 18.9704C31.8589 19.0103 31.6303 19.0262 31.4781 18.915C31.295 18.7962 31.2227 18.5983 31.2433 18.3925C31.3017 17.7121 32.0085 15.6311 34.1898 12.7501ZM19.019 14.0242C19.019 14.0242 18.9946 14.0957 18.9827 14.119C18.9796 14.119 17.7667 16.0578 17.7667 16.0578C17.0348 17.0156 16.1209 18.2189 14.9786 18.7963C14.64 18.9071 14.1719 18.9786 13.9333 18.6859C13.4277 18.0922 13.6883 17.2691 13.9 16.6044L13.975 16.367C14.5821 14.7526 15.5451 13.3278 16.4827 12.0061C16.4944 11.9983 16.5207 11.9904 16.5302 11.9904C16.5325 11.9983 16.5362 11.9983 16.5378 12.0142C17.126 13.122 18.2291 13.6362 19.054 13.874C19.059 13.874 19.0644 13.8819 19.0644 13.8978C19.0645 13.9214 19.0511 13.9533 19.019 14.0242ZM20.1679 11.7373C20.1625 11.753 19.6278 12.956 19.6278 12.956C19.5504 13.0193 19.4282 12.9877 19.2881 12.956L19.048 12.9162C18.2941 12.6868 17.7255 12.1961 17.5502 11.6105C17.3084 10.4708 18.3017 9.5765 18.7393 9.25218C19.1592 8.96702 19.812 8.8167 20.1911 9.10966C20.4249 9.37882 20.5135 9.72692 20.5135 10.107C20.5136 10.6212 20.3516 11.1989 20.1679 11.7373ZM55.4226 15.4092C55.1536 14.8395 54.5153 14.4754 53.835 14.5148C51.6259 14.7128 49.4651 16.4935 48.3305 19.0496C47.7351 20.3635 47.4102 21.4476 47.1972 23.1729C47.8842 22.3975 49.2854 21.1234 50.8754 20.4269C50.8754 20.4269 51.0918 18.7729 52.1951 17.3008C52.6126 16.6912 53.448 15.7099 54.3861 15.971C55.2059 16.2401 54.9177 18.4641 53.8283 20.6163C53.0222 22.1994 51.7887 23.7827 50.5407 24.8746C49.4373 25.7926 47.8048 26.9006 46.3764 26.046C45.4768 25.5239 45.0179 24.4313 45.1148 23.0227C45.5447 19.0261 47.4008 15.623 50.057 11.745C52.7958 8.14407 55.8149 4.44815 59.882 2.47718C60.7115 2.06571 61.4797 1.97076 62.1438 2.22403C62.1438 2.22403 58.326 4.28172 56.5061 8.08859C56.0432 9.05429 55.3993 10.3598 56.0477 11.5153C56.3865 12.1167 56.988 12.1643 57.4725 12.1326C59.7032 11.626 61.1445 9.58418 62.322 7.71659C63.0047 6.29995 63.6115 4.8912 63.6115 3.32414C63.6115 3.13425 63.6015 2.88109 63.5852 2.69098C64.6508 2.13719 66.8363 3.11835 66.8363 3.11835C68.5441 3.67257 72.1805 6.40312 73.4071 6.92522C74.0054 6.24469 74.9887 5.21595 75.5424 4.70142L74.7409 4.21857C73.4578 3.45088 72.1015 2.72266 70.7666 2.00255C67.7349 0.380339 65.267 0.950023 64.0111 1.39329C63.5175 1.56729 63.0665 1.71771 63.0665 1.71771C62.1344 0.720549 60.6057 0.81528 59.4794 1.08455C55.4287 2.22413 51.6679 5.00194 47.636 9.82187C44.6716 13.5971 42.8329 16.8578 41.8528 20.0788C41.0974 22.2472 40.8678 25.4366 42.7116 27.3282C44.2793 28.9344 46.358 28.5864 47.8258 28.0089C51.0063 26.4736 53.8648 23.1652 55.2892 19.3583C55.6329 18.2268 56.0144 16.6281 55.4226 15.4092ZM62.736 3.48257C62.3149 8.21533 58.5616 10.9935 57.6329 11.2147C57.0701 11.3253 56.1098 11.0802 56.9672 9.09398C58.2295 6.41869 60.3851 4.14752 62.6976 2.98404C62.7539 3.18194 62.7524 3.30824 62.736 3.48257ZM85.0002 4.08383C82.9813 5.20784 80.8883 5.93573 78.3549 5.68258C77.6529 6.45838 76.9692 7.25764 76.3391 8.08059C79.8949 8.96702 83.6645 6.99637 85.767 5.12089C87.9911 3.2293 89.1315 0.84729 89.1315 0.84729C89.1315 0.84729 87.4644 2.71488 85.0002 4.08383ZM46.8454 8.02501H44.1971L42.7032 10.4041H45.351L46.8454 8.02501Z" fill="black"/>
<path d="M78.3447 25.7677C78.06 25.9576 77.6599 25.8116 77.8094 25.3764C78.1821 24.2684 79.6634 22.0105 79.6634 22.0105L83.7893 14.8379H80.9632C80.8288 15.0542 80.5416 15.5508 80.5416 15.5508C80.4109 15.3373 80.0199 14.8627 79.8589 14.7601C79.1684 14.3324 78.1555 14.5346 77.4567 14.9223C74.4183 16.6637 72.2015 20.1042 70.4531 22.7872C70.4531 22.7872 68.6127 25.7697 67.5912 25.9915C66.7936 26.0549 66.8759 25.0018 66.9104 24.7565C67.2188 22.9834 67.9349 21.2978 68.6564 19.7703C70.124 18.7732 71.7987 17.4674 73.3207 16.0349C76.6237 12.9402 79.4083 9.43415 79.8153 8.65067C79.8153 8.65067 79.3748 8.73783 78.8546 8.75351C76.3135 12.2278 71.1134 17.2774 69.5369 18.029C70.2353 16.3825 74.7476 8.52393 78.5872 4.76475L79.1915 4.19474C80.1259 3.30042 81.0939 2.38241 81.8483 2.23199C81.928 2.22409 82.0306 2.23199 82.1192 2.41431C82.1529 3.11063 81.8884 3.62516 81.585 4.21074L81.1598 5.06559C81.1598 5.06559 81.7621 4.95475 82.1577 4.82779C82.6166 3.98138 83.125 3.03136 82.9375 1.89989C82.8751 1.53578 82.6061 1.25883 82.2547 1.19546C81.1092 0.981775 79.861 1.81251 78.8564 2.48547L78.8159 2.50904C73.6523 6.47412 69.2922 12.1883 65.4801 19.9918C65.2039 20.1973 64.1364 20.4429 63.955 20.324C64.3315 19.5644 64.8055 18.5433 65.0426 17.4352C65.0836 17.1185 65.1218 16.7943 65.1218 16.4778C65.1218 15.7966 64.955 15.1558 64.3325 14.7128C63.6025 14.3566 62.7004 14.5229 62.092 14.7918C59.3672 15.8998 57.3307 18.6383 55.861 20.8936C55.0706 22.3264 54.2825 23.8611 54.0642 25.6184C53.9106 26.9952 54.2235 27.8817 55.0222 28.325C55.8435 28.7363 56.8773 28.3088 57.2834 28.1032C60.044 26.6786 61.9729 23.8217 63.4932 21.2099C63.5537 21.2021 64.3838 21.1785 65.0118 21.02C65.02 21.02 65.0236 21.02 65.0375 21.0282C65.0015 21.1465 64.677 22.0965 64.677 22.0965C63.7134 24.8662 63.2678 26.75 64.178 27.8658C65.4787 29.4408 67.6321 27.8107 69.3838 25.6576C69.0078 28.2375 70.3719 28.6414 71.4119 28.4437C72.6064 28.1273 73.9375 26.8766 74.5552 26.2357C74.3569 26.9874 74.4107 28.3331 75.4975 28.4674C76.2422 28.6024 76.7997 28.2053 77.4445 27.8649C79.758 26.6301 82.5274 22.5157 83.2464 21.3261H82.3037C81.2815 22.8404 79.9808 24.8255 78.3447 25.7677ZM57.5788 25.4922C57.432 25.2784 57.3834 25.0448 57.3785 24.7922C57.3504 23.2402 59.0539 20.4612 60.2561 18.9473H60.2587C60.7624 20.0287 61.9035 20.7238 62.5923 21.0168C61.7369 22.8847 58.8029 26.885 57.5788 25.4922ZM63.0752 20.1817C62.9937 20.2375 61.5549 19.7623 61.2768 18.4565C61.0409 17.3323 61.8308 16.4539 62.5949 16.0111C62.9229 15.7577 63.417 15.6709 63.7794 15.797C64.1158 16.019 64.2069 16.4151 64.2069 16.8417C64.2069 17.1034 64.1715 17.3722 64.1403 17.6175L64.1334 17.673C63.8925 18.5505 63.5368 19.3937 63.0752 20.1817ZM74.6153 24.9936C74.6141 24.9936 74.3422 25.231 74.3422 25.231C73.9541 25.5712 73.5547 25.9352 73.0725 25.7531C72.9394 25.7057 72.8457 25.5317 72.8232 25.3968C72.8012 24.4233 73.2484 23.5213 73.6822 22.6429L73.7934 22.4133C75.041 20.3715 76.4912 17.9656 78.621 16.2959C78.9799 16.0421 79.3694 15.8288 79.7804 15.9951C79.875 16.0821 79.9851 16.2325 79.9851 16.3827C79.9851 16.4304 79.9419 16.5569 79.917 16.5964C79.3221 17.5386 78.7557 18.5277 78.2048 19.4774C77.1282 21.3531 76.0114 23.2917 74.6153 24.9936Z" fill="black"/>
</g>
<defs>
<clipPath id="clip0">
<rect width="88.2634" height="28.3415" fill="white" transform="translate(0.868164 0.829346)"/>
</clipPath>
</defs>
</svg>
