<svg width="109" height="36" viewBox="0 0 109 36" fill="none" xmlns="http://www.w3.org/2000/svg">
<g clip-path="url(#clip0)">
<path d="M13.4234 0.00390625H14.3927C17.7578 0.0779292 21.068 1.44735 23.4455 3.8716C22.5677 4.77838 21.6715 5.64815 20.812 6.55493C19.4769 5.33356 17.8675 4.38976 16.1118 4.05666C13.5148 3.50149 10.7167 4.00114 8.54033 5.50011C6.16281 7.07309 4.55341 9.73792 4.20593 12.5878C3.82187 15.4007 4.60828 18.3616 6.41885 20.5453C8.15627 22.6734 10.8081 24.0058 13.5514 24.0984C16.1118 24.2464 18.7819 23.4507 20.6474 21.6371C22.1105 20.3602 22.7871 18.4171 23.0066 16.5295C19.9707 16.5295 16.9348 16.548 13.8989 16.5295V12.7173H26.6826C27.341 16.8071 26.39 21.415 23.3175 24.3389C21.2692 26.4116 18.4345 27.633 15.5449 27.8735C12.7467 28.1511 9.85711 27.6144 7.36986 26.245C4.38882 24.635 2.0113 21.9147 0.840831 18.7132C-0.256485 15.7708 -0.274773 12.4398 0.749388 9.47884C1.68211 6.777 3.47439 4.38976 5.77875 2.72425C7.99167 1.07724 10.6801 0.170458 13.4234 0.00390625Z" fill="black"/>
<path d="M86.7607 0.965454H90.6745V27.3916C89.376 27.3916 88.0592 27.4101 86.7607 27.3731C86.779 18.5829 86.7607 9.77418 86.7607 0.965454Z" fill="black"/>
<path d="M35.389 10.1258C37.8031 9.66319 40.4183 10.1813 42.4118 11.6433C44.2224 12.9387 45.4843 14.9743 45.8683 17.195C46.3621 19.7673 45.7403 22.5802 44.0943 24.6158C42.3203 26.892 39.4125 28.1134 36.5777 27.9283C33.9807 27.7803 31.4569 26.4664 29.9207 24.3197C28.1833 21.951 27.7626 18.694 28.7136 15.9181C29.6646 12.9387 32.3531 10.6625 35.389 10.1258ZM35.9376 13.6419C34.95 13.901 34.0356 14.4747 33.3772 15.2889C31.6032 17.4356 31.713 20.9332 33.6698 22.9318C34.7854 24.0791 36.468 24.6158 38.0225 24.3012C39.4673 24.0421 40.7292 23.0613 41.4242 21.7659C42.6313 19.5637 42.2838 16.5288 40.4366 14.8078C39.2479 13.6974 37.5104 13.2348 35.9376 13.6419Z" fill="black"/>
<path d="M54.7738 10.1258C57.5354 9.58918 60.553 10.3664 62.6197 12.328C65.9848 15.3815 66.3505 21.0997 63.4792 24.6158C61.7418 26.8365 58.9254 28.0579 56.1455 27.9284C53.4936 27.8543 50.8784 26.5219 49.3056 24.3197C47.5316 21.8955 47.1475 18.5645 48.1534 15.7331C49.1592 12.8462 51.7928 10.644 54.7738 10.1258ZM55.3225 13.6419C54.3349 13.901 53.4205 14.4747 52.7621 15.2704C51.0064 17.3801 51.0796 20.8222 52.9633 22.8393C54.0789 24.0422 55.8163 24.6343 57.4257 24.3012C58.8522 24.0237 60.1324 23.0614 60.8274 21.766C62.0161 19.5453 61.6687 16.5103 59.8032 14.7893C58.6145 13.6789 56.877 13.2348 55.3225 13.6419Z" fill="black"/>
<path d="M71.2153 11.1991C73.3185 9.86673 76.1167 9.49662 78.3845 10.644C79.0977 10.9586 79.683 11.4952 80.2499 12.0319C80.2682 11.5322 80.2499 11.0141 80.2682 10.4959C81.4935 10.5144 82.7189 10.4959 83.9625 10.5144V26.8365C83.9442 29.2977 83.3224 31.907 81.5667 33.7021C79.6464 35.6822 76.7019 36.2929 74.0501 35.8858C71.2153 35.4601 68.7464 33.369 67.6491 30.7227C68.7464 30.186 69.8986 29.7604 71.0324 29.2607C71.6726 30.7782 72.971 32.0736 74.5987 32.3697C76.2264 32.6658 78.1101 32.2587 79.1709 30.8892C80.3048 29.4828 80.3048 27.5582 80.2499 25.8372C79.4086 26.6699 78.4393 27.4102 77.2689 27.6877C74.7267 28.4095 71.9286 27.5212 69.9717 25.7817C67.9965 24.0421 66.8261 21.3588 66.9358 18.694C66.9907 15.6775 68.6732 12.7721 71.2153 11.1991ZM75.0011 13.5679C73.8855 13.7529 72.843 14.3821 72.1298 15.2519C70.4106 17.3245 70.4106 20.6371 72.1481 22.6727C73.1356 23.8756 74.7267 24.5418 76.263 24.3752C77.7078 24.2272 79.0429 23.3019 79.7561 22.025C80.9632 19.8598 80.762 16.9174 79.1343 15.0298C78.1284 13.864 76.519 13.2903 75.0011 13.5679Z" fill="black"/>
<path d="M95.3755 12.1429C97.5701 10.0703 100.953 9.36703 103.77 10.4589C106.44 11.4767 108.141 14.049 109 16.6953C105.032 18.3608 101.082 20.0078 97.1129 21.6733C97.6615 22.7282 98.5028 23.6905 99.6367 24.0791C101.228 24.6528 103.13 24.4492 104.465 23.3759C104.995 22.9687 105.416 22.4321 105.818 21.9139C106.824 22.5986 107.83 23.2648 108.836 23.9495C107.409 26.1147 105.014 27.6322 102.435 27.8728C99.5818 28.2244 96.5459 27.114 94.6988 24.8563C91.6629 21.3032 91.9555 15.3444 95.3755 12.1429ZM97.3323 15.5665C96.7105 16.4732 96.4545 17.5836 96.4728 18.6754C99.1246 17.5651 101.776 16.4547 104.428 15.3259C103.989 14.2896 102.929 13.6604 101.85 13.4938C100.112 13.1792 98.3016 14.123 97.3323 15.5665Z" fill="black"/>
</g>
<defs>
<clipPath id="clip0">
<rect width="109" height="36" fill="white"/>
</clipPath>
</defs>
</svg>
