<svg width="168" height="28" viewBox="0 0 168 28" fill="none" xmlns="http://www.w3.org/2000/svg">
<path fill-rule="evenodd" clip-rule="evenodd" d="M165.446 22.6113C165.106 22.6052 164.767 22.664 164.451 22.7842C164.135 22.9045 163.847 23.0838 163.604 23.3116C163.361 23.5395 163.168 23.8113 163.036 24.1112C162.905 24.4112 162.837 24.7332 162.837 25.0585C162.837 25.3837 162.905 25.7058 163.036 26.0057C163.168 26.3056 163.361 26.5775 163.604 26.8053C163.847 27.0332 164.135 27.2125 164.451 27.3327C164.767 27.4529 165.106 27.5117 165.446 27.5056C165.782 27.5053 166.115 27.4416 166.426 27.318C166.736 27.1945 167.018 27.0136 167.255 26.7858C167.493 26.5579 167.681 26.2876 167.808 25.9902C167.936 25.6928 168.001 25.3743 168 25.0529C168 24.7323 167.934 24.4148 167.806 24.1186C167.677 23.8224 167.489 23.5532 167.252 23.3265C167.015 23.0997 166.733 22.9199 166.423 22.7971C166.114 22.6744 165.781 22.6113 165.446 22.6113ZM165.446 27.2113C165.15 27.2116 164.856 27.156 164.582 27.0476C164.308 26.9391 164.06 26.7801 163.85 26.5795C163.641 26.3789 163.475 26.1408 163.363 25.8788C163.25 25.6168 163.193 25.3361 163.194 25.0529C163.194 24.7705 163.252 24.491 163.366 24.2302C163.479 23.9695 163.645 23.7326 163.854 23.5333C164.063 23.3339 164.312 23.1759 164.585 23.0684C164.858 22.9608 165.15 22.9058 165.446 22.9065C165.741 22.9065 166.033 22.962 166.305 23.0699C166.578 23.1778 166.825 23.3359 167.034 23.5352C167.242 23.7345 167.407 23.9712 167.52 24.2316C167.633 24.492 167.691 24.7711 167.691 25.0529C167.692 25.3356 167.635 25.6159 167.523 25.8775C167.411 26.1391 167.246 26.377 167.037 26.5776C166.829 26.7781 166.581 26.9373 166.308 27.046C166.035 27.1548 165.742 27.211 165.446 27.2113Z" fill="black"/>
<path fill-rule="evenodd" clip-rule="evenodd" d="M166.76 24.4118C166.76 24.181 166.653 23.9381 166.439 23.8222C166.224 23.7004 165.983 23.6883 165.742 23.6883H164.494V26.4235H164.844V25.1619H165.488L166.305 26.4235H166.72L165.856 25.1619C166.366 25.1482 166.76 24.9499 166.76 24.4118ZM165.38 24.8984H164.843V23.9312H165.66C166.016 23.9312 166.405 23.9827 166.405 24.4058C166.406 24.9628 165.781 24.8984 165.38 24.8984ZM150.436 11.1885L155.672 5.84613C155.975 5.45393 156.126 5.17931 156.126 4.94416C156.126 4.55195 155.773 4.3949 154.663 4.3949H153.342V1.02213H167.64V4.3949H165.761C163.592 4.3949 163.189 4.70815 160.162 8.35555L151.879 16.9033V22.1195C151.879 23.4541 152.584 23.9235 154.603 23.9235H157.73V27.1778H137.704V23.9235H140.831C142.848 23.9235 143.554 23.4541 143.554 22.1195V16.9033L133.799 6.59021C132.188 4.7871 132.41 4.3949 127.922 4.3949V1.02213H146.033V4.3949H144.743C143.431 4.3949 142.875 4.63005 142.875 5.10035C142.875 5.49341 143.279 5.80665 143.531 6.1199L148.466 11.2606C149.053 11.8433 149.768 11.9188 150.436 11.1885ZM28.924 1.02127H33.2927V10.4324H29.2581C28.9007 8.55122 27.6687 7.81916 26.5453 6.83222C24.5185 5.05229 20.1292 3.57016 16.4376 3.57016C11.6729 3.57016 7.65171 4.98277 7.65171 7.05964C7.65171 12.8251 34.901 8.23711 34.901 19.1381C34.901 24.8238 29.0641 28 18.582 28C14.9532 28 9.46205 26.9238 6.22213 25.2795C5.20651 24.7191 4.77547 25.8098 4.5851 27.177H0.105962V17.4517H4.15766C5.05116 19.9225 6.28229 20.4314 7.41465 21.4124C9.37943 23.1382 14.0561 24.3938 18.3449 24.3535C24.8113 24.2925 27.0347 22.9417 27.0347 20.9807C27.0347 19.0205 24.8355 18.5494 17.7495 17.4912L11.733 16.5497C4.9434 15.5688 0 14.1184 0 8.94256C0 3.57016 6.25356 0.197385 16.1412 0.197385C20.3079 0.197385 23.7939 0.729481 27.1397 2.53687C28.0665 3.11273 28.9357 3.18139 28.924 1.02127ZM114.182 16.778L114.268 6.31815C114.268 4.94587 113.521 4.47557 111.387 4.47557H108.879V1.22123H124.836V4.47557H122.756C120.62 4.47557 119.873 4.94673 119.873 6.31815V27.3761L113.627 27.3289L93.401 9.02409V22.3178C93.401 23.6514 94.1481 24.1604 96.2827 24.1604H99.0592V27.3761H82.4869V24.1604H85.233C87.3675 24.1604 88.1146 23.6506 88.1146 22.3178V6.31815C88.1146 4.94587 87.3675 4.47557 85.233 4.47557H82.4869V1.22123H96.8152L114.182 16.778ZM60.7315 0C48.0143 0 40.0536 5.37326 40.0536 13.9991C40.0536 22.4705 47.9038 27.8026 60.3436 27.8026C73.5565 27.8026 81.2423 22.5486 81.2423 13.5683C81.2432 5.49083 72.9495 0 60.7315 0ZM60.4423 24.3921C53.4031 24.3921 49.3567 20.5095 49.3567 13.8035C49.3567 7.25532 53.5791 3.37277 60.7944 3.37277C67.716 3.37277 71.7623 7.33427 71.7623 14.079C71.7623 20.6666 67.6567 24.3921 60.4423 24.3921Z" fill="black"/>
</svg>
