<svg width="40" height="40" viewBox="0 0 40 40" fill="none" xmlns="http://www.w3.org/2000/svg">
<path d="M8.33337 5V3.75C7.64302 3.75 7.08337 4.30964 7.08337 5H8.33337ZM31.6667 35V36.25C32.3571 36.25 32.9167 35.6904 32.9167 35H31.6667ZM8.33337 35H7.08337C7.08337 35.6904 7.64302 36.25 8.33337 36.25V35ZM23.3334 5L24.2173 4.11612C23.9828 3.8817 23.6649 3.75 23.3334 3.75V5ZM31.6667 13.3333H32.9167C32.9167 13.0018 32.785 12.6839 32.5506 12.4494L31.6667 13.3333ZM31.6667 33.75H8.33337V36.25H31.6667V33.75ZM9.58337 35V5H7.08337V35H9.58337ZM8.33337 6.25H23.3334V3.75H8.33337V6.25ZM30.4167 13.3333V35H32.9167V13.3333H30.4167ZM22.4495 5.88388L30.7828 14.2172L32.5506 12.4494L24.2173 4.11612L22.4495 5.88388ZM20.4167 5V11.6667H22.9167V5H20.4167ZM25 16.25H31.6667V13.75H25V16.25ZM20.4167 11.6667C20.4167 14.198 22.4687 16.25 25 16.25V13.75C23.8494 13.75 22.9167 12.8173 22.9167 11.6667H20.4167Z" fill="black"/>
</svg>
