<svg width="40" height="40" viewBox="0 0 40 40" fill="none" xmlns="http://www.w3.org/2000/svg">
<path d="M31.6667 23.3333C33.5076 23.3333 35 21.8409 35 20C35 18.159 33.5076 16.6667 31.6667 16.6667M31.6667 23.3333C29.8257 23.3333 28.3333 21.8409 28.3333 20C28.3333 18.159 29.8257 16.6667 31.6667 16.6667M31.6667 23.3333V33.3333M31.6667 16.6667V6.66666M20 26.6667C18.1591 26.6667 16.6667 28.159 16.6667 30C16.6667 31.8409 18.1591 33.3333 20 33.3333C21.8409 33.3333 23.3333 31.8409 23.3333 30C23.3333 28.159 21.8409 26.6667 20 26.6667ZM20 26.6667V6.66666M8.33333 13.3333C10.1743 13.3333 11.6667 11.8409 11.6667 9.99999C11.6667 8.15904 10.1743 6.66666 8.33333 6.66666C6.49238 6.66666 5 8.15904 5 9.99999C5 11.8409 6.49238 13.3333 8.33333 13.3333ZM8.33333 13.3333V33.3333" stroke="#BEE0FB" stroke-width="2.5" stroke-linecap="round"/>
</svg>
