<svg width="64" height="64" viewBox="0 0 64 64" fill="none" xmlns="http://www.w3.org/2000/svg">
<circle cx="32" cy="32" r="32" fill="#FFF5F3"/>
<path d="M46.6666 44V41.3333C46.6666 38.3878 44.2788 36 41.3333 36H40.6666M35.9999 30.6667C38.9454 30.6667 41.3333 28.2789 41.3333 25.3333C41.3333 22.3878 38.9454 20 35.9999 20M38.6666 44V41.3333C38.6666 38.3878 36.2788 36 33.3333 36H22.6666C19.7211 36 17.3333 38.3878 17.3333 41.3333V44M33.3333 25.3333C33.3333 28.2789 30.9454 30.6667 27.9999 30.6667C25.0544 30.6667 22.6666 28.2789 22.6666 25.3333C22.6666 22.3878 25.0544 20 27.9999 20C30.9454 20 33.3333 22.3878 33.3333 25.3333Z" stroke="#FF4C27" stroke-width="2" stroke-linecap="round" stroke-linejoin="round"/>
</svg>
