<svg width="166" height="50" viewBox="0 0 166 50" fill="none" xmlns="http://www.w3.org/2000/svg">
<path d="M0 5C0 2.23858 2.23858 0 5 0H161C163.761 0 166 2.23858 166 5V45C166 47.7614 163.761 50 161 50H5C2.23858 50 0 47.7614 0 45V5Z" fill="#FF8AF7"/>
<path fill-rule="evenodd" clip-rule="evenodd" d="M58.0163 12.2409C58.0583 13.1693 57.7265 14.0747 57.0981 14.7458C56.3959 15.4921 55.4165 15.8974 54.4046 15.8606C52.8526 15.8481 51.4592 14.8851 50.8685 13.4168C50.2778 11.9486 50.6051 10.2611 51.6989 9.13471C52.4097 8.39239 53.3892 7.98432 54.4046 8.00747C54.9222 8.00571 55.4347 8.11227 55.9105 8.32059C56.3535 8.5034 56.7479 8.79097 57.0613 9.15976L56.4125 9.82358C55.917 9.22073 55.1733 8.89134 54.4046 8.93431C53.6319 8.93043 52.891 9.2488 52.3528 9.81599C51.8145 10.3832 51.5254 11.1502 51.552 11.9403C51.5356 13.1341 52.2229 14.2208 53.2941 14.6948C54.3653 15.1688 55.6101 14.9369 56.4492 14.1071C56.8259 13.6894 57.0432 13.147 57.0613 12.579H54.4046V11.6773H57.9673C58 11.8633 58.0164 12.0519 58.0163 12.2409ZM63.6235 9.10966H60.318V11.4894H63.3297V12.3912H60.318V14.7709H63.6235V15.6977H59.3385V8.18282H63.6235V9.10966ZM67.6392 15.6977H66.6965V9.10966H64.6397V8.18282H69.745V9.10966H67.6392V15.6977ZM73.3444 15.6977V8.18282H74.2871V15.6977H73.3444ZM78.4742 15.6977H77.5315V9.10966H75.4747V8.18282H80.5188V9.10966H78.4742V15.6977ZM90.0805 14.7208C88.5905 16.2366 86.1836 16.2366 84.6936 14.7208C83.2493 13.1567 83.2493 10.7113 84.6936 9.14723C85.4061 8.41296 86.3757 8 87.3871 8C88.3984 8 89.368 8.41296 90.0805 9.14723C91.531 10.7088 91.531 13.1592 90.0805 14.7208ZM85.3915 14.0945C86.4949 15.2187 88.2792 15.2187 89.3827 14.0945C90.4664 12.8723 90.4664 11.0082 89.3827 9.786C88.2792 8.66182 86.4949 8.66182 85.3915 9.786C84.3077 11.0082 84.3077 12.8723 85.3915 14.0945ZM92.4923 15.6977V8.18282H93.6432L97.2181 14.0319V8.18282H98.1608V15.6977H97.1814L93.4473 9.57308V15.6977H92.4923ZM83.3836 26.657C84.7738 26.6297 86.1154 27.1809 87.1009 28.1844C88.0864 29.1879 88.6315 30.5577 88.6113 31.98C88.6113 34.9166 86.2867 37.2984 83.4162 37.303C80.5458 37.3076 78.2139 34.9332 78.2049 31.9967C78.1959 29.0601 80.5132 26.6708 83.3836 26.657ZM83.3836 35.2114C84.1957 35.1922 84.9657 34.8382 85.519 34.2297C86.0722 33.6213 86.3618 32.81 86.3219 31.98C86.3188 30.6532 85.5231 29.4632 84.3155 28.9792C83.108 28.4952 81.7339 28.8155 80.8505 29.787C79.9672 30.7585 79.754 32.1836 80.3131 33.3809C80.8722 34.5781 82.0898 35.304 83.3836 35.2114ZM71.9855 26.657H71.9732C73.3634 26.6297 74.7049 27.1809 75.6905 28.1844C76.676 29.1879 77.2211 30.5577 77.2009 31.98C77.2009 34.9182 74.8738 37.3008 72.0018 37.3031C69.1297 37.3054 66.799 34.9266 66.7945 31.9884C66.79 29.0502 69.1134 26.6639 71.9855 26.657ZM71.9855 35.2114H71.9732C72.7853 35.1922 73.5553 34.8382 74.1086 34.2297C74.6618 33.6213 74.9514 32.81 74.9115 31.98C74.908 30.6521 74.1108 29.4616 72.9017 28.9787C71.6926 28.4957 70.3177 28.8187 69.4356 29.7928C68.5536 30.767 68.3438 32.194 68.9068 33.3904C69.4698 34.5869 70.691 35.3092 71.9855 35.2114ZM58.4081 28.2977L65.8395 28.2351C65.9249 28.7017 65.9659 29.1757 65.9619 29.6504C66.0195 31.599 65.3347 33.4942 64.052 34.9359C62.5863 36.5061 60.5282 37.351 58.4081 37.253C55.444 37.371 52.6544 35.8206 51.138 33.2124C49.6217 30.6042 49.6217 27.3564 51.138 24.7483C52.6544 22.1401 55.444 20.5897 58.4081 20.7077C60.4902 20.6892 62.491 21.5341 63.9541 23.0498L62.3993 24.6405C61.3265 23.5809 59.8868 22.9999 58.3958 23.0248C55.1503 23.0248 52.5192 25.7164 52.5192 29.0367C52.5192 32.357 55.1503 35.0486 58.3958 35.0486C59.9219 35.1108 61.4027 34.5103 62.4727 33.3953C63.1826 32.616 63.6141 31.6141 63.697 30.5522H58.4081V28.2977ZM113.881 30.0512L114.138 30.6148L107.172 33.5582C107.608 34.5754 108.608 35.2162 109.694 35.1739C110.741 35.1766 111.713 34.6152 112.252 33.6959L114.028 34.9484C113.061 36.4282 111.433 37.3127 109.694 37.3031C108.311 37.3238 106.979 36.7684 106.005 35.7645C105.031 34.7606 104.497 33.3945 104.527 31.98C104.443 30.5979 104.921 29.2417 105.849 28.2333C106.776 27.2249 108.071 26.6543 109.424 26.657C111.454 26.7334 113.227 28.0838 113.881 30.0512ZM106.78 31.8297L111.432 29.8508C111.066 29.1127 110.305 28.6692 109.498 28.7236C108.732 28.7589 108.012 29.1081 107.501 29.6925C106.99 30.2768 106.73 31.0471 106.78 31.8297ZM101.124 36.99V21.3339H103.413V36.99H101.124ZM97.3773 27.8468V26.9701H99.4831V36.4514C99.4831 40.3842 97.2671 41.9999 94.5859 41.9999C92.5649 42.0123 90.7388 40.7685 89.9703 38.8562L91.9659 38.0045C92.383 39.1205 93.4183 39.8678 94.5859 39.8957C96.2999 39.8957 97.365 38.8061 97.365 36.7645V36.0005H97.2916C96.6035 36.8125 95.5994 37.2711 94.5492 37.253C91.7702 37.1151 89.5863 34.77 89.5863 31.9237C89.5863 29.0774 91.7702 26.7322 94.5492 26.5943C95.596 26.5929 96.5937 27.0486 97.2916 27.8468H97.3773ZM94.7573 35.2114H94.745C95.5407 35.1801 96.2892 34.8171 96.8165 34.2067C97.3438 33.5963 97.6039 32.7917 97.5364 31.98C97.5969 31.1721 97.3359 30.3734 96.8127 29.765C96.2895 29.1566 95.5483 28.7901 94.7573 28.7486C93.1203 28.8962 91.8647 30.2988 91.8647 31.98C91.8647 33.6612 93.1203 35.0638 94.7573 35.2114ZM124.618 21.3339C126.396 21.2032 128.097 22.0998 129.025 23.6573C129.954 25.2148 129.954 27.1723 129.025 28.7298C128.097 30.2873 126.396 31.1839 124.618 31.0532H121.422V36.99H119.133V21.3339H124.618ZM124.606 28.8488L124.655 28.8864C126.105 28.8864 127.281 27.6836 127.281 26.1998C127.281 24.7161 126.105 23.5132 124.655 23.5132H121.41V28.8488H124.606ZM138.722 26.5943L138.783 26.6319C141.391 26.6319 143.423 28.2226 143.423 30.9655V36.99H141.219V35.7375H141.146C140.509 36.7504 139.382 37.3267 138.207 37.2405C137.254 37.3125 136.313 36.9872 135.599 36.3384C134.884 35.6897 134.456 34.7727 134.412 33.7961C134.412 31.5291 136.628 30.2767 138.82 30.2767C139.652 30.2731 140.472 30.4796 141.207 30.8778V30.715C141.149 30.1133 140.856 29.5608 140.396 29.1816C139.935 28.8024 139.345 28.6284 138.758 28.6985C137.903 28.6269 137.086 29.0789 136.677 29.8508L134.645 28.9866C135.417 27.4299 137.018 26.4902 138.722 26.5943ZM138.44 35.1739L138.501 35.2114C139.88 35.177 141.024 34.1085 141.182 32.7065C140.547 32.3437 139.828 32.1621 139.101 32.1804C137.95 32.1804 136.653 32.5937 136.653 33.8462C136.653 34.7856 137.693 35.1739 138.44 35.1739ZM151.454 26.9701H154.001L147.732 41.7369H145.345L147.671 36.4639L143.594 26.9701H146.043L148.761 33.7586H148.834L151.454 26.9701ZM130.874 36.99V21.3339H133.163V36.99H130.874ZM40.2208 23.9583C40.5303 24.1373 40.7152 24.4576 40.7151 24.8151C40.7151 25.1726 40.5302 25.493 40.2207 25.6715L34.6032 28.9138L30.6598 25.1019L34.9746 20.931L40.2208 23.9583ZM34.0841 20.4166L29.9488 24.4144L15.6583 10.6L28.3108 17.0837L34.0841 20.4166ZM15.8684 39.4L29.9488 25.7893L33.7128 29.4282L28.3325 32.5341L15.8684 39.4ZM14.8142 11.1592L29.2377 25.1016L14.8008 39.0574L14.8142 11.1592Z" fill="black"/>
</svg>
