<?xml version="1.0" encoding="UTF-8"?>
<svg xmlns="http://www.w3.org/2000/svg" width="300" height="361.06" xmlns:xlink="http://www.w3.org/1999/xlink" viewBox="0 0 300 361.06">
  <defs>
    <style>
      .cls-1 {
        fill: url(#linear-gradient-3);
      }

      .cls-2 {
        fill: url(#linear-gradient-2);
      }

      .cls-3 {
        fill: #032d42;
      }

      .cls-4 {
        fill: #fff;
      }

      .cls-5 {
        fill: #62d74e;
      }

      .cls-6 {
        fill: #62d84e;
      }

      .cls-7 {
        fill: #61d94f;
      }

      .cls-8 {
        fill: url(#linear-gradient);
      }

      .cls-9, .cls-10 {
        opacity: .2;
      }

      .cls-11 {
        isolation: isolate;
      }

      .cls-10 {
        mix-blend-mode: multiply;
      }
    </style>
    <linearGradient id="linear-gradient" x1="91.69" y1="213.52" x2="455.68" y2="-138.46" gradientTransform="matrix(1, 0, 0, 1, 0, 0)" gradientUnits="userSpaceOnUse">
      <stop offset="0" stop-color="#032d42"/>
      <stop offset=".11" stop-color="#033044"/>
      <stop offset=".19" stop-color="#05394d"/>
      <stop offset=".26" stop-color="#09495d"/>
      <stop offset=".33" stop-color="#0e6072"/>
      <stop offset=".39" stop-color="#157e8e"/>
      <stop offset=".45" stop-color="#1da1af"/>
      <stop offset=".49" stop-color="#24c1cd"/>
    </linearGradient>
    <linearGradient id="linear-gradient-2" x1="11.99" y1="276.55" x2="288" y2="276.55" gradientTransform="matrix(1, 0, 0, 1, 0, 0)" gradientUnits="userSpaceOnUse">
      <stop offset="0" stop-color="#000"/>
      <stop offset="1" stop-color="#000" stop-opacity="0"/>
    </linearGradient>
    <linearGradient id="linear-gradient-3" x1="0" y1="180.53" x2="300" y2="180.53" gradientTransform="matrix(1, 0, 0, 1, 0, 0)" gradientUnits="userSpaceOnUse">
      <stop offset="0" stop-color="#009056"/>
      <stop offset="1" stop-color="#85ec78"/>
    </linearGradient>
  </defs>
  <g class="cls-11">
    <g id="fill">
      <path class="cls-8" d="M141.44,13.58L27.44,57.11c-9.3,3.55-15.44,12.47-15.44,22.42V221.56c0,4.29,1.16,8.5,3.33,12.2,10.82,18.45,27.9,42.74,53.87,66.26,25.58,23.16,51.14,37.75,70.8,46.84,6.35,2.94,13.67,2.94,20.01,0,19.66-9.1,45.22-23.68,70.8-46.84,25.96-23.51,43.04-47.81,53.87-66.26,2.17-3.7,3.33-7.91,3.33-12.2V79.53c0-9.95-6.14-18.87-15.44-22.42L158.56,13.58c-5.51-2.11-11.61-2.11-17.12,0Z"/>
    </g>
    <g id="reflection_layer" data-name="reflection layer">
      <g class="cls-10">
        <path class="cls-2" d="M288,204.06v17.5c0,4.29-1.16,8.5-3.33,12.2-10.83,18.45-27.91,42.75-53.87,66.26-25.58,23.16-51.14,37.75-70.8,46.84-6.34,2.94-13.67,2.94-20.01,0-19.66-9.09-45.22-23.68-70.8-46.84-25.96-23.51-43.04-47.81-53.87-66.26-2.17-3.7-3.33-7.91-3.33-12.2v-17.51c34.59,36.67,83.63,59.55,138.01,59.55s103.42-22.88,138-59.54Z"/>
      </g>
    </g>
    <g id="stroke">
      <path class="cls-1" d="M150,12c2.9,0,5.8,.53,8.56,1.58l114,43.53c9.3,3.55,15.44,12.47,15.44,22.42V221.56c0,4.29-1.16,8.5-3.33,12.2-10.82,18.45-27.9,42.74-53.87,66.26-25.58,23.16-51.14,37.75-70.8,46.84-3.17,1.47-6.59,2.2-10.01,2.2s-6.83-.73-10.01-2.2c-19.66-9.1-45.22-23.68-70.8-46.84-25.96-23.51-43.04-47.81-53.87-66.26-2.17-3.7-3.33-7.91-3.33-12.2V79.53c0-9.95,6.14-18.87,15.44-22.42L141.44,13.58c2.76-1.05,5.66-1.58,8.56-1.58m0-12c-4.41,0-8.73,.8-12.84,2.37L23.16,45.9C9.3,51.19,0,64.7,0,79.53V221.56c0,6.4,1.72,12.72,4.98,18.27,15.13,25.79,34.03,49.03,56.16,69.08,22,19.92,46.83,36.36,73.81,48.84,4.68,2.17,9.88,3.31,15.05,3.31s10.37-1.15,15.05-3.31c26.98-12.48,51.81-28.92,73.81-48.84,22.14-20.05,41.03-43.29,56.16-69.08,3.26-5.55,4.98-11.87,4.98-18.27V79.53c0-14.83-9.31-28.34-23.16-33.63L162.84,2.37c-4.11-1.57-8.44-2.37-12.84-2.37h0Z"/>
    </g>
    <g id="icon">
      <g>
        <g>
          <path class="cls-5" d="M207.89,152.07c-.61-.58-.96-1.38-.98-2.22-.02-.84,.3-1.66,.88-2.26l8.78-9.17c.58-.61,1.38-.96,2.22-.98,.84-.02,1.66,.3,2.26,.88s.96,1.38,.98,2.22c.02,.84-.3,1.66-.88,2.26l-8.78,9.17c-.58,.61-1.38,.96-2.22,.98-.84,.02-1.66-.3-2.26-.88Z"/>
          <path class="cls-5" d="M221.36,184.7c-.6-.59-.95-1.38-.98-2.22-.01-.84,.31-1.65,.89-2.26,.58-.61,1.38-.96,2.22-.98l12.79-.21c.42-.01,.85,.06,1.24,.22,.39,.16,.75,.39,1.06,.68,.3,.3,.54,.65,.71,1.04,.16,.39,.25,.81,.25,1.23,0,.42-.09,.84-.25,1.23s-.41,.74-.71,1.04-.66,.53-1.06,.68c-.39,.15-.82,.23-1.24,.22l-12.64,.2c-.42,.01-.83-.06-1.22-.21-.39-.15-.74-.38-1.04-.67Z"/>
          <path class="cls-5" d="M174.7,140.05c-.3-.29-.54-.63-.71-1.01-.17-.38-.26-.79-.27-1.21l-.35-12.64c.01-.82,.34-1.61,.92-2.19,.58-.58,1.36-.92,2.18-.94,.82-.02,1.62,.28,2.22,.84,.6,.56,.97,1.33,1.02,2.15l.28,12.72c.01,.84-.31,1.65-.89,2.26s-1.38,.96-2.22,.98c-.83-.03-1.61-.37-2.19-.95Z"/>
        </g>
        <path class="cls-4" d="M178.87,193.43c-1.94,.49-3.98,.39-5.87-.28-1.89-.67-3.53-1.89-4.72-3.5-1.19-1.61-1.88-3.53-1.98-5.53-.1-2,.4-3.98,1.43-5.7,1.03-1.72,2.54-3.09,4.35-3.95,1.81-.86,3.83-1.15,5.81-.86,1.98,.3,3.83,1.17,5.31,2.52,1.48,1.35,2.53,3.1,3.01,5.04,.65,2.6,.24,5.35-1.14,7.64-1.38,2.3-3.61,3.95-6.2,4.61Zm27.68-8.08l-4.04-2.12c0-2.06-.26-4.12-.76-6.12-.48-1.94-1.19-3.82-2.12-5.59l2.54-3.68c.55-.8,.81-1.77,.73-2.75-.08-.97-.49-1.89-1.17-2.59l-3.41-3.47c-.68-.71-1.58-1.16-2.55-1.27-.97-.12-1.95,.11-2.78,.64l-3.7,2.39c-3.57-2.04-7.56-3.21-11.66-3.43l-1.86-3.91c-.42-.89-1.13-1.6-2.01-2.02s-1.89-.52-2.84-.29l-4.78,1.21c-.94,.24-1.76,.78-2.34,1.55-.58,.77-.88,1.71-.85,2.68l.21,4.36c-3.58,2.15-6.6,5.12-8.8,8.68l-4.38-.36c-.98-.08-1.95,.18-2.76,.73-.81,.56-1.4,1.37-1.67,2.32l-1.35,4.74c-.27,.94-.21,1.94,.18,2.84,.39,.9,1.07,1.64,1.94,2.09l3.98,2.12c.02,1.99,.27,3.97,.76,5.9,.47,2,1.18,3.93,2.12,5.76l-2.58,3.75c-.55,.8-.81,1.77-.73,2.75,.08,.97,.49,1.89,1.17,2.59l3.41,3.56c.68,.7,1.58,1.15,2.56,1.26,.97,.11,1.95-.12,2.78-.65l3.89-2.5c3.51,1.95,7.42,3.07,11.43,3.26l1.99,4.23c.44,.88,1.17,1.58,2.07,1.98,.9,.4,1.91,.47,2.86,.2l4.78-1.21c.94-.24,1.76-.78,2.34-1.55,.58-.77,.88-1.71,.85-2.68l-.21-4.63c3.41-2.07,6.31-4.89,8.46-8.25l4.59,.36c1,.07,1.99-.21,2.8-.79,.81-.58,1.39-1.44,1.63-2.41l1.35-4.74c.28-.93,.22-1.93-.15-2.83-.37-.9-1.05-1.64-1.9-2.1Z"/>
        <path class="cls-3" d="M125.97,126.17c-.98-.98-2.15-1.76-3.43-2.29-1.28-.53-2.66-.81-4.05-.81-2.09,0-4.14,.62-5.88,1.78-1.74,1.16-3.1,2.82-3.9,4.75-.8,1.93-1.01,4.06-.6,6.11,.41,2.05,1.42,3.94,2.9,5.42,1.48,1.48,3.37,2.49,5.42,2.9,2.05,.41,4.18,.2,6.11-.6,1.93-.8,3.59-2.16,4.75-3.9,1.16-1.74,1.78-3.79,1.78-5.88,0-1.39-.27-2.77-.81-4.05-.53-1.28-1.31-2.45-2.29-3.43Z"/>
        <path class="cls-3" d="M146.57,141.96c-.18-.55-.2-1.14-.06-1.7,.54-2.21,.81-4.48,.83-6.75,0-2.2-.26-4.39-.76-6.54-.14-.56-.12-1.14,.06-1.69s.5-1.03,.94-1.4l5.33-4.72-4.66-8.06-6.6,2.26c-.55,.19-1.14,.22-1.7,.09-.56-.13-1.08-.41-1.5-.81-3.29-3.14-7.27-5.46-11.62-6.77-.53-.18-1.01-.5-1.38-.92-.37-.42-.62-.94-.73-1.49l-1.57-6.84h-9.31l-1.35,6.84c-.11,.55-.36,1.07-.73,1.49-.37,.42-.85,.74-1.39,.92-4.36,1.32-8.34,3.64-11.64,6.77-.42,.41-.94,.69-1.51,.81-.57,.13-1.16,.09-1.71-.09l-6.77-2.24-4.66,8.06,5.33,4.7c.44,.37,.76,.86,.94,1.4s.2,1.13,.06,1.69c-.5,2.14-.75,4.34-.76,6.54,0,2.27,.29,4.54,.83,6.75,.14,.56,.11,1.15-.06,1.7-.18,.55-.5,1.05-.93,1.43l-5.38,4.76,4.63,8.06,6.9-2.35c.55-.18,1.13-.21,1.69-.09,.56,.12,1.08,.39,1.5,.79,3.24,3.04,7.14,5.3,11.39,6.6,.54,.17,1.02,.49,1.39,.91,.37,.42,.62,.94,.73,1.5l1.5,7.11h9.31l1.44-7.15c.12-.56,.39-1.08,.79-1.5,.4-.42,.9-.72,1.45-.87,4.24-1.29,8.12-3.54,11.36-6.56,.42-.39,.94-.66,1.5-.79,.56-.12,1.15-.09,1.69,.09l6.9,2.33,4.66-8.06-5.44-4.78c-.44-.38-.76-.88-.93-1.43Zm-16.11,3.66c-3.17,3.18-7.48,4.96-11.97,4.96-3.35,0-6.62-.99-9.41-2.85-2.78-1.86-4.95-4.5-6.24-7.6-1.28-3.09-1.62-6.5-.96-9.78,.65-3.28,2.27-6.3,4.63-8.67,2.37-2.37,5.38-3.98,8.67-4.63,3.28-.65,6.69-.32,9.78,.96,3.09,1.28,5.74,3.45,7.6,6.24,1.86,2.78,2.85,6.06,2.85,9.41,0,4.49-1.78,8.8-4.96,11.97Z"/>
        <path class="cls-4" d="M124.97,118.01c-3.09-1.28-6.5-1.62-9.78-.96-3.28,.65-6.3,2.27-8.67,4.63-2.37,2.37-3.98,5.38-4.63,8.67-.65,3.28-.32,6.69,.96,9.78,1.28,3.09,3.45,5.74,6.24,7.6,2.78,1.86,6.06,2.85,9.41,2.85,4.49,0,8.8-1.78,11.97-4.96,3.17-3.17,4.96-7.48,4.96-11.97,0-3.35-.99-6.62-2.85-9.41-1.86-2.78-4.5-4.95-7.6-6.24Zm2.32,21.52c-1.16,1.74-2.82,3.1-4.75,3.9-1.93,.8-4.06,1.01-6.11,.6-2.05-.41-3.94-1.42-5.42-2.9-1.48-1.48-2.49-3.37-2.9-5.42-.41-2.05-.2-4.18,.6-6.11,.8-1.93,2.16-3.59,3.9-4.75,1.74-1.16,3.79-1.78,5.88-1.78,1.39,0,2.77,.27,4.05,.81,1.28,.53,2.45,1.31,3.43,2.29,.98,.98,1.76,2.15,2.29,3.43,.53,1.28,.81,2.66,.81,4.05,0,2.09-.62,4.14-1.78,5.88Z"/>
        <path class="cls-6" d="M160.17,120.34c.12-.72-.02-1.47-.39-2.1l-7.26-12.57c-.37-.64-.94-1.12-1.63-1.38-.69-.26-1.44-.27-2.14-.04l-7.36,2.48c-3.23-2.75-6.93-4.9-10.92-6.35l-1.52-7.55c-.14-.74-.54-1.4-1.13-1.87-.59-.47-1.32-.71-2.07-.69h-14.52c-.74,0-1.45,.26-2.02,.73-.57,.47-.95,1.13-1.09,1.85l-1.5,7.55c-4,1.44-7.71,3.59-10.94,6.35l-7.36-2.5c-.7-.25-1.47-.24-2.16,.02-.7,.26-1.28,.75-1.65,1.4l-7.22,12.57c-.36,.64-.49,1.38-.37,2.1,.12,.72,.48,1.38,1.03,1.87l5.93,5.21c-.37,2-.55,4.04-.55,6.07,0,2.13,.2,4.26,.59,6.35l-5.97,5.25c-.55,.48-.91,1.14-1.03,1.86-.12,.72,.02,1.46,.39,2.09l7.2,12.57c.37,.66,.96,1.16,1.66,1.42,.71,.26,1.48,.26,2.19,0l7.62-2.58c3.15,2.64,6.73,4.71,10.58,6.12l1.57,7.89c.14,.72,.53,1.37,1.1,1.84,.57,.47,1.28,.72,2.01,.72h14.52c.75,.02,1.48-.22,2.07-.69,.59-.47,.98-1.13,1.13-1.87l1.52-7.89c3.85-1.41,7.43-3.48,10.58-6.12l7.62,2.58c.69,.24,1.45,.23,2.14-.03,.69-.26,1.26-.75,1.63-1.39l7.34-12.55c.37-.64,.5-1.38,.38-2.11-.12-.73-.49-1.39-1.04-1.87l-5.95-5.25c.39-2.09,.59-4.22,.59-6.35,0-2.04-.19-4.08-.55-6.09l5.9-5.21c.55-.48,.92-1.14,1.04-1.86Zm-11.88,35.89l-6.9-2.33c-.55-.18-1.13-.21-1.69-.09-.56,.12-1.08,.39-1.5,.79-3.24,3.02-7.13,5.27-11.36,6.56-.56,.15-1.06,.45-1.45,.87-.4,.42-.67,.94-.79,1.5l-1.44,7.15h-9.31l-1.5-7.11c-.1-.56-.35-1.07-.73-1.5-.37-.42-.85-.74-1.39-.91-4.25-1.3-8.14-3.56-11.39-6.6-.42-.39-.94-.66-1.5-.79-.56-.12-1.15-.09-1.69,.09l-6.9,2.35-4.63-8.06,5.38-4.76c.44-.38,.76-.88,.93-1.43,.18-.55,.2-1.14,.06-1.7-.54-2.21-.82-4.48-.83-6.75,0-2.2,.26-4.39,.76-6.54,.14-.56,.12-1.14-.06-1.69s-.5-1.03-.94-1.4l-5.33-4.7,4.66-8.06,6.77,2.24c.55,.19,1.14,.22,1.71,.09,.57-.13,1.09-.41,1.51-.81,3.3-3.13,7.28-5.45,11.64-6.77,.54-.18,1.01-.49,1.39-.92,.37-.42,.62-.94,.73-1.49l1.35-6.84h9.31l1.57,6.84c.11,.55,.36,1.07,.73,1.49,.37,.42,.85,.74,1.38,.92,4.35,1.31,8.33,3.63,11.62,6.77,.41,.4,.93,.68,1.5,.81,.56,.13,1.15,.1,1.7-.09l6.6-2.26,4.66,8.06-5.33,4.72c-.44,.37-.76,.86-.94,1.4s-.2,1.13-.06,1.69c.5,2.14,.75,4.34,.76,6.54-.01,2.27-.29,4.54-.83,6.75-.14,.56-.11,1.15,.06,1.7,.18,.55,.5,1.05,.93,1.43l5.44,4.78-4.66,8.06Z"/>
      </g>
    </g>
    <g id="double_stroke" data-name="double stroke">
      <path class="cls-4" d="M12,79.53c.9,42.44,1.64,93.99,2.07,136.53-.02,4.8-.15,10.17,2.1,14.53,26.87,46.47,67.76,84.65,115.57,108.95,5.83,2.73,11.61,6.63,18.26,6.52,6.65,.1,12.43-3.79,18.26-6.52,18.55-9.39,35.99-20.92,52.02-34.16,24.75-20.41,45.9-45.17,62.42-72.68,2.07-3.44,3.18-7.36,3.18-11.39l.04-5.25c.09-6.96,.5-44.77,.61-52.51,.38-23.62,.92-60.62,1.47-84.02,.19,10.53,.69,31.5,.79,42.01,.38,28.36,1.17,71.54,1.33,99.77,.17,5.66-1.85,11.22-4.91,15.93-26.78,45.76-67,83.52-114.26,107.58-6.64,3.25-13.29,7.4-20.95,7.23-7.67,.16-14.31-3.98-20.95-7.24-47.26-24.05-87.47-61.83-114.25-107.58-3.04-4.71-5.1-10.27-4.91-15.93,.45-44.5,1.13-97.35,2.11-141.79h0Z"/>
    </g>
    <g id="highlight">
      <g class="cls-9">
        <path class="cls-4" d="M251.81,61.24l15.7,6.34c6.44,2.6,10.7,8.79,10.84,15.73l.41,20.64c.98,4.37-4.98,6.68-7.2,2.78l-8.74-22.14c-.26-.45-.6-.85-1.01-1.16l-13.02-15.24c-3.22-2.47-.99-7.6,3.02-6.94Z"/>
      </g>
    </g>
    <g id="text">
      <g>
        <path class="cls-7" d="M46.56,232.78h4.97v25.2h-4.97v-25.2Z"/>
        <path class="cls-7" d="M82.7,246.89v11.09h-4.64v-10.76c0-2.16-1.12-3.42-3.02-3.42-2.12,0-3.35,1.44-3.35,4.07v10.11h-4.64v-10.76c0-2.16-1.12-3.42-3.02-3.42-2.05,0-3.38,1.44-3.38,4.07v10.11h-4.64v-18h4.64v1.91c1.08-1.62,2.74-2.41,5-2.41s3.85,.86,4.9,2.59c1.19-1.73,2.99-2.59,5.36-2.59,4.14,0,6.8,2.92,6.8,7.42Z"/>
        <path class="cls-7" d="M103.33,242.25c1.73,1.84,2.59,4.07,2.59,6.73s-.86,4.93-2.59,6.77c-1.69,1.84-3.78,2.74-6.19,2.74s-4.46-.86-5.83-2.63v9.32h-4.64v-25.2h4.64v2.12c1.37-1.76,3.31-2.63,5.83-2.63s4.5,.94,6.19,2.77Zm-7.06,11.81c1.44,0,2.63-.47,3.56-1.4s1.44-2.2,1.44-3.67-.47-2.7-1.44-3.64c-.94-.97-2.12-1.44-3.56-1.44s-2.63,.47-3.56,1.44c-.94,.94-1.4,2.16-1.4,3.64s.47,2.7,1.4,3.67c.94,.94,2.12,1.4,3.56,1.4Z"/>
        <path class="cls-7" d="M109.19,257.98v-26.28h4.64v26.28h-4.64Z"/>
        <path class="cls-7" d="M122.01,250.88c.61,2.27,2.3,3.38,5.08,3.38,1.76,0,3.13-.61,4.03-1.8l3.74,2.16c-1.76,2.56-4.39,3.85-7.85,3.85-2.99,0-5.36-.9-7.16-2.7s-2.7-4.07-2.7-6.8,.9-4.97,2.66-6.77c1.76-1.84,4.07-2.74,6.84-2.74,2.63,0,4.82,.9,6.52,2.74,1.73,1.84,2.59,4.07,2.59,6.77,0,.61-.07,1.22-.18,1.91h-13.57Zm9.11-3.6c-.54-2.45-2.34-3.64-4.46-3.64-2.48,0-4.18,1.33-4.72,3.64h9.18Z"/>
        <path class="cls-7" d="M165.71,246.89v11.09h-4.64v-10.76c0-2.16-1.12-3.42-3.02-3.42-2.12,0-3.35,1.44-3.35,4.07v10.11h-4.64v-10.76c0-2.16-1.12-3.42-3.02-3.42-2.05,0-3.38,1.44-3.38,4.07v10.11h-4.64v-18h4.64v1.91c1.08-1.62,2.74-2.41,5-2.41s3.85,.86,4.9,2.59c1.19-1.73,2.99-2.59,5.36-2.59,4.14,0,6.8,2.92,6.8,7.42Z"/>
        <path class="cls-7" d="M173.6,250.88c.61,2.27,2.3,3.38,5.08,3.38,1.76,0,3.13-.61,4.03-1.8l3.74,2.16c-1.76,2.56-4.39,3.85-7.85,3.85-2.99,0-5.36-.9-7.16-2.7s-2.7-4.07-2.7-6.8,.9-4.97,2.66-6.77c1.76-1.84,4.07-2.74,6.84-2.74,2.63,0,4.82,.9,6.52,2.74,1.73,1.84,2.59,4.07,2.59,6.77,0,.61-.07,1.22-.18,1.91h-13.57Zm9.11-3.6c-.54-2.45-2.34-3.64-4.46-3.64-2.48,0-4.18,1.33-4.72,3.64h9.18Z"/>
        <path class="cls-7" d="M205.46,241.45c1.3,1.33,1.94,3.13,1.94,5.47v11.05h-4.64v-10.47c0-2.41-1.4-3.71-3.56-3.71-2.41,0-3.96,1.48-3.96,4.46v9.72h-4.64v-18h4.64v2.02c1.12-1.69,2.92-2.52,5.36-2.52,1.98,0,3.6,.65,4.86,1.98Z"/>
        <path class="cls-7" d="M221.66,244.44h-4.07v7.49c0,1.94,1.4,1.98,4.07,1.84v4.21c-6.37,.72-8.71-1.12-8.71-6.05v-7.49h-3.13v-4.46h3.13v-3.64l4.64-1.4v5.04h4.07v4.46Z"/>
        <path class="cls-7" d="M228.32,250.88c.61,2.27,2.3,3.38,5.08,3.38,1.76,0,3.13-.61,4.03-1.8l3.74,2.16c-1.76,2.56-4.39,3.85-7.85,3.85-2.99,0-5.36-.9-7.16-2.7s-2.7-4.07-2.7-6.8,.9-4.97,2.66-6.77c1.76-1.84,4.07-2.74,6.84-2.74,2.63,0,4.82,.9,6.52,2.74,1.73,1.84,2.59,4.07,2.59,6.77,0,.61-.07,1.22-.18,1.91h-13.57Zm9.11-3.6c-.54-2.45-2.34-3.64-4.46-3.64-2.48,0-4.18,1.33-4.71,3.64h9.18Z"/>
        <path class="cls-7" d="M249.95,243.07c.86-2.3,3.02-3.46,5.47-3.46v5.18c-1.4-.18-2.7,.11-3.82,.86-1.12,.76-1.66,1.98-1.66,3.71v8.6h-4.64v-18h4.64v3.1Z"/>
      </g>
      <g>
        <path class="cls-4" d="M113.87,56.79c-1.51,0-2.8,.54-3.84,1.38v-1.24h-3.5v13.63h3.64v-8.72c.5-.7,1.76-1.69,3.31-1.69,.55,0,1.05,.04,1.46,.22v-3.5c-.35-.06-.71-.09-1.07-.09"/>
        <path class="cls-4" d="M82.13,66.41c.92,.84,2.35,1.35,3.73,1.35,.98,0,1.74-.48,1.74-1.15,0-2.05-6.58-1.32-6.58-5.71,0-2.61,2.52-4.25,5.21-4.25,1.76,0,3.7,.68,4.59,1.38l-1.71,2.64c-.7-.51-1.62-.93-2.61-.93s-1.85,.39-1.85,1.1c0,1.77,6.58,1.07,6.58,5.79,0,2.62-2.55,4.22-5.41,4.22-1.88,0-3.86-.65-5.46-1.83l1.76-2.62Z"/>
        <path class="cls-4" d="M95.65,62c.17-1.24,1.4-2.39,2.91-2.39s2.58,1.18,2.69,2.39h-5.6Zm9.33,1.63c0-3.8-2.66-6.97-6.41-6.97-4.03,0-6.61,3.32-6.61,7.11,0,4.27,3.05,7.08,7.11,7.08,2.1,0,4.26-.87,5.57-2.45l-2.07-2.08c-.64,.7-1.88,1.57-3.42,1.57-1.93,0-3.47-1.32-3.67-3.23h9.41c.06-.31,.08-.67,.08-1.04"/>
        <polygon class="cls-4" points="123.62 65.26 127.35 56.94 131.13 56.94 124.88 70.57 122.36 70.57 116.11 56.94 119.9 56.94 123.62 65.26"/>
        <path class="cls-4" d="M134.19,50.53c1.32,0,2.38,1.01,2.38,2.33s-1.07,2.33-2.38,2.33-2.38-1.01-2.38-2.33,1.06-2.33,2.38-2.33"/>
        <rect class="cls-4" x="132.37" y="56.94" width="3.64" height="13.63"/>
        <path class="cls-4" d="M151.06,67.79c-1.6,2.14-3.61,3.06-6.16,3.06-4.2,0-7.28-3.15-7.28-7.08s3.17-7.11,7.31-7.11c2.35,0,4.45,1.1,5.71,2.73l-2.58,2.28c-.73-.96-1.82-1.63-3.14-1.63-2.1,0-3.67,1.66-3.67,3.74s1.54,3.71,3.75,3.71c1.48,0,2.66-.9,3.25-1.8l2.8,2.11Z"/>
        <path class="cls-4" d="M160.9,62c-.11-1.21-1.2-2.39-2.69-2.39s-2.75,1.15-2.91,2.39h5.6Zm3.39,6.41c-1.32,1.57-3.47,2.45-5.57,2.45-4.06,0-7.11-2.81-7.11-7.08,0-3.8,2.58-7.11,6.61-7.11,3.75,0,6.41,3.18,6.41,6.97,0,.37-.03,.73-.09,1.04h-9.41c.2,1.91,1.74,3.23,3.67,3.23,1.54,0,2.77-.87,3.42-1.57l2.07,2.08Z"/>
        <path class="cls-4" d="M166.07,70.57v-13.63h3.5v1.1c1.04-.84,2.33-1.38,3.84-1.38,1.88,0,3.59,.84,4.71,2.19,.9,1.07,1.4,2.45,1.4,4.78v6.94h-3.64v-7.22c0-1.35-.31-2.05-.81-2.56-.48-.48-1.2-.76-2.05-.76-1.54,0-2.8,.98-3.31,1.69v8.86h-3.64Z"/>
        <path class="cls-7" d="M188.85,68.61c-2.36,0-3.97-1.77-3.97-3.97s1.61-4,3.97-4,3.97,1.8,3.97,4-1.61,3.97-3.97,3.97m.05-11.95c-4.35-.02-7.95,3.53-7.99,7.9-.02,2.31,.94,4.4,2.49,5.87,.56,.53,1.44,.59,2.05,.11,.9-.7,2.06-1.13,3.4-1.13s2.49,.42,3.4,1.13c.62,.48,1.49,.42,2.06-.12,1.53-1.45,2.48-3.51,2.48-5.79,0-4.38-3.53-7.94-7.89-7.97"/>
        <polygon class="cls-4" points="204 70.57 201.28 70.57 195.88 56.94 199.51 56.94 202.48 64.73 205.38 56.94 208.42 56.94 211.3 64.73 214.3 56.94 217.93 56.94 212.52 70.57 209.81 70.57 206.9 62.81 204 70.57"/>
        <path class="cls-4" d="M217.67,68.8h.37c.14,0,.25-.12,.25-.26s-.11-.27-.25-.27h-.37v.53Zm.31,.23h-.31v.58h-.26v-1.58h.63c.28,0,.51,.23,.51,.51,0,.2-.13,.38-.31,.46l.36,.61h-.28l-.33-.58Z"/>
        <path class="cls-4" d="M217.94,67.15c-.94,0-1.7,.76-1.7,1.7s.76,1.7,1.7,1.7,1.7-.76,1.7-1.7-.76-1.7-1.7-1.7m0,.23c.81,0,1.47,.66,1.47,1.47s-.66,1.46-1.47,1.46-1.46-.66-1.46-1.46,.66-1.47,1.46-1.47"/>
      </g>
    </g>
    <g id="STARS_AND_DIAMONDS" data-name="STARS AND DIAMONDS"/>
  </g>
</svg>