<?xml version="1.0" encoding="utf-8"?>
<!-- Generator: Adobe Illustrator 26.0.3, SVG Export Plug-In . SVG Version: 6.00 Build 0)  -->
<svg version="1.1" id="Layer_1" xmlns="http://www.w3.org/2000/svg" xmlns:xlink="http://www.w3.org/1999/xlink" x="0px" y="0px"
	 viewBox="0 0 269.9 270.5" style="enable-background:new 0 0 269.9 270.5;" xml:space="preserve">
<style type="text/css">
	.st0{fill:#4F1A66;}
	.st1{fill:#E2E3E4;}
	.st2{fill:#797B7D;}
	.st3{fill:#162745;}
	.st4{fill:#FFFFFF;}
</style>
<path class="st0" d="M136.6,265.4c-34.7,0-67.2-13.5-91.7-38C20.4,202.9,4.2,167.6,4.2,133V3.2h129.7c34.7,0,69.9,16.2,94.4,40.7
	c24.5,24.5,38,57.1,38,91.7s-13.5,67.2-38,91.7C203.8,251.9,171.2,265.4,136.6,265.4z"/>
<circle class="st1" cx="136.6" cy="135.7" r="106.3"/>
<path class="st2" d="M88.9,60.4v5.9c0,1.8,1.5,3.3,3.3,3.3H93v3.4h-0.8c-3.7,0-6.7-3-6.7-6.7v-5.9h-2v-2.9h2v-4.2h3.4v4.2h4.2v2.9
	H88.9z M94.7,73.1h3.6v-8.8c0-2.4,1.4-3.9,3.3-3.9s3.2,1.4,3.2,3.8v8.9h3.6v-8.8c0-2.5,1.4-3.9,3.3-3.9c2,0,3.2,1.3,3.2,3.8v8.9h3.6
	v-10c0-3.8-2.1-6-5.5-6c-2.4,0-4,1.1-5.3,2.8c-0.8-1.7-2.4-2.8-4.7-2.8c-2.4,0-3.8,1.3-4.8,2.7v-2.4h-3.6V73.1z M113,57.1
	c-2.4,0-4,1.1-5.3,2.8c-0.8-1.7-2.4-2.8-4.7-2.8c-2.4,0-3.8,1.3-4.8,2.7v-2.4h-3.6v15.6h3.6v-8.8c0-2.4,1.4-3.9,3.3-3.9
	s3.2,1.4,3.2,3.8v8.9h3.6v-8.8c0-2.5,1.4-3.9,3.3-3.9c2,0,3.2,1.3,3.2,3.8v8.9h3.6v-10C118.5,59.3,116.4,57.1,113,57.1"/>
<path class="st3" d="M190.2,63.1v10h-3.6v-8.9c0-2.5-1.2-3.8-3.2-3.8c-2,0-3.3,1.4-3.3,3.9v8.8h-3.6v-8.9c0-2.4-1.2-3.8-3.2-3.8
	c-1.9,0-3.3,1.4-3.3,3.7v9h0h-3.6h0v-2.4c-1,1.5-2.5,2.7-4.9,2.7c-3.5,0-5.6-2.4-5.6-6v-9.9h3.6v8.9c0,2.4,1.2,3.8,3.3,3.8
	c2,0,3.4-1.3,3.5-3.7v-9h0h3.6h0v2.4c1-1.4,2.4-2.7,4.8-2.7c2.3,0,3.8,1.1,4.7,2.8c1.2-1.7,2.9-2.8,5.3-2.8
	C188.1,57.1,190.2,59.3,190.2,63.1z M155,57.5c-2.5,0-4.2,1.6-5.1,3.8v-3.8h-3.6v15.6h3.6v-5.6c0-4.1,2.1-6.1,5.1-6.2V57.5z
	 M132.1,57.5h-6.5v-0.7c0-1.6,0.6-2.4,2-2.4c0.8,0,1.4,0.1,2.1,0.4v-3c-0.8-0.2-1.7-0.4-2.9-0.4c-1.5,0-2.7,0.4-3.5,1.2
	c-0.8,0.8-1.3,2.1-1.3,3.8v1h-5c0.9,0.7,1.6,1.7,2,3h3v12.7h3.6V60.4h3.5C129.9,59.2,130.9,58.2,132.1,57.5z M145.2,65.4
	c0-4.6-3.7-8.3-8.3-8.3c-4.6,0-8.3,3.7-8.3,8.3s3.7,8.3,8.3,8.3C141.5,73.6,145.2,69.9,145.2,65.4z M137,70c-2.6,0-4.7-2.1-4.7-4.7
	c0-2.6,2.1-4.7,4.7-4.7s4.7,2.1,4.7,4.7C141.6,67.9,139.5,70,137,70z M137,57.1c-4.6,0-8.3,3.7-8.3,8.3s3.7,8.3,8.3,8.3
	s8.3-3.7,8.3-8.3S141.5,57.1,137,57.1 M137,70c-2.6,0-4.7-2.1-4.7-4.7c0-2.6,2.1-4.7,4.7-4.7c2.6,0,4.7,2.1,4.7,4.7
	C141.6,67.9,139.5,70,137,70"/>
<g>
	<path class="st0" d="M48.4,122.9h5.3v4.4h-5.3V122.9z M48.5,129.3h5v17.6h-5V129.3z"/>
	<path class="st0" d="M56.6,129.3h5v2.5c1.2-1.5,2.6-2.8,5.2-2.8c3.8,0,6,2.5,6,6.5v11.4h-5v-9.8c0-2.4-1.1-3.6-3-3.6
		c-1.9,0-3.1,1.2-3.1,3.6v9.8h-5V129.3z"/>
	<path class="st0" d="M76.3,133.6h-2.1v-4.1h2.1v-1.1c0-1.9,0.5-3.4,1.4-4.3s2.3-1.4,4-1.4c1.6,0,2.6,0.2,3.6,0.5v4.1
		c-0.7-0.3-1.4-0.4-2.3-0.4c-1.2,0-1.8,0.6-1.8,1.9v0.7h4v4.1h-4v13.4h-5V133.6z"/>
	<path class="st0" d="M85.2,138.2L85.2,138.2c0-5.1,4.1-9.2,9.6-9.2c5.5,0,9.5,4,9.5,9.1v0.1c0,5.1-4.1,9.2-9.6,9.2
		C89.2,147.3,85.2,143.3,85.2,138.2z M99.3,138.2L99.3,138.2c0-2.7-1.9-4.9-4.6-4.9c-2.9,0-4.6,2.2-4.6,4.8v0.1
		c0,2.6,1.9,4.9,4.6,4.9C97.6,143,99.3,140.8,99.3,138.2z"/>
	<path class="st0" d="M106.2,129.3h5v3.6c1-2.4,2.7-4,5.6-3.9v5.2h-0.3c-3.3,0-5.4,2-5.4,6.2v6.5h-5V129.3z"/>
	<path class="st0" d="M118.3,129.3h5v2.5c1.2-1.5,2.7-2.8,5.2-2.8c2.3,0,4,1,5,2.8c1.5-1.8,3.4-2.8,5.8-2.8c3.7,0,6,2.2,6,6.5v11.5
		h-5v-9.8c0-2.4-1.1-3.6-2.9-3.6c-1.9,0-3,1.2-3,3.6v9.8h-5v-9.8c0-2.4-1.1-3.6-2.9-3.6c-1.9,0-3,1.2-3,3.6v9.8h-5V129.3z"/>
	<path class="st0" d="M146.9,141.9L146.9,141.9c0-3.9,2.9-5.7,7.1-5.7c1.8,0,3.1,0.3,4.3,0.7v-0.3c0-2.1-1.3-3.2-3.8-3.2
		c-1.9,0-3.3,0.4-4.9,1l-1.3-3.8c1.9-0.9,3.8-1.4,6.8-1.4c2.7,0,4.7,0.7,6,2c1.3,1.3,1.9,3.3,1.9,5.6v10.2h-4.8V145
		c-1.2,1.3-2.9,2.2-5.3,2.2C149.6,147.3,146.9,145.4,146.9,141.9z M158.4,140.7v-0.9c-0.9-0.4-2-0.7-3.2-0.7c-2.1,0-3.5,0.9-3.5,2.4
		v0.1c0,1.3,1.1,2.1,2.7,2.1C156.8,143.8,158.4,142.5,158.4,140.7z"/>
	<path class="st0" d="M166.4,141.9v-8.4h-2.1v-4.3h2.1v-4.5h5v4.5h4.1v4.3h-4.1v7.5c0,1.2,0.5,1.7,1.6,1.7c0.9,0,1.7-0.2,2.5-0.6v4
		c-1.1,0.6-2.3,1-3.9,1C168.5,147.2,166.4,146,166.4,141.9z"/>
	<path class="st0" d="M177.7,122.9h5.3v4.4h-5.3V122.9z M177.8,129.3h5v17.6h-5V129.3z"/>
	<path class="st0" d="M185,138.2L185,138.2c0-5.1,4.1-9.2,9.6-9.2c5.5,0,9.5,4,9.5,9.1v0.1c0,5.1-4.1,9.2-9.6,9.2
		C189.1,147.3,185,143.3,185,138.2z M199.2,138.2L199.2,138.2c0-2.7-1.9-4.9-4.6-4.9c-2.9,0-4.6,2.2-4.6,4.8v0.1
		c0,2.6,1.9,4.9,4.6,4.9C197.5,143,199.2,140.8,199.2,138.2z"/>
	<path class="st0" d="M206.1,129.3h5v2.5c1.2-1.5,2.6-2.8,5.2-2.8c3.8,0,6,2.5,6,6.5v11.4h-5v-9.8c0-2.4-1.1-3.6-3-3.6
		c-1.9,0-3.1,1.2-3.1,3.6v9.8h-5V129.3z"/>
	<path class="st0" d="M55.8,161.6h-2.1v-4.1h2.1v-1.1c0-1.9,0.5-3.4,1.4-4.3s2.3-1.4,4-1.4c1.6,0,2.6,0.2,3.6,0.5v4.1
		c-0.7-0.3-1.4-0.4-2.3-0.4c-1.2,0-1.8,0.6-1.8,1.9v0.7h4v4.1h-4v13.4h-5V161.6z"/>
	<path class="st0" d="M65.9,157.3h5v3.6c1-2.4,2.7-4,5.6-3.9v5.2h-0.3c-3.3,0-5.4,2-5.4,6.2v6.5h-5V157.3z"/>
	<path class="st0" d="M76.1,169.9L76.1,169.9c0-3.9,2.9-5.7,7.1-5.7c1.8,0,3.1,0.3,4.3,0.7v-0.3c0-2.1-1.3-3.2-3.8-3.2
		c-1.9,0-3.3,0.4-4.9,1l-1.2-3.8c1.9-0.9,3.8-1.4,6.8-1.4c2.7,0,4.7,0.7,6,2c1.3,1.3,1.9,3.3,1.9,5.6v10.2h-4.8V173
		c-1.2,1.3-2.9,2.2-5.3,2.2C78.8,175.3,76.1,173.4,76.1,169.9z M87.6,168.7v-0.9c-0.9-0.4-2-0.7-3.2-0.7c-2.1,0-3.5,0.9-3.5,2.4v0.1
		c0,1.3,1.1,2.1,2.7,2.1C86,171.8,87.6,170.5,87.6,168.7z"/>
	<path class="st0" d="M95,157.3h5v2.5c1.2-1.5,2.7-2.8,5.2-2.8c2.3,0,4,1,5,2.8c1.5-1.8,3.4-2.8,5.8-2.8c3.7,0,6,2.2,6,6.5v11.5h-5
		v-9.8c0-2.4-1.1-3.6-2.9-3.6c-1.9,0-3,1.2-3,3.6v9.8h-5v-9.8c0-2.4-1.1-3.6-2.9-3.6c-1.9,0-3,1.2-3,3.6v9.8h-5V157.3z"/>
	<path class="st0" d="M123.7,166.2L123.7,166.2c0-5.1,3.6-9.2,8.7-9.2c5.9,0,8.6,4.6,8.6,9.6c0,0.4,0,0.9-0.1,1.3h-12.3
		c0.5,2.3,2.1,3.5,4.3,3.5c1.7,0,2.9-0.5,4.3-1.8l2.9,2.5c-1.6,2-4,3.3-7.2,3.3C127.6,175.3,123.7,171.6,123.7,166.2z M136.2,164.7
		c-0.3-2.2-1.6-3.8-3.7-3.8c-2.1,0-3.4,1.5-3.8,3.8H136.2z"/>
	<path class="st0" d="M140.8,157.3h5.1l2.8,10.7l3.3-10.8h4.3l3.4,10.8l2.9-10.7h5l-5.5,17.8h-4.5l-3.4-10.8l-3.5,10.8h-4.5
		L140.8,157.3z"/>
	<path class="st0" d="M167.3,166.2L167.3,166.2c0-5.1,4.1-9.2,9.6-9.2c5.5,0,9.5,4,9.5,9.1v0.1c0,5.1-4.1,9.2-9.6,9.2
		C171.3,175.3,167.3,171.3,167.3,166.2z M181.4,166.2L181.4,166.2c0-2.7-1.9-4.9-4.6-4.9c-2.9,0-4.6,2.2-4.6,4.8v0.1
		c0,2.6,1.9,4.9,4.6,4.9C179.7,171,181.4,168.8,181.4,166.2z"/>
	<path class="st0" d="M188.3,157.3h5v3.6c1-2.4,2.7-4,5.6-3.9v5.2h-0.3c-3.3,0-5.4,2-5.4,6.2v6.5h-5V157.3z"/>
	<path class="st0" d="M200.4,150.9h5v12.8l5.9-6.4h6l-6.7,6.9l6.9,10.7h-5.8l-4.5-7.2l-1.8,1.9v5.4h-5V150.9z"/>
</g>
<polygon class="st4" points="17.8,26.6 36.1,44 64,16.2 36.1,30.5 "/>
<g>
	<path class="st3" d="M85.6,91.7l1.2-1.8c1,0.7,2.1,1.1,3,1.1c0.8,0,1.1-0.3,1.1-0.7v0c0-0.6-0.9-0.8-2-1.1c-1.3-0.4-2.9-1-2.9-2.9
		v0c0-1.9,1.6-3,3.5-3c1.2,0,2.5,0.4,3.6,1.1l-1,1.9c-0.9-0.6-1.9-0.9-2.6-0.9c-0.7,0-1,0.3-1,0.7v0c0,0.5,0.9,0.8,1.9,1.1
		c1.3,0.4,2.9,1.1,2.9,2.8v0c0,2.1-1.6,3.1-3.7,3.1C88.4,93.2,86.9,92.7,85.6,91.7z"/>
	<path class="st3" d="M94.4,80h2.7v6.9l3.2-3.5h3.2l-3.6,3.8l3.8,5.8h-3.1l-2.4-3.9l-1,1V93h-2.7V80z"/>
	<path class="st3" d="M104.1,80h2.9v2.4h-2.9V80z M104.2,83.4h2.7V93h-2.7V83.4z"/>
	<path class="st3" d="M108.7,80h2.7v13h-2.7V80z"/>
	<path class="st3" d="M113.2,80h2.7v13h-2.7V80z"/>
	<path class="st3" d="M121.5,88.3L121.5,88.3c0-2.8,2.1-5,5-5c1.8,0,2.9,0.6,3.8,1.6l-1.7,1.8c-0.6-0.6-1.2-1.1-2.2-1.1
		c-1.4,0-2.3,1.2-2.3,2.6v0c0,1.5,0.9,2.6,2.4,2.6c0.9,0,1.5-0.4,2.2-1l1.6,1.6c-0.9,1-2,1.7-3.9,1.7
		C123.7,93.2,121.5,91,121.5,88.3z"/>
	<path class="st3" d="M130.6,88.3L130.6,88.3c0-2.8,1.9-5,4.7-5c3.2,0,4.7,2.5,4.7,5.2c0,0.2,0,0.5,0,0.7h-6.6
		c0.3,1.2,1.1,1.9,2.3,1.9c0.9,0,1.6-0.3,2.3-1l1.5,1.4c-0.9,1.1-2.2,1.8-3.9,1.8C132.7,93.2,130.6,91.2,130.6,88.3z M137.3,87.5
		c-0.2-1.2-0.9-2-2-2c-1.1,0-1.9,0.8-2.1,2H137.3z"/>
	<path class="st3" d="M141.1,83.4h2.7v1.9c0.6-1.3,1.4-2.2,3-2.1v2.8h-0.1c-1.8,0-2.9,1.1-2.9,3.4V93h-2.7V83.4z"/>
	<path class="st3" d="M148.1,90.3v-4.5h-1.1v-2.3h1.1V81h2.7v2.4h2.2v2.3h-2.2v4.1c0,0.6,0.3,0.9,0.9,0.9c0.5,0,0.9-0.1,1.3-0.3v2.2
		c-0.6,0.3-1.2,0.6-2.1,0.6C149.2,93.2,148.1,92.5,148.1,90.3z"/>
	<path class="st3" d="M154.2,80h2.9v2.4h-2.9V80z M154.3,83.4h2.7V93h-2.7V83.4z"/>
	<path class="st3" d="M159.1,85.8H158v-2.2h1.1v-0.6c0-1.1,0.3-1.8,0.8-2.3s1.2-0.7,2.2-0.7c0.9,0,1.4,0.1,1.9,0.3v2.2
		c-0.4-0.1-0.8-0.2-1.2-0.2c-0.6,0-1,0.3-1,1v0.4h2.2v2.2h-2.2V93h-2.7V85.8z M165.5,80h2.9v2.4h-2.9V80z M165.6,83.4h2.7V93h-2.7
		V83.4z"/>
	<path class="st3" d="M169.5,88.3L169.5,88.3c0-2.8,1.9-5,4.7-5c3.2,0,4.7,2.5,4.7,5.2c0,0.2,0,0.5,0,0.7h-6.6
		c0.3,1.2,1.1,1.9,2.3,1.9c0.9,0,1.6-0.3,2.3-1l1.6,1.4c-0.9,1.1-2.2,1.8-3.9,1.8C171.6,93.2,169.5,91.2,169.5,88.3z M176.2,87.5
		c-0.2-1.2-0.9-2-2-2c-1.1,0-1.9,0.8-2.1,2H176.2z"/>
	<path class="st3" d="M179.5,88.2L179.5,88.2c0-3.2,2.1-5,4.3-5c1.4,0,2.3,0.7,3,1.4V80h2.7v13h-2.7v-1.4c-0.7,0.9-1.6,1.5-3,1.5
		C181.6,93.2,179.5,91.4,179.5,88.2z M186.9,88.2L186.9,88.2c0-1.6-1.1-2.7-2.3-2.7s-2.3,1-2.3,2.6v0c0,1.6,1.1,2.6,2.3,2.6
		S186.9,89.8,186.9,88.2z"/>
</g>
</svg>
