<svg width="141" height="47" viewBox="0 0 141 47" fill="none" xmlns="http://www.w3.org/2000/svg">
<g clip-path="url(#clip0)">
<path d="M32.6505 24.6347C32.5925 18.7683 37.6143 15.9497 37.8402 15.8155C35.0136 11.8281 30.6232 11.2801 29.0594 11.2185C25.3235 10.8494 21.7672 13.3437 19.8674 13.3437C17.9676 13.3437 15.0426 11.2689 11.9438 11.3304C7.86621 11.3863 4.10716 13.6177 2.00464 17.1409C-2.22357 24.2209 0.927313 34.7346 5.05706 40.4892C7.07849 43.3021 9.4764 46.473 12.6389 46.3556C15.6855 46.2382 16.8323 44.4542 20.5045 44.4542C24.1767 44.4542 25.2134 46.3556 28.428 46.2997C31.7006 46.2382 33.7741 43.4252 35.7782 40.601C38.0834 37.3295 39.0391 34.1698 39.097 34.002C39.0217 33.974 32.72 31.642 32.6505 24.6347Z" fill="black"/>
<path d="M26.6098 7.40433C28.2894 5.4414 29.4189 2.71791 29.1119 0C26.6966 0.0950708 23.7716 1.55469 22.0398 3.51762C20.4875 5.25126 19.1264 8.02509 19.4971 10.6871C22.1788 10.8884 24.9358 9.36167 26.6098 7.40433ZM53.8325 30.4003L51.0523 38.5372H47.4786L56.5779 12.678H60.7482L69.8823 38.5372H66.1869L63.3257 30.4003H53.8325ZM62.6132 27.7886L59.9952 20.3451C59.3986 18.6562 59.0048 17.1239 58.6051 15.6252H58.5298C58.1302 17.1575 57.6958 18.7289 57.1803 20.306L54.5623 27.783L62.6132 27.7886ZM72.593 26.027C72.593 23.6503 72.5177 21.7265 72.4308 19.9649H75.5701L75.7323 23.1525H75.8076C77.2382 20.8876 79.5029 19.5454 82.6422 19.5454C87.2932 19.5454 90.7858 23.3427 90.7858 28.9854C90.7858 35.6627 86.575 38.9566 82.0456 38.9566C79.5029 38.9566 77.2787 37.8829 76.1261 36.043H76.0508V46.1317H72.593V26.027ZM76.045 30.9763C76.045 31.4796 76.1203 31.9326 76.2072 32.3576C76.8443 34.6952 78.9469 36.3114 81.4548 36.3114C85.1502 36.3114 87.299 33.3978 87.299 29.1364C87.299 25.4119 85.2718 22.2354 81.5765 22.2354C79.1959 22.2354 76.9718 23.8851 76.2883 26.4185C76.1667 26.8379 76.0508 27.3412 76.0508 27.7998L76.045 30.9763ZM94.4001 26.027C94.4001 23.6503 94.3248 21.7265 94.2379 19.9649H97.3772L97.5394 23.1525H97.6147C99.0453 20.8876 101.31 19.5454 104.449 19.5454C109.1 19.5454 112.593 23.3427 112.593 28.9854C112.593 35.6627 108.382 38.9566 103.853 38.9566C101.31 38.9566 99.0859 37.8829 97.9333 36.043H97.858V46.1317H94.4001V26.027ZM97.858 30.9763C97.858 31.4796 97.9333 31.9326 98.0201 32.3576C98.6573 34.6952 100.76 36.3114 103.268 36.3114C106.963 36.3114 109.112 33.3978 109.112 29.1364C109.112 25.4119 107.085 22.2354 103.389 22.2354C101.009 22.2354 98.7847 23.8851 98.1012 26.4185C97.9796 26.8379 97.8637 27.3412 97.8637 27.7998L97.858 30.9763ZM116.213 11.2966H119.711V38.5316H116.213V11.2966ZM126.743 29.8634C126.818 34.4268 129.842 36.3114 133.334 36.3114C135.837 36.3114 137.348 35.892 138.657 35.3551L139.254 37.7711C138.026 38.3079 135.918 38.9231 132.859 38.9231C126.94 38.9231 123.401 35.165 123.401 29.5614C123.401 23.9578 126.818 19.5454 132.419 19.5454C138.698 19.5454 140.366 24.875 140.366 28.2919C140.366 28.9854 140.291 29.5167 140.244 29.8634H126.743ZM136.995 27.4475C137.035 25.3 136.08 21.9613 132.147 21.9613C128.608 21.9613 127.062 25.1099 126.784 27.4475H136.995Z" fill="black"/>
</g>
<defs>
<clipPath id="clip0">
<rect width="140.371" height="46.361" fill="white"/>
</clipPath>
</defs>
</svg>
