<svg width="109" height="29" viewBox="0 0 109 29" fill="none" xmlns="http://www.w3.org/2000/svg">
<path d="M32.7837 3.3898C32.4052 5.87921 31.6481 11.9177 33.2704 17.9031C33.5949 18.6974 34.406 18.4856 34.7305 18.1148C34.8387 17.956 35.92 16.9496 35.92 16.9496C36.2986 16.4197 36.6771 16.5786 36.9474 16.9496C37.2178 17.3205 37.9748 18.4856 39.1104 18.5385C40.2458 18.5914 42.0302 17.2673 42.733 16.7374C43.2197 17.6381 43.8144 18.4856 44.7878 18.4324C45.7612 18.3795 46.6802 17.691 47.4915 16.8434C48.0863 17.5321 48.7352 18.2735 49.4922 18.2206C50.2491 18.1677 51.6552 17.3731 53.0069 16.1547C53.5476 15.5722 54.1425 15.837 54.5208 16.4196C54.8992 17.0021 55.44 17.9556 56.1431 17.9556C56.8459 17.9556 57.8731 17.0021 58.1975 16.7373C58.522 16.4728 58.8463 16.2607 59.225 16.6844L60.0361 17.4258C60.5228 17.9027 61.5502 17.7968 62.307 17.1081C63.0641 16.4194 63.2262 16.2078 63.5506 16.2078C63.8751 16.2078 64.0373 16.6315 64.3616 16.9492C64.6861 17.2669 67.1734 19.3857 70.4719 16.1017C70.5259 17.7439 70.1474 26.9599 70.1474 28.2844C70.1474 28.9198 70.9043 29.1319 71.986 28.9198C73.0672 28.7081 73.6081 28.39 73.5539 26.8543C73.4997 25.3182 73.2836 17.7439 73.2836 17.7439C73.4459 16.5255 74.5271 14.5127 75.6627 14.4598C76.7983 14.4067 76.2574 15.7839 75.7169 15.7839C75.1763 15.7839 74.5813 16.0488 74.5813 16.5253C74.5813 17.0019 74.7437 18.3791 77.934 18.3791C81.1241 18.3791 81.5025 17.3727 82.3679 17.0019C82.9086 18.0083 84.5306 19.5976 89.0185 16.7902C89.9377 17.8493 91.6682 19.1738 93.5606 17.8493C94.1553 17.3727 94.7502 16.2603 94.5338 15.3068C94.3716 14.9362 94.4796 14.7774 94.7502 14.7774H96.5346C96.9131 14.7774 97.562 15.0422 97.7781 16.1015C97.9945 17.161 98.7513 18.0614 99.3462 18.0082C99.9407 17.9553 101.076 17.055 101.725 16.4192C102.266 17.161 104.591 20.6039 108.863 14.8302C109.241 14.3006 108.647 14.0358 108.322 14.4066C107.998 14.7774 107.024 15.3601 106.213 15.4128C105.402 15.466 104.429 14.6714 103.672 13.665C102.915 12.6586 102.05 13.0292 101.509 13.8238C101.13 14.2475 100.914 14.6712 100.482 15.1478C100.211 14.6712 99.8869 13.665 99.3462 13.2942C98.8053 12.9234 98.3728 12.8705 97.0751 13.1882C95.7774 13.5059 94.3175 13.665 92.8576 13.7179C92.0465 13.665 92.2629 14.0358 92.3169 14.3535C92.3709 14.6714 92.9656 15.9953 91.8843 16.0486C90.803 16.1015 90.911 14.5125 91.668 13.665C92.0465 13.2942 91.5057 12.4995 90.911 12.8174C90.3163 13.1353 89.9378 13.2942 89.4511 14.0356C88.9645 14.7772 87.937 15.8896 86.2607 15.9424C84.5845 15.9953 85.0712 14.0887 85.1252 13.2411C85.1252 12.7644 84.8008 12.3407 83.9356 12.5526C83.0704 12.7645 81.9348 12.6586 82.0432 14.9889C81.4485 15.8365 80.0966 16.3661 79.015 16.2073C78.6907 16.154 78.5825 15.9952 78.6907 15.6247C78.7989 15.2538 79.0692 13.1882 77.4471 12.6584C75.8249 12.1287 74.5811 12.8703 73.7701 13.5588C73.3376 13.7708 73.2294 13.5588 73.2294 13.188L73.2834 11.2283C73.2834 10.3278 71.445 10.1159 71.1746 11.1752C70.9043 12.2345 70.5799 14.3004 68.9579 15.042C67.3356 15.7834 66.7949 14.8299 65.9297 13.7706C65.0645 12.7113 64.1994 12.7642 63.2261 13.7177L62.2527 14.6181C61.8742 14.9359 61.658 14.8299 61.3336 14.3531C61.0091 13.8766 60.7928 13.2408 60.1981 13.1879C59.6034 13.135 59.495 13.3467 59.0625 13.6646L57.819 14.6181C57.3324 14.9888 57.2243 14.9888 56.7378 14.3531C56.7378 14.3531 55.9265 13.029 55.1157 13.029C54.3045 13.029 54.0341 13.5058 53.5476 13.8766C53.5476 13.8766 52.3039 14.7241 51.8713 15.0947C51.4388 15.4657 50.1951 16.2071 49.0055 14.4591C48.573 13.8235 47.816 13.3467 47.2753 14.2472C46.7346 15.1474 45.8696 16.5247 45.2207 16.101C44.5718 15.6773 45.6532 14.4591 46.4642 14.353C47.2753 14.2472 46.7888 13.2406 45.9776 13.1877C45.1663 13.1348 43.8688 13.6645 43.2739 14.353C42.6792 15.0417 41.7058 15.836 40.7326 15.7832C39.7594 15.73 39.5431 14.9886 39.0564 13.9824C38.5697 12.9759 37.7046 13.0819 37.0558 13.6116C36.4069 14.1412 36.2446 14.3001 35.758 14.8826C35.2714 15.4655 35.2714 15.1474 35.2174 14.777C35.1632 14.4062 34.8388 7.57327 35.3797 3.177C35.5953 2.06567 33.2702 1.69488 32.7837 3.3898Z" fill="black"/>
<path d="M83.9352 11.553C84.8643 11.553 85.6174 10.8152 85.6174 9.90508C85.6174 8.99492 84.8643 8.25715 83.9352 8.25715C83.006 8.25715 82.2529 8.99492 82.2529 9.90508C82.2529 10.8152 83.006 11.553 83.9352 11.553ZM30.0796 13.242C29.8635 13.4011 23.7533 15.4135 20.4008 15.6256V3.33696C22.3474 3.38985 26.0243 4.18451 28.3494 5.03188C28.8901 5.29671 30.0256 4.97899 28.8361 3.81371C26.0783 1.64203 21.7525 0 16.0209 0C10.2893 0 0.015625 3.1252 0.015625 9.48121C0.015625 15.8372 8.23454 19.0155 16.0749 19.0155C21.5904 19.0155 26.7271 17.0556 30.4582 13.5598C31.053 12.9772 30.2958 13.0832 30.0796 13.242ZM11.5322 15.6165C6.86492 14.6747 3.5565 12.3066 3.5565 9.53428C3.5565 6.76305 6.86758 4.39574 11.5322 3.45333V15.6165ZM106.453 11.651C106.017 11.651 105.663 11.9869 105.663 12.3971C105.663 12.8159 106.017 13.1518 106.453 13.1518C106.887 13.1518 107.239 12.8159 107.239 12.3971C107.239 11.9867 106.887 11.651 106.453 11.651ZM106.453 13.0051C106.097 13.0051 105.813 12.7394 105.813 12.3971C105.813 12.0655 106.097 11.7975 106.453 11.7975C106.804 11.7975 107.089 12.0653 107.089 12.3971C107.089 12.7394 106.805 13.0051 106.453 13.0051Z" fill="black"/>
<path d="M106.857 12.2015C106.857 12.1312 106.824 12.057 106.759 12.0208C106.692 11.9847 106.618 11.9803 106.544 11.9803H106.16V12.8201H106.29V12.4332H106.444L106.696 12.8201H106.846L106.579 12.4332C106.735 12.429 106.857 12.3674 106.857 12.2015ZM106.434 12.3289H106.29V12.0761H106.518C106.629 12.0761 106.727 12.091 106.727 12.1992C106.727 12.3503 106.557 12.3289 106.434 12.3289Z" fill="black"/>
</svg>
