<svg width="167" height="55" viewBox="0 0 167 55" fill="none" xmlns="http://www.w3.org/2000/svg">
<g clip-path="url(#clip0)">
<path d="M64.1297 47.9703C57.9156 43.946 49.4823 43.2398 35.8819 47.0333C21.3827 50.4586 16.5485 52.6543 10.1998 48.2465C7.76075 46.0811 6.88629 42.5947 7.53926 37.5728C9.05374 29.3862 13.1465 21.5078 20.4164 12.7688C24.4741 8.22287 28.2383 4.32158 33.2084 2.75498C37.0177 1.77221 36.6616 4.7818 36.2006 5.21222C35.7142 5.21222 34.8972 5.28924 34.2657 5.70351C33.7532 6.10308 32.3465 7.3933 32.2709 9.12883C32.1619 11.7857 34.8968 11.2327 36.0764 9.77394C37.3479 8.13011 39.2271 4.98222 37.7489 2.04838C37.1294 1.00412 36.0589 0.282412 34.7298 0.0366668C30.1786 -0.224818 25.9402 1.95625 22.0282 4.36754C13.4732 10.342 6.62974 18.6206 2.75743 27.6823C0.525054 33.1498 -1.49398 40.9817 1.53227 47.3562C3.87361 51.7792 8.73394 54.1286 14.5328 53.6373C18.5999 53.2077 23.5178 51.8863 26.8255 51.0884C30.1333 50.289 47.0646 44.4381 52.6278 54.6216C52.6278 54.6216 54.4777 51.0114 59.1009 50.9343C62.9018 50.5818 68.3853 52.0405 72.3783 54.9888C71.0479 52.9775 67.2762 50.0133 64.1297 47.9703Z" fill="black"/>
<path d="M37.6078 13.7958C34.4411 11.707 28.0763 15.7002 22.9784 22.5498C18.3166 28.6939 16.3036 35.8348 18.4944 39.1369C21.753 43.0225 27.8028 37.3708 30.3754 34.3456L30.7074 33.992C32.4569 32.1029 33.8083 29.8297 35.1168 27.6484C35.1168 27.6484 36.3192 25.6518 36.3766 25.5594C37.1197 25.4218 38.0149 25.2067 39.0235 24.9147C39.0091 24.9605 35.1644 31.4573 35.5566 34.682C35.6787 35.6659 35.5856 39.2597 39.0757 40.3499C43.7275 41.1337 47.442 37.5086 50.719 34.2833C50.719 34.2833 51.2774 33.7463 51.5932 33.4397C51.5133 33.7612 51.4091 34.1903 51.4091 34.1903C50.0472 38.9516 51.883 39.9508 53.0313 40.3193C56.5018 41.3337 60.6477 36.265 60.6613 36.265C60.5536 37.8616 60.2394 39.1823 61.9136 40.2423C63.4936 40.811 65.0929 39.9438 66.3086 39.1298C70.6872 36.0276 74.2146 31.1719 77.0636 26.9749H75.2463C75.2248 26.9749 70.7619 33.4781 67.8638 34.8915C67.8592 34.8915 67.3317 35.1637 67.028 34.9483C66.6516 34.6258 66.8 33.9549 67.0324 33.4797C67.047 33.4489 78.2222 13.9636 78.2222 13.9636H72.9458C72.9458 13.9636 72.3695 14.9011 72.3225 14.9626C72.287 14.9319 72.2025 14.7708 72.144 14.6935C68.875 10.1476 61.4721 17.1401 55.8987 25.2491C53.7529 28.3671 51.021 31.8779 48.1883 34.4119C48.1883 34.4119 43.9916 38.2792 42.1986 35.5007C41.5431 34.3332 41.7448 32.6265 42.1145 31.5056C44.2022 25.5309 47.7996 20.1088 51.8934 16.8373C53.0488 15.9317 54.3051 15.6698 54.9282 16.0539C55.5223 16.4077 55.6181 17.2824 55.2424 17.8815C54.289 17.8509 53.525 18.1422 52.9042 18.7873C51.6809 20.0775 51.2559 21.3217 51.6448 22.4892C53.5342 25.1922 57.3023 19.8473 57.1201 16.5913C57.0549 15.4239 56.4356 14.3183 55.5108 13.7802C54.1329 12.9513 52.0308 13.166 50.6703 13.8268C48.849 14.5177 45.9664 16.9288 44.2836 18.8028C42.1652 21.153 38.5319 23.7637 37.3959 23.4713C37.7673 22.4728 40.8361 16.1607 37.6078 13.7958ZM63.0463 23.1337C64.0727 21.7056 67.0601 17.8811 67.7885 17.2362C70.2379 15.0698 71.217 16.023 71.3017 16.6983C69.0157 20.8143 66.3176 25.5296 63.7809 29.7688C63.7861 29.7537 62.987 30.982 62.987 30.982C61.8666 32.7016 60.7385 34.1763 58.8984 35.205C58.636 35.2824 58.2035 35.3133 57.9156 35.0973C57.5691 34.8669 57.4324 34.4829 57.4714 34.0835C57.5818 32.7631 58.9191 28.7245 63.0463 23.1337ZM34.3421 25.6062C34.3421 25.6062 34.296 25.745 34.2734 25.7903C34.2676 25.7903 31.9728 29.5526 31.9728 29.5526C30.588 31.4114 28.8589 33.7465 26.6975 34.8671C26.0568 35.082 25.1711 35.2207 24.7198 34.6529C23.7631 33.5007 24.2561 31.9033 24.6567 30.6135L24.7987 30.1526C25.9472 27.0198 27.7694 24.2547 29.5434 21.6898C29.5655 21.6747 29.6152 21.6594 29.6331 21.6594C29.6375 21.6747 29.6446 21.6747 29.6475 21.7056C30.7606 23.8554 32.8477 24.8533 34.4085 25.3147C34.4179 25.3147 34.4281 25.3301 34.4281 25.3609C34.4283 25.4067 34.4029 25.4686 34.3421 25.6062ZM36.516 21.1681C36.5058 21.1988 35.494 23.5332 35.494 23.5332C35.3477 23.656 35.1164 23.5947 34.8513 23.5332L34.397 23.456C32.9706 23.0109 31.8947 22.0586 31.563 20.9222C31.1057 18.7105 32.985 16.9749 33.8129 16.3456C34.6074 15.7922 35.8426 15.5004 36.5599 16.069C37.0022 16.5913 37.1698 17.2668 37.1698 18.0045C37.17 19.0024 36.8636 20.1234 36.516 21.1681ZM103.22 28.2939C102.711 27.1884 101.503 26.4818 100.216 26.5584C96.0365 26.9426 91.9481 30.3982 89.8014 35.3586C88.6749 37.9084 88.0602 40.0123 87.6571 43.3604C88.957 41.8557 91.6081 39.3831 94.6166 38.0314C94.6166 38.0314 95.026 34.8216 97.1134 31.9648C97.9034 30.7818 99.484 28.8775 101.259 29.3841C102.81 29.9065 102.265 34.2224 100.204 38.3991C98.6784 41.4712 96.3446 44.5437 93.9832 46.6627C91.8955 48.4442 88.8067 50.5944 86.1042 48.9359C84.402 47.9227 83.5338 45.8025 83.7171 43.0689C84.5304 35.3131 88.0424 28.7088 93.0681 21.1832C98.2501 14.1951 103.962 7.02275 111.657 3.19785C113.227 2.39934 114.681 2.21508 115.937 2.70657C115.937 2.70657 108.713 6.69978 105.27 14.0875C104.394 15.9615 103.176 18.4949 104.403 20.7375C105.044 21.9045 106.182 21.9969 107.099 21.9354C111.319 20.9522 114.046 16.9898 116.274 13.3655C117.566 10.6164 118.714 7.88255 118.714 4.84147C118.714 4.47296 118.695 3.98168 118.664 3.61275C120.68 2.53806 124.816 4.44211 124.816 4.44211C128.047 5.51764 134.927 10.8166 137.248 11.8298C138.38 10.5091 140.24 8.51276 141.288 7.51424L139.772 6.57722C137.344 5.08743 134.778 3.67424 132.252 2.27678C126.516 -0.871323 121.846 0.234218 119.47 1.09443C118.536 1.4321 117.683 1.72401 117.683 1.72401C115.919 -0.211104 113.027 -0.0272673 110.896 0.495283C103.232 2.70678 96.116 8.09745 88.4873 17.4511C82.8786 24.7773 79.3995 31.1052 77.5452 37.3559C76.1159 41.564 75.6815 47.7533 79.1701 51.4242C82.1363 54.5412 86.0693 53.8659 88.8465 52.7453C94.8642 49.7657 100.273 43.3455 102.968 35.9578C103.618 33.7618 104.34 30.6594 103.22 28.2939ZM117.057 5.14892C116.261 14.3334 109.159 19.7247 107.402 20.1541C106.337 20.3688 104.52 19.893 106.143 16.0385C108.531 10.8468 112.609 6.43934 116.985 4.18147C117.091 4.56551 117.089 4.81062 117.057 5.14892ZM159.183 6.31574C155.363 8.49702 151.403 9.90958 146.61 9.4183C145.281 10.9238 143.988 12.4749 142.795 14.0719C149.523 15.7922 156.656 11.9679 160.634 8.32829C164.842 4.65743 166.999 0.0348511 166.999 0.0348511C166.999 0.0348511 163.845 3.65913 159.183 6.31574ZM86.9916 13.9641H81.9807L79.1543 18.581H84.1641L86.9916 13.9641Z" fill="black"/>
<path d="M146.59 48.3957C146.051 48.7642 145.294 48.4809 145.577 47.6364C146.282 45.4862 149.085 41.1044 149.085 41.1044L156.891 27.1852H151.544C151.29 27.6049 150.747 28.5686 150.747 28.5686C150.499 28.1543 149.759 27.2333 149.455 27.0341C148.149 26.2041 146.232 26.5965 144.91 27.3489C139.161 30.7283 134.967 37.4049 131.659 42.6118C131.659 42.6118 128.176 48.3997 126.244 48.8301C124.735 48.9531 124.89 46.9095 124.956 46.4333C125.539 42.9925 126.894 39.7214 128.259 36.7571C131.036 34.822 134.204 32.2879 137.084 29.5081C143.334 23.5024 148.602 16.6985 149.372 15.1781C149.372 15.1781 148.539 15.3472 147.555 15.3777C142.747 22.12 132.908 31.9192 129.925 33.378C131.246 30.1826 139.784 14.9321 147.049 7.63699L148.192 6.53082C149.96 4.79528 151.792 3.01378 153.219 2.72187C153.37 2.70655 153.564 2.72187 153.732 3.07569C153.795 4.42698 153.295 5.42549 152.721 6.56188L151.916 8.22082C151.916 8.22082 153.056 8.00571 153.804 7.75934C154.673 6.11677 155.635 4.27315 155.28 2.07739C155.162 1.37079 154.653 0.83334 153.988 0.710362C151.821 0.29568 149.459 1.90782 147.558 3.21378L147.482 3.25953C137.712 10.9542 129.462 22.0432 122.249 37.1869C121.727 37.5856 119.707 38.0622 119.364 37.8316C120.076 36.3575 120.973 34.3758 121.421 32.2256C121.499 31.6109 121.571 30.9818 121.571 30.3675C121.571 29.0456 121.256 27.802 120.078 26.9424C118.697 26.2511 116.99 26.5739 115.839 27.0956C110.683 29.2458 106.83 34.5603 104.049 38.9369C102.554 41.7176 101.063 44.6957 100.65 48.1059C100.359 50.7778 100.951 52.4983 102.462 53.3585C104.016 54.1566 105.972 53.327 106.741 52.9281C111.964 50.1634 115.613 44.6193 118.49 39.5508C118.604 39.5357 120.175 39.4899 121.363 39.1823C121.379 39.1823 121.386 39.1822 121.412 39.1982C121.344 39.4278 120.73 41.2714 120.73 41.2714C118.907 46.6463 118.063 50.3021 119.786 52.4674C122.247 55.5238 126.321 52.3604 129.635 48.1821C128.924 53.1887 131.505 53.9725 133.473 53.5889C135.733 52.9749 138.251 50.5476 139.42 49.304C139.045 50.7627 139.147 53.3742 141.203 53.6349C142.612 53.8968 143.667 53.1262 144.887 52.4655C149.264 50.0693 154.504 42.0848 155.864 39.7764H154.081C152.147 42.715 149.686 46.5672 146.59 48.3957ZM107.3 47.861C107.022 47.4461 106.93 46.9928 106.921 46.5026C106.867 43.4909 110.091 38.0979 112.365 35.1599H112.37C113.323 37.2585 115.482 38.6074 116.785 39.176C115.167 42.8009 109.616 50.564 107.3 47.861ZM117.699 37.5554C117.545 37.6637 114.823 36.7416 114.296 34.2075C113.85 32.0258 115.345 30.3211 116.79 29.462C117.411 28.9701 118.346 28.8018 119.031 29.0464C119.668 29.4773 119.84 30.2458 119.84 31.0737C119.84 31.5816 119.773 32.1033 119.714 32.5792L119.701 32.6871C119.245 34.3898 118.572 36.0262 117.699 37.5554ZM139.534 46.8935C139.531 46.8935 139.017 47.3542 139.017 47.3542C138.283 48.0144 137.527 48.7208 136.615 48.3674C136.363 48.2755 136.185 47.9378 136.143 47.6759C136.101 45.7867 136.947 44.0363 137.768 42.3316L137.979 41.8861C140.339 37.9237 143.083 33.2548 147.113 30.0145C147.792 29.522 148.529 29.1081 149.306 29.4309C149.485 29.5996 149.694 29.8916 149.694 30.1831C149.694 30.2756 149.612 30.5211 149.565 30.5977C148.439 32.4262 147.368 34.3456 146.325 36.1886C144.288 39.8286 142.175 43.5908 139.534 46.8935Z" fill="black"/>
</g>
<defs>
<clipPath id="clip0">
<rect width="167" height="55" fill="white"/>
</clipPath>
</defs>
</svg>
