<svg width="64" height="64" viewBox="0 0 64 64" fill="none" xmlns="http://www.w3.org/2000/svg">
<circle cx="32" cy="32" r="32" fill="#FFF0FE"/>
<path d="M26.6667 28.6667H36M26.6667 34H33.3333M20 31.3334C19.9954 33.0932 20.4066 34.8292 21.2 36.4C22.1408 38.2824 23.587 39.8656 25.3768 40.9724C27.1665 42.0792 29.229 42.6659 31.3334 42.6667C33.0932 42.6713 34.8292 42.2601 36.4 41.4667L44 44L41.4667 36.4C42.2601 34.8292 42.6713 33.0932 42.6667 31.3334C42.6659 29.229 42.0792 27.1665 40.9724 25.3768C39.8656 23.587 38.2824 22.1408 36.4 21.2C34.8292 20.4066 33.0932 19.9954 31.3334 20H30.6667C27.8876 20.1534 25.2626 21.3264 23.2945 23.2945C21.3264 25.2626 20.1534 27.8876 20 30.6667V31.3334Z" stroke="#FF57F3" stroke-width="2" stroke-linecap="round" stroke-linejoin="round"/>
</svg>
