<svg width="64" height="64" viewBox="0 0 64 64" fill="none" xmlns="http://www.w3.org/2000/svg">
<circle opacity="0.4" cx="32" cy="32" r="32" fill="#5A0F00"/>
<path d="M46.6668 44V41.3333C46.6668 38.3878 44.279 36 41.3335 36H40.6668M36.0002 30.6667C38.9457 30.6667 41.3335 28.2789 41.3335 25.3333C41.3335 22.3878 38.9457 20 36.0002 20M38.6668 44V41.3333C38.6668 38.3878 36.279 36 33.3335 36H22.6668C19.7213 36 17.3335 38.3878 17.3335 41.3333V44M33.3335 25.3333C33.3335 28.2789 30.9457 30.6667 28.0002 30.6667C25.0546 30.6667 22.6668 28.2789 22.6668 25.3333C22.6668 22.3878 25.0546 20 28.0002 20C30.9457 20 33.3335 22.3878 33.3335 25.3333Z" stroke="#FF4C27" stroke-width="2" stroke-linecap="round" stroke-linejoin="round"/>
</svg>
