<svg width="88" height="88" viewBox="0 0 88 88" fill="none" xmlns="http://www.w3.org/2000/svg">
<path d="M55.5301 33.5303C55.823 33.2374 55.823 32.7626 55.5301 32.4697C55.2372 32.1768 54.7623 32.1768 54.4694 32.4697L55.5301 33.5303ZM32.4695 54.4696C32.1766 54.7625 32.1766 55.2374 32.4695 55.5303C32.7624 55.8232 33.2372 55.8232 33.5301 55.5303L32.4695 54.4696ZM33.5306 32.4697C33.2377 32.1768 32.7628 32.1768 32.4699 32.4697C32.177 32.7626 32.177 33.2374 32.4699 33.5303L33.5306 32.4697ZM54.4699 55.5303C54.7628 55.8232 55.2377 55.8232 55.5305 55.5303C55.8234 55.2374 55.8234 54.7625 55.5305 54.4696L54.4699 55.5303ZM54.4694 32.4697L32.4695 54.4696L33.5301 55.5303L55.5301 33.5303L54.4694 32.4697ZM32.4699 33.5303L54.4699 55.5303L55.5305 54.4696L33.5306 32.4697L32.4699 33.5303ZM76.25 44C76.25 61.8112 61.8112 76.25 44 76.25V77.75C62.6396 77.75 77.75 62.6396 77.75 44H76.25ZM44 76.25C26.1888 76.25 11.75 61.8112 11.75 44H10.25C10.25 62.6396 25.3604 77.75 44 77.75V76.25ZM11.75 44C11.75 26.1888 26.1888 11.75 44 11.75V10.25C25.3604 10.25 10.25 25.3604 10.25 44H11.75ZM44 11.75C61.8112 11.75 76.25 26.1888 76.25 44H77.75C77.75 25.3604 62.6396 10.25 44 10.25V11.75Z" fill="#FF4C27"/>
</svg>
