<svg width="232" height="64" viewBox="0 0 232 64" fill="none" xmlns="http://www.w3.org/2000/svg">
<path d="M78.2227 52.4394V51.8435L79.4145 51.4263C80.209 51.188 80.7255 50.8304 80.9638 50.3537C81.2419 49.877 81.3809 49.2414 81.3809 48.4468V17.2214C81.3809 16.4269 81.2419 15.7913 80.9638 15.3146C80.6857 14.8378 80.1494 14.4604 79.3549 14.1823L78.2227 13.7056V13.1097H92.7031C98.6224 13.1097 102.893 14.2022 105.515 16.3872C108.177 18.5324 109.508 21.3729 109.508 24.9086C109.508 27.173 108.951 29.2587 107.839 31.1656C106.766 33.0328 104.979 34.5225 102.476 35.6349C99.9731 36.7472 96.5964 37.3034 92.3456 37.3034H90.3195V48.268C90.3195 49.8174 91.0942 50.8304 92.6435 51.3071L94.4312 51.8435V52.4394H78.2227ZM90.3195 36.1116H92.5839C94.5306 36.1116 96.1196 35.7938 97.3512 35.1582C98.5827 34.5225 99.4964 33.4102 100.092 31.8211C100.688 30.232 100.986 28.0272 100.986 25.2066C100.986 22.3462 100.649 20.1215 99.9731 18.5324C99.3375 16.9434 98.3841 15.8509 97.1128 15.255C95.8415 14.6193 94.2525 14.3015 92.3456 14.3015H90.3195V36.1116Z" fill="white"/>
<path d="M121.467 53.3332C119.52 53.3332 117.772 53.0949 116.223 52.6181C114.673 52.1811 113.243 51.625 111.932 50.9496L111.992 43.8584H112.588L114.614 47.4338C115.488 49.0229 116.441 50.2147 117.474 51.0092C118.547 51.764 119.897 52.1414 121.526 52.1414C123.433 52.1414 124.963 51.7243 126.115 50.89C127.307 50.016 127.902 48.8639 127.902 47.4338C127.902 46.1228 127.485 45.0502 126.651 44.2159C125.817 43.3816 124.267 42.6268 122.003 41.9515L119.5 41.1768C117.077 40.4617 115.17 39.3493 113.779 37.8397C112.389 36.3301 111.694 34.4828 111.694 32.2978C111.694 29.6758 112.727 27.4511 114.793 25.6237C116.858 23.7963 119.818 22.8825 123.671 22.8825C125.221 22.8825 126.671 23.0613 128.022 23.4188C129.412 23.7367 130.743 24.2332 132.014 24.9086L131.657 31.3444H131.061L128.975 27.6498C128.22 26.3388 127.465 25.4251 126.711 24.9086C125.996 24.3524 124.903 24.0743 123.433 24.0743C122.082 24.0743 120.811 24.4517 119.619 25.2066C118.428 25.9614 117.832 27.034 117.832 28.4244C117.832 29.7752 118.328 30.8478 119.321 31.6423C120.354 32.4369 121.864 33.1718 123.85 33.8472L126.532 34.6218C129.392 35.4958 131.438 36.7075 132.67 38.2569C133.901 39.7665 134.517 41.5939 134.517 43.7392C134.517 46.6392 133.365 48.9633 131.061 50.7112C128.796 52.4592 125.598 53.3332 121.467 53.3332Z" fill="white"/>
<path d="M148.434 53.3332C145.892 53.3332 143.905 52.6976 142.475 51.4263C141.085 50.1551 140.389 48.129 140.389 45.3481V24.9682H136.278V24.3723L137.708 24.1339C138.939 23.8558 139.992 23.4586 140.866 22.9421C141.78 22.4257 142.674 21.7305 143.548 20.8565L148.434 15.4337H149.03L148.851 23.7764H155.525V24.9682H148.792V46.4207C148.792 47.8112 149.09 48.8639 149.685 49.579C150.321 50.2941 151.116 50.6517 152.069 50.6517C152.903 50.6517 153.638 50.453 154.274 50.0557C154.91 49.6188 155.545 49.0427 156.181 48.3276L156.777 48.9235C155.982 50.2742 154.89 51.3469 153.499 52.1414C152.109 52.936 150.42 53.3332 148.434 53.3332Z" fill="white"/>
<path d="M158.822 52.4394V51.8435L159.537 51.6051C160.968 51.1284 161.683 50.1352 161.683 48.6256V16.7447C161.683 15.9502 161.524 15.3543 161.206 14.957C160.888 14.52 160.332 14.2022 159.537 14.0036L158.763 13.8248V13.2289L169.668 10.6665L170.383 11.2028L170.145 19.5455V39.9254C170.145 41.3953 170.145 42.8652 170.145 44.3351C170.184 45.7652 170.204 47.1954 170.204 48.6256C170.204 49.4201 170.363 50.0756 170.681 50.5921C170.999 51.0688 171.535 51.4263 172.29 51.6647L173.064 51.8435V52.4394H158.822Z" fill="white"/>
<path d="M186.004 53.3332C184.057 53.3332 182.309 53.0949 180.76 52.6181C179.21 52.1811 177.78 51.625 176.469 50.9496L176.529 43.8584H177.125L179.151 47.4338C180.025 49.0229 180.978 50.2147 182.011 51.0092C183.084 51.764 184.434 52.1414 186.063 52.1414C187.97 52.1414 189.499 51.7243 190.652 50.89C191.843 50.016 192.439 48.8639 192.439 47.4338C192.439 46.1228 192.022 45.0502 191.188 44.2159C190.354 43.3816 188.804 42.6268 186.54 41.9515L184.037 41.1768C181.614 40.4617 179.707 39.3493 178.316 37.8397C176.926 36.3301 176.231 34.4828 176.231 32.2978C176.231 29.6758 177.264 27.4511 179.329 25.6237C181.395 23.7963 184.355 22.8825 188.208 22.8825C189.758 22.8825 191.208 23.0613 192.558 23.4188C193.949 23.7367 195.28 24.2332 196.551 24.9086L196.193 31.3444H195.598L193.512 27.6498C192.757 26.3388 192.002 25.4251 191.247 24.9086C190.532 24.3524 189.44 24.0743 187.97 24.0743C186.619 24.0743 185.348 24.4517 184.156 25.2066C182.964 25.9614 182.368 27.034 182.368 28.4244C182.368 29.7752 182.865 30.8478 183.858 31.6423C184.891 32.4369 186.401 33.1718 188.387 33.8472L191.069 34.6218C193.929 35.4958 195.975 36.7075 197.206 38.2569C198.438 39.7665 199.054 41.5939 199.054 43.7392C199.054 46.6392 197.902 48.9633 195.598 50.7112C193.333 52.4592 190.135 53.3332 186.004 53.3332Z" fill="white"/>
<path d="M208.581 53.3332C207.151 53.3332 205.939 52.8366 204.946 51.8435C203.953 50.8503 203.456 49.6585 203.456 48.268C203.456 46.8776 203.953 45.6659 204.946 44.633C205.939 43.6001 207.151 43.0837 208.581 43.0837C210.011 43.0837 211.223 43.6001 212.216 44.633C213.209 45.6659 213.706 46.8776 213.706 48.268C213.706 49.6585 213.209 50.8503 212.216 51.8435C211.223 52.8366 210.011 53.3332 208.581 53.3332Z" fill="white"/>
<path d="M10.6355 42.6352C10.6355 45.7564 11.3078 48.7206 12.5154 51.3909C5.13517 48.0532 0 40.6261 0 31.9996C0 23.3731 5.13518 15.946 12.5154 12.6084C11.3078 15.2787 10.6355 18.2429 10.6355 21.3641C10.6355 25.2385 11.6714 28.8709 13.4812 31.9996C11.6714 35.1283 10.6355 38.7608 10.6355 42.6352Z" fill="#AA8AFF"/>
<path d="M53.3649 42.6352C53.3649 45.7564 52.6927 48.7206 51.4851 51.3909C58.8653 48.0532 64.0005 40.6261 64.0005 31.9996C64.0005 23.3731 58.8653 15.946 51.4851 12.6084C52.6927 15.2787 53.3649 18.2429 53.3649 21.3641C53.3649 25.2385 52.3291 28.8709 50.5192 31.9996C52.3291 35.1283 53.3649 38.7608 53.3649 42.6352Z" fill="#AA8AFF"/>
<path d="M21.3653 10.6354C18.2441 10.6354 15.2799 11.3077 12.6096 12.5153C15.9472 5.13505 23.3744 -0.000123295 32.0009 -0.000122918C40.6274 -0.000122541 48.0545 5.13505 51.3921 12.5153C48.7218 11.3077 45.7576 10.6354 42.6364 10.6354C38.762 10.6354 35.1296 11.6713 32.0009 13.4811C28.8722 11.6713 25.2397 10.6354 21.3653 10.6354Z" fill="#AA8AFF"/>
<path d="M21.3653 53.3643C18.2441 53.3643 15.2799 52.6921 12.6096 51.4845C15.9472 58.8647 23.3744 63.9999 32.0009 63.9999C40.6274 63.9999 48.0545 58.8647 51.3921 51.4845C48.7218 52.6921 45.7576 53.3643 42.6364 53.3643C38.762 53.3643 35.1296 52.3285 32.0009 50.5186C28.8722 52.3285 25.2397 53.3643 21.3653 53.3643Z" fill="#AA8AFF"/>
<path d="M42.5425 31.9996C42.5425 28.8784 41.8702 25.9142 40.6626 23.2439C44.7282 25.0825 48.1125 28.1621 50.3323 31.9996C48.1125 35.837 44.7282 38.9166 40.6626 40.7553C41.8702 38.085 42.5425 35.1208 42.5425 31.9996Z" fill="#AA8AFF"/>
<path d="M21.084 31.9996C21.084 28.8784 21.7563 25.9142 22.9639 23.2439C18.8983 25.0825 15.514 28.1621 13.2941 31.9996C15.514 35.837 18.8983 38.9166 22.9639 40.7553C21.7563 38.085 21.084 35.1208 21.084 31.9996Z" fill="#AA8AFF"/>
<path d="M31.8137 42.7286C34.9348 42.7286 37.899 42.0564 40.5693 40.8488C38.7307 44.9143 35.6511 48.2986 31.8136 50.5185C27.9762 48.2986 24.8966 44.9143 23.058 40.8488C25.7283 42.0564 28.6925 42.7286 31.8137 42.7286Z" fill="#AA8AFF"/>
<path d="M31.8137 21.2709C34.9348 21.2709 37.899 21.9431 40.5693 23.1508C38.7307 19.0852 35.6511 15.7009 31.8137 13.481C27.9762 15.7009 24.8966 19.0852 23.058 23.1508C25.7283 21.9431 28.6925 21.2709 31.8137 21.2709Z" fill="#AA8AFF"/>
</svg>
