<svg width="116" height="32" viewBox="0 0 116 32" fill="none" xmlns="http://www.w3.org/2000/svg">
<path d="M39.1111 26.2194V25.9215L39.707 25.7129C40.1043 25.5937 40.3625 25.4149 40.4817 25.1766C40.6208 24.9382 40.6903 24.6204 40.6903 24.2231V8.61048C40.6903 8.21321 40.6208 7.89539 40.4817 7.65703C40.3427 7.41867 40.0745 7.22997 39.6773 7.09092L39.1111 6.85256V6.55461H46.3514C49.311 6.55461 51.4463 7.10085 52.7573 8.19334C54.0882 9.26597 54.7536 10.6862 54.7536 12.4541C54.7536 13.5863 54.4755 14.6291 53.9193 15.5825C53.383 16.5161 52.4892 17.261 51.2378 17.8172C49.9864 18.3734 48.298 18.6514 46.1726 18.6514H45.1596V24.1338C45.1596 24.9084 45.5469 25.4149 46.3216 25.6533L47.2154 25.9215V26.2194H39.1111ZM45.1596 18.0555H46.2918C47.2651 18.0555 48.0596 17.8966 48.6754 17.5788C49.2912 17.261 49.748 16.7048 50.046 15.9103C50.3439 15.1158 50.4929 14.0133 50.4929 12.603C50.4929 11.1729 50.3241 10.0605 49.9864 9.26597C49.6686 8.47143 49.1918 7.92519 48.5562 7.62724C47.9206 7.30942 47.126 7.15051 46.1726 7.15051H45.1596V18.0555Z" fill="white"/>
<path d="M60.7331 26.6663C59.7598 26.6663 58.8858 26.5472 58.1111 26.3088C57.3365 26.0903 56.6214 25.8122 55.9659 25.4745L55.9957 21.9289H56.2936L57.3067 23.7166C57.7437 24.5112 58.2204 25.1071 58.7368 25.5043C59.2732 25.8817 59.9485 26.0704 60.7629 26.0704C61.7164 26.0704 62.4811 25.8619 63.0571 25.4447C63.653 25.0077 63.951 24.4317 63.951 23.7166C63.951 23.0611 63.7424 22.5248 63.3253 22.1077C62.9082 21.6905 62.1335 21.3131 61.0013 20.9755L59.7499 20.5881C58.5382 20.2306 57.5848 19.6744 56.8895 18.9196C56.1943 18.1648 55.8467 17.2411 55.8467 16.1487C55.8467 14.8377 56.3632 13.7253 57.3961 12.8116C58.429 11.8979 59.9088 11.441 61.8355 11.441C62.6102 11.441 63.3352 11.5304 64.0106 11.7092C64.7058 11.8681 65.3712 12.1164 66.0069 12.4541L65.8281 15.6719H65.5301L64.4873 13.8246C64.1099 13.1691 63.7325 12.7123 63.3551 12.4541C62.9975 12.176 62.4513 12.0369 61.7164 12.0369C61.041 12.0369 60.4054 12.2256 59.8095 12.603C59.2136 12.9804 58.9156 13.5167 58.9156 14.212C58.9156 14.8873 59.1639 15.4236 59.6605 15.8209C60.1769 16.2182 60.9318 16.5856 61.9249 16.9233L63.2657 17.3107C64.6959 17.7477 65.7188 18.3535 66.3346 19.1282C66.9504 19.883 67.2583 20.7967 67.2583 21.8693C67.2583 23.3194 66.6822 24.4814 65.5301 25.3554C64.3979 26.2293 62.7989 26.6663 60.7331 26.6663Z" fill="white"/>
<path d="M74.2168 26.6663C72.9456 26.6663 71.9524 26.3485 71.2373 25.7129C70.5421 25.0773 70.1945 24.0642 70.1945 22.6738V12.4838H68.1386V12.1859L68.8537 12.0667C69.4695 11.9277 69.9958 11.729 70.4328 11.4708C70.8897 11.2126 71.3366 10.865 71.7736 10.428L74.2168 7.71662H74.5148L74.4254 11.8879H77.7624V12.4838H74.3956V23.2101C74.3956 23.9053 74.5446 24.4317 74.8425 24.7892C75.1603 25.1468 75.5576 25.3256 76.0343 25.3256C76.4515 25.3256 76.8189 25.2262 77.1367 25.0276C77.4546 24.8091 77.7724 24.5211 78.0902 24.1635L78.3881 24.4615C77.9909 25.1369 77.4446 25.6732 76.7494 26.0704C76.0542 26.4677 75.21 26.6663 74.2168 26.6663Z" fill="white"/>
<path d="M79.411 26.2194V25.9215L79.7685 25.8023C80.4836 25.5639 80.8411 25.0673 80.8411 24.3125V8.37211C80.8411 7.97485 80.7617 7.67689 80.6028 7.47826C80.4439 7.25976 80.1658 7.10085 79.7685 7.00154L79.3812 6.91215V6.6142L84.8337 5.33301L85.1912 5.60116L85.072 9.77249V19.9624C85.072 20.6974 85.072 21.4323 85.072 22.1673C85.0919 22.8824 85.1018 23.5974 85.1018 24.3125C85.1018 24.7098 85.1813 25.0375 85.3402 25.2958C85.4991 25.5341 85.7673 25.7129 86.1447 25.8321L86.532 25.9215V26.2194H79.411Z" fill="white"/>
<path d="M93.0015 26.6663C92.0282 26.6663 91.1542 26.5472 90.3795 26.3088C89.6049 26.0903 88.8898 25.8122 88.2343 25.4745L88.2641 21.9289H88.562L89.5751 23.7166C90.0121 24.5112 90.4888 25.1071 91.0052 25.5043C91.5415 25.8817 92.2169 26.0704 93.0313 26.0704C93.9847 26.0704 94.7495 25.8619 95.3255 25.4447C95.9214 25.0077 96.2194 24.4317 96.2194 23.7166C96.2194 23.0611 96.0108 22.5248 95.5937 22.1077C95.1765 21.6905 94.4019 21.3131 93.2697 20.9755L92.0183 20.5881C90.8066 20.2306 89.8531 19.6744 89.1579 18.9196C88.4627 18.1648 88.1151 17.2411 88.1151 16.1487C88.1151 14.8377 88.6315 13.7253 89.6644 12.8116C90.6973 11.8979 92.1772 11.441 94.1039 11.441C94.8786 11.441 95.6036 11.5304 96.279 11.7092C96.9742 11.8681 97.6396 12.1164 98.2752 12.4541L98.0965 15.6719H97.7985L96.7557 13.8246C96.3783 13.1691 96.0009 12.7123 95.6235 12.4541C95.2659 12.176 94.7197 12.0369 93.9847 12.0369C93.3094 12.0369 92.6738 12.2256 92.0779 12.603C91.4819 12.9804 91.184 13.5167 91.184 14.212C91.184 14.8873 91.4323 15.4236 91.9289 15.8209C92.4453 16.2182 93.2001 16.5856 94.1933 16.9233L95.5341 17.3107C96.9643 17.7477 97.9872 18.3535 98.603 19.1282C99.2188 19.883 99.5266 20.7967 99.5266 21.8693C99.5266 23.3194 98.9506 24.4814 97.7985 25.3554C96.6663 26.2293 95.0673 26.6663 93.0015 26.6663Z" fill="white"/>
<path d="M104.29 26.6663C103.575 26.6663 102.969 26.418 102.473 25.9215C101.976 25.4249 101.728 24.829 101.728 24.1338C101.728 23.4385 101.976 22.8327 102.473 22.3162C102.969 21.7998 103.575 21.5416 104.29 21.5416C105.005 21.5416 105.611 21.7998 106.108 22.3162C106.604 22.8327 106.853 23.4385 106.853 24.1338C106.853 24.829 106.604 25.4249 106.108 25.9215C105.611 26.418 105.005 26.6663 104.29 26.6663Z" fill="white"/>
<path d="M5.31777 21.3181C5.31777 22.8786 5.65389 24.3607 6.2577 25.6959C2.56758 24.0271 0 20.3135 0 16.0003C0 11.687 2.56758 7.97349 6.2577 6.30469C5.65389 7.63984 5.31777 9.12193 5.31777 10.6825C5.31777 12.6197 5.83569 14.4359 6.74061 16.0003C5.83569 17.5646 5.31777 19.3809 5.31777 21.3181Z" fill="#AA8AFF"/>
<path d="M26.6822 21.3181C26.6822 22.8786 26.3461 24.3607 25.7423 25.6959C29.4324 24.0271 32 20.3135 32 16.0003C32 11.687 29.4324 7.97349 25.7423 6.30469C26.3461 7.63984 26.6822 9.12193 26.6822 10.6825C26.6822 12.6197 26.1643 14.4359 25.2594 16.0003C26.1643 17.5646 26.6822 19.3809 26.6822 21.3181Z" fill="#AA8AFF"/>
<path d="M10.6826 5.31777C9.12202 5.31777 7.63992 5.65389 6.30477 6.2577C7.97358 2.56758 11.6871 -6.12346e-07 16.0004 -4.23808e-07C20.3136 -2.3527e-07 24.0272 2.56758 25.696 6.2577C24.3608 5.65389 22.8787 5.31777 21.3181 5.31777C19.3809 5.31777 17.5647 5.83569 16.0004 6.74061C14.436 5.83569 12.6198 5.31777 10.6826 5.31777Z" fill="#AA8AFF"/>
<path d="M10.6826 26.6822C9.12202 26.6822 7.63993 26.3461 6.30478 25.7423C7.97358 29.4324 11.6871 32 16.0004 32C20.3136 32 24.0272 29.4324 25.696 25.7423C24.3608 26.3461 22.8787 26.6822 21.3181 26.6822C19.3809 26.6822 17.5647 26.1643 16.0004 25.2594C14.436 26.1643 12.6198 26.6822 10.6826 26.6822Z" fill="#AA8AFF"/>
<path d="M21.2713 15.9999C21.2713 14.4393 20.9352 12.9572 20.3314 11.6221C22.3641 12.5414 24.0563 14.0812 25.1662 15.9999C24.0563 17.9186 22.3641 19.4584 20.3314 20.3777C20.9352 19.0426 21.2713 17.5605 21.2713 15.9999Z" fill="#AA8AFF"/>
<path d="M10.5418 15.9999C10.5418 14.4393 10.8779 12.9572 11.4818 11.6221C9.44896 12.5414 7.75683 14.0812 6.6469 15.9999C7.75683 17.9186 9.44896 19.4584 11.4818 20.3777C10.8779 19.0426 10.5418 17.5605 10.5418 15.9999Z" fill="#AA8AFF"/>
<path d="M15.9066 21.3647C17.4672 21.3647 18.9493 21.0286 20.2845 20.4248C19.3652 22.4576 17.8254 24.1497 15.9066 25.2597C13.9879 24.1497 12.4481 22.4576 11.5288 20.4248C12.864 21.0286 14.3461 21.3647 15.9066 21.3647Z" fill="#AA8AFF"/>
<path d="M15.9066 10.6353C17.4672 10.6353 18.9493 10.9714 20.2845 11.5752C19.3652 9.54241 17.8254 7.85027 15.9066 6.74034C13.9879 7.85027 12.4481 9.54241 11.5288 11.5752C12.864 10.9714 14.3461 10.6353 15.9066 10.6353Z" fill="#AA8AFF"/>
</svg>
