<svg width="32" height="32" viewBox="0 0 32 32" fill="none" xmlns="http://www.w3.org/2000/svg">
<path d="M5.31777 21.3178C5.31777 22.8784 5.65389 24.3605 6.2577 25.6956C2.56758 24.0268 0 20.3132 0 16C0 11.6868 2.56758 7.9732 6.2577 6.3044C5.65389 7.63955 5.31777 9.12164 5.31777 10.6822C5.31777 12.6194 5.83569 14.4357 6.74061 16C5.83569 17.5644 5.31777 19.3806 5.31777 21.3178Z" fill="#AA8AFF"/>
<path d="M26.6822 21.3178C26.6822 22.8784 26.3461 24.3605 25.7423 25.6956C29.4324 24.0268 32 20.3132 32 16C32 11.6868 29.4324 7.9732 25.7423 6.3044C26.3461 7.63955 26.6822 9.12164 26.6822 10.6822C26.6822 12.6194 26.1643 14.4357 25.2594 16C26.1643 17.5644 26.6822 19.3806 26.6822 21.3178Z" fill="#AA8AFF"/>
<path d="M10.6819 5.31777C9.12135 5.31777 7.63925 5.65389 6.3041 6.2577C7.97291 2.56758 11.6865 -6.12346e-07 15.9997 -4.23808e-07C20.313 -2.3527e-07 24.0265 2.56758 25.6953 6.2577C24.3602 5.65389 22.8781 5.31777 21.3175 5.31777C19.3803 5.31777 17.5641 5.83569 15.9997 6.74061C14.4354 5.83569 12.6191 5.31777 10.6819 5.31777Z" fill="#AA8AFF"/>
<path d="M10.6819 26.6822C9.12135 26.6822 7.63925 26.3461 6.3041 25.7423C7.97291 29.4324 11.6865 32 15.9997 32C20.313 32 24.0265 29.4324 25.6953 25.7423C24.3602 26.3461 22.8781 26.6822 21.3175 26.6822C19.3803 26.6822 17.5641 26.1643 15.9997 25.2594C14.4354 26.1643 12.6191 26.6822 10.6819 26.6822Z" fill="#AA8AFF"/>
<path d="M21.272 16C21.272 14.4394 20.9358 12.9573 20.332 11.6222C22.3648 12.5415 24.057 14.0813 25.1669 16C24.057 17.9187 22.3648 19.4585 20.332 20.3778C20.9358 19.0427 21.272 17.5606 21.272 16Z" fill="#AA8AFF"/>
<path d="M10.5425 16C10.5425 14.4394 10.8786 12.9573 11.4824 11.6222C9.44964 12.5415 7.7575 14.0813 6.64757 16C7.7575 17.9187 9.44964 19.4585 11.4824 20.3778C10.8786 19.0427 10.5425 17.5606 10.5425 16Z" fill="#AA8AFF"/>
<path d="M15.9073 21.3644C17.4679 21.3644 18.95 21.0283 20.2852 20.4245C19.3658 22.4573 17.826 24.1494 15.9073 25.2594C13.9886 24.1494 12.4488 22.4573 11.5295 20.4245C12.8646 21.0283 14.3467 21.3644 15.9073 21.3644Z" fill="#AA8AFF"/>
<path d="M15.9073 10.6356C17.4679 10.6356 18.95 10.9717 20.2852 11.5755C19.3658 9.5427 17.826 7.85056 15.9073 6.74063C13.9886 7.85056 12.4488 9.5427 11.5295 11.5755C12.8646 10.9717 14.3467 10.6356 15.9073 10.6356Z" fill="#AA8AFF"/>
</svg>
