<svg width="40" height="40" viewBox="0 0 40 40" fill="none" xmlns="http://www.w3.org/2000/svg">
<path d="M38.3333 35V31.6667C38.3333 27.9848 35.3485 25 31.6666 25H30.8333M25 18.3333C28.6819 18.3333 31.6666 15.3486 31.6666 11.6667C31.6666 7.98477 28.6819 5 25 5M28.3333 35V31.6667C28.3333 27.9848 25.3485 25 21.6666 25H8.33329C4.65139 25 1.66663 27.9848 1.66663 31.6667V35M21.6666 11.6667C21.6666 15.3486 18.6819 18.3333 15 18.3333C11.3181 18.3333 8.33329 15.3486 8.33329 11.6667C8.33329 7.98477 11.3181 5 15 5C18.6819 5 21.6666 7.98477 21.6666 11.6667Z" stroke="#E1FFB6" stroke-width="2.5" stroke-linecap="round" stroke-linejoin="round"/>
</svg>
