<svg width="40" height="40" viewBox="0 0 40 40" fill="none" xmlns="http://www.w3.org/2000/svg">
<path d="M29.2172 15.8839C29.7054 15.3957 29.7054 14.6043 29.2172 14.1161C28.7291 13.628 27.9376 13.628 27.4494 14.1161L29.2172 15.8839ZM16.6666 26.6667L15.7828 27.5506C16.2709 28.0387 17.0624 28.0387 17.5505 27.5506L16.6666 26.6667ZM12.5504 20.7828C12.0623 20.2946 11.2708 20.2946 10.7827 20.7828C10.2945 21.2709 10.2945 22.0624 10.7827 22.5506L12.5504 20.7828ZM27.4494 14.1161L15.7828 25.7828L17.5505 27.5506L29.2172 15.8839L27.4494 14.1161ZM10.7827 22.5506L15.7828 27.5506L17.5505 25.7828L12.5504 20.7828L10.7827 22.5506ZM33.75 20C33.75 27.5939 27.5939 33.75 20 33.75V36.25C28.9746 36.25 36.25 28.9746 36.25 20H33.75ZM20 33.75C12.4061 33.75 6.25 27.5939 6.25 20H3.75C3.75 28.9746 11.0254 36.25 20 36.25V33.75ZM6.25 20C6.25 12.4061 12.4061 6.25 20 6.25V3.75C11.0254 3.75 3.75 11.0254 3.75 20H6.25ZM20 6.25C27.5939 6.25 33.75 12.4061 33.75 20H36.25C36.25 11.0254 28.9746 3.75 20 3.75V6.25Z" fill="black"/>
</svg>
