<svg width="64" height="64" viewBox="0 0 64 64" fill="none" xmlns="http://www.w3.org/2000/svg">
<circle cx="32" cy="32" r="32" fill="#F4F0FF"/>
<path d="M22.6667 20V19C22.1145 19 21.6667 19.4477 21.6667 20H22.6667ZM41.3334 44V45C41.8857 45 42.3334 44.5523 42.3334 44H41.3334ZM22.6667 44H21.6667C21.6667 44.5523 22.1145 45 22.6667 45V44ZM34.6667 20L35.3739 19.2929C35.1863 19.1054 34.932 19 34.6667 19V20ZM41.3334 26.6667H42.3334C42.3334 26.4015 42.2281 26.1471 42.0405 25.9596L41.3334 26.6667ZM41.3334 43H22.6667V45H41.3334V43ZM23.6667 44V20H21.6667V44H23.6667ZM22.6667 21H34.6667V19H22.6667V21ZM40.3334 26.6667V44H42.3334V26.6667H40.3334ZM33.9596 20.7071L40.6263 27.3738L42.0405 25.9596L35.3739 19.2929L33.9596 20.7071ZM32.3334 20V25.3333H34.3334V20H32.3334ZM36.0001 29H41.3334V27H36.0001V29ZM32.3334 25.3333C32.3334 27.3584 33.975 29 36.0001 29V27C35.0796 27 34.3334 26.2538 34.3334 25.3333H32.3334Z" fill="#8457FF"/>
</svg>
