<svg width="64" height="48" viewBox="0 0 64 48" fill="none" xmlns="http://www.w3.org/2000/svg">
<path d="M14.2997 48C9.99818 48 6.51045 46.4762 3.83651 43.4286C1.27884 40.2638 0 36.1612 0 31.1209C0 24.5568 1.91826 18.4616 5.75477 12.8352C9.59128 7.0916 14.3579 2.81322 20.0545 3.05176e-05L21.1008 2.10991C18.6594 3.98538 16.5086 6.38831 14.6485 9.31871C12.7884 12.2491 11.4514 15.8828 10.6376 20.2198L14.2997 21.0989C18.3688 22.0367 21.5077 23.7949 23.7166 26.3737C26.0418 28.8352 27.2044 31.8242 27.2044 35.3407C27.2044 39.0916 25.9255 42.1392 23.3678 44.4836C20.9264 46.8279 17.9037 48 14.2997 48ZM51.0954 48C46.7938 48 43.3061 46.4762 40.6322 43.4286C38.0745 40.2638 36.7956 36.1612 36.7956 31.1209C36.7956 24.5568 38.7139 18.4616 42.5504 12.8352C46.3869 7.0916 51.1535 2.81322 56.8501 3.05176e-05L57.8965 2.10991C55.455 3.98538 53.3043 6.38831 51.4441 9.31871C49.584 12.2491 48.2471 15.8828 47.4332 20.2198L51.0954 21.0989C55.1644 22.0367 58.3034 23.7949 60.5123 26.3737C62.8374 28.8352 64 31.8242 64 35.3407C64 39.0916 62.7212 42.1392 60.1635 44.4836C57.7221 46.8279 54.6994 48 51.0954 48Z" fill="#CFBDFF"/>
</svg>
