<svg width="150" height="50" viewBox="0 0 150 50" fill="none" xmlns="http://www.w3.org/2000/svg">
<path d="M0 5C0 2.23858 2.23858 0 5 0H145C147.761 0 150 2.23858 150 5V45C150 47.7614 147.761 50 145 50H5C2.23858 50 0 47.7614 0 45V5Z" fill="#AA8AFF"/>
<path fill-rule="evenodd" clip-rule="evenodd" d="M53.8616 32.8876H47.9339L46.5104 37.1746H43.9996L49.6143 21.3139H52.2229L57.8375 37.1746H55.2839L53.8616 32.8876ZM48.5478 30.9094H53.2465L50.9302 23.952H50.8654L48.5478 30.9094ZM69.9633 31.3933C69.9633 34.9868 68.0775 37.2955 65.2316 37.2955C63.7606 37.374 62.375 36.5882 61.6642 35.2724H61.6104V41H59.283V25.6109H61.5358V27.5342H61.5786C62.321 26.2266 63.7081 25.4412 65.1888 25.4899C68.0664 25.4899 69.9633 27.8099 69.9633 31.3933ZM67.5711 31.3933C67.5711 29.0522 66.3849 27.513 64.5749 27.513C62.7967 27.513 61.6006 29.0846 61.6006 31.3933C61.6006 33.7233 62.7967 35.2837 64.5749 35.2837C66.3849 35.2837 67.5711 33.7557 67.5711 31.3933ZM82.4425 31.3933C82.4425 34.9868 80.5566 37.2955 77.7108 37.2955C76.2398 37.374 74.8542 36.5882 74.1434 35.2724H74.0895V41H71.7622V25.6109H74.0149V27.5342H74.0577C74.8001 26.2266 76.1872 25.4412 77.668 25.4899C80.5456 25.4899 82.4425 27.8099 82.4425 31.3933ZM80.0503 31.3933C80.0503 29.0522 78.864 27.513 77.0541 27.513C75.2759 27.513 74.0798 29.0846 74.0798 31.3933C74.0798 33.7233 75.2759 35.2837 77.0541 35.2837C78.8641 35.2837 80.0503 33.7557 80.0503 31.3933ZM90.6902 32.7554C90.8626 34.3282 92.3608 35.3609 94.408 35.3609C96.3697 35.3609 97.781 34.3282 97.781 32.91C97.781 31.6789 96.9298 30.9418 94.9143 30.4366L92.8989 29.9414C90.0433 29.238 88.7175 27.8759 88.7175 25.6657C88.7175 22.9291 91.0559 21.0494 94.3762 21.0494C97.6623 21.0494 99.9151 22.9291 99.9909 25.6657H97.6415C97.5009 24.0829 96.218 23.1275 94.3432 23.1275C92.4684 23.1275 91.1855 24.0941 91.1855 25.5011C91.1855 26.6224 92.0049 27.2822 94.0093 27.7873L95.7227 28.2164C98.9134 28.986 100.239 30.2932 100.239 32.6131C100.239 35.5804 97.9216 37.4389 94.2355 37.4389C90.7868 37.4389 88.4582 35.6241 88.3078 32.7553L90.6902 32.7554ZM105.262 22.8743V25.6109H107.418V27.4905H105.262V33.8655C105.262 34.8558 105.694 35.3173 106.641 35.3173C106.897 35.3128 107.153 35.2944 107.407 35.2624V37.1309C106.981 37.2121 106.548 37.2488 106.114 37.2406C103.819 37.2406 102.924 36.3613 102.924 34.1186V27.4905H101.275V25.6109H102.924V22.8743H105.262ZM108.667 31.3933C108.667 27.755 110.768 25.4687 114.044 25.4687C117.331 25.4687 119.423 27.7549 119.423 31.3933C119.423 35.0417 117.342 37.318 114.044 37.318C110.747 37.318 108.667 35.0417 108.667 31.3933ZM117.051 31.3933C117.051 28.8975 115.93 27.4245 114.044 27.4245C112.158 27.4245 111.038 28.9087 111.038 31.3933C111.038 33.8992 112.158 35.361 114.044 35.361C115.93 35.361 117.051 33.8992 117.051 31.3933ZM121.342 25.6109H123.561V27.5791H123.615C123.925 26.3121 125.063 25.44 126.342 25.4899C126.61 25.4889 126.878 25.5186 127.14 25.5784V27.7986C126.801 27.6931 126.448 27.6446 126.094 27.6552C125.41 27.6269 124.748 27.905 124.281 28.4165C123.815 28.928 123.591 29.6217 123.669 30.3157V37.1745H121.342L121.342 25.6109ZM137.87 33.7782C137.557 35.8774 135.552 37.318 132.988 37.318C129.69 37.318 127.642 35.0641 127.642 31.4482C127.642 27.8211 129.701 25.4687 132.89 25.4687C136.027 25.4687 138 27.6664 138 31.1726V31.9858H129.992V32.1292C129.917 32.9901 130.208 33.8423 130.792 34.469C131.375 35.0956 132.195 35.4364 133.042 35.4046C134.171 35.5126 135.236 34.8511 135.66 33.7782L137.87 33.7782ZM130.003 30.3269L135.671 30.3269C135.713 29.5533 135.437 28.7969 134.909 28.2397C134.381 27.6826 133.65 27.3754 132.89 27.392C132.125 27.3874 131.389 27.6947 130.847 28.2459C130.305 28.797 130.001 29.5462 130.003 30.3269ZM48.2562 9.37551C49.2442 9.30319 50.2119 9.68657 50.893 10.4201C51.5741 11.1537 51.8968 12.1601 51.7722 13.1623C51.7722 15.597 50.482 16.9965 48.2562 16.9965H45.5571V9.37551H48.2562ZM46.7177 15.9188H48.1265C48.8326 15.9618 49.5201 15.6781 49.9982 15.1464C50.4762 14.6146 50.6939 13.8915 50.5908 13.1778C50.6864 12.4671 50.4656 11.7499 49.9887 11.2226C49.5119 10.6952 48.8288 10.4127 48.1265 10.4525H46.7177V15.9188ZM53.0832 14.1183C52.9865 13.0874 53.4712 12.0898 54.334 11.5437C55.1967 10.9977 56.2884 10.9977 57.1512 11.5437C58.0139 12.0898 58.4986 13.0874 58.4019 14.1183C58.5005 15.1503 58.0162 16.1499 57.1527 16.6971C56.2892 17.2443 55.196 17.2443 54.3324 16.6971C53.4689 16.1499 52.9847 15.1503 53.0832 14.1183ZM57.2572 14.1183C57.2572 12.8716 56.7081 12.1426 55.7444 12.1426C54.777 12.1426 54.2328 12.8716 54.2328 14.1183C54.2328 15.375 54.7771 16.0984 55.7444 16.0984C56.7081 16.0984 57.2572 15.37 57.2572 14.1183ZM65.4719 16.9964H64.3174L63.1519 12.7606H63.0639L61.9033 16.9964H60.7598L59.2054 11.2451H60.3342L61.3444 15.6337H61.4276L62.5869 11.2451H63.6546L64.814 15.6337H64.902L65.9073 11.2451H67.0202L65.4719 16.9964ZM68.3276 11.2451H69.3989V12.1588H69.482C69.7712 11.4861 70.447 11.0746 71.1648 11.1341C71.7206 11.0915 72.2653 11.309 72.645 11.7251C73.0247 12.1412 73.1983 12.7109 73.1167 13.2732V16.9964H72.0038V13.5583C72.0038 12.634 71.61 12.1744 70.7869 12.1744C70.41 12.1565 70.0441 12.3074 69.7853 12.5875C69.5265 12.8676 69.4005 13.2491 69.4404 13.6318V16.9964H68.3275L68.3276 11.2451ZM74.89 9H76.0029V16.9964H74.89V9ZM77.55 14.1183C77.4534 13.0874 77.9381 12.0897 78.8009 11.5436C79.6638 10.9976 80.7555 10.9976 81.6183 11.5436C82.4812 12.0897 82.9659 13.0874 82.8693 14.1183C82.9677 15.1503 82.4834 16.1499 81.6198 16.6971C80.7562 17.2443 79.663 17.2443 78.7995 16.6971C77.9359 16.1499 77.4516 15.1503 77.55 14.1183ZM81.724 14.1183C81.724 12.8716 81.1749 12.1426 80.2112 12.1426C79.2438 12.1426 78.6996 12.8716 78.6996 14.1183C78.6996 15.375 79.2438 16.0984 80.2112 16.0984C81.1749 16.0984 81.724 15.37 81.724 14.1183ZM84.0409 15.37C84.0409 14.3347 84.7967 13.7379 86.1383 13.6531L87.6658 13.5633V13.0668C87.6658 12.4594 87.272 12.1164 86.5113 12.1164C85.89 12.1164 85.4596 12.349 85.336 12.7556H84.2586C84.3723 11.7678 85.2834 11.1342 86.5627 11.1342C87.9764 11.1342 88.7738 11.852 88.7738 13.0668V16.9964H87.7025V16.1882H87.6144C87.2506 16.7784 86.6035 17.1234 85.9206 17.0912C85.4419 17.142 84.9645 16.9839 84.6063 16.6559C84.2482 16.328 84.0428 15.8608 84.0409 15.37ZM87.6658 14.8785V14.3977L86.2887 14.4875C85.5121 14.5405 85.1599 14.8099 85.1599 15.3169C85.1599 15.8346 85.6002 16.1358 86.2056 16.1358C86.564 16.1728 86.9218 16.0599 87.197 15.8229C87.4723 15.5859 87.6414 15.2451 87.6658 14.8785ZM90.2365 14.1183C90.2365 12.301 91.1525 11.1497 92.5772 11.1497C93.2967 11.1159 93.9705 11.5091 94.3065 12.1587H94.3897V9H95.5026V16.9964H94.4361V16.0878H94.3481C93.9867 16.732 93.3046 17.1185 92.5772 17.0912C91.1427 17.0913 90.2365 15.94 90.2365 14.1183ZM91.3861 14.1183C91.3861 15.3382 91.9499 16.0722 92.8928 16.0722C93.8308 16.0722 94.4105 15.3276 94.4105 14.1233C94.4105 12.9246 93.8247 12.1694 92.8928 12.1694C91.956 12.1694 91.3861 12.9084 91.3861 14.1183ZM100.107 14.1183C100.01 13.0874 100.495 12.0898 101.358 11.5437C102.221 10.9977 103.312 10.9977 104.175 11.5437C105.038 12.0898 105.522 13.0874 105.426 14.1183C105.524 15.1503 105.04 16.1499 104.177 16.6971C103.313 17.2443 102.22 17.2443 101.356 16.6971C100.493 16.1499 100.009 15.1503 100.107 14.1183ZM104.281 14.1183C104.281 12.8716 103.732 12.1426 102.768 12.1426C101.801 12.1426 101.257 12.8716 101.257 14.1183C101.257 15.375 101.801 16.0984 102.768 16.0984C103.732 16.0984 104.281 15.37 104.281 14.1183ZM106.919 11.2451H107.99V12.1588H108.074C108.363 11.4861 109.038 11.0746 109.756 11.1341C110.312 11.0915 110.857 11.309 111.236 11.7251C111.616 12.1412 111.79 12.7109 111.708 13.2732V16.9964H110.595V13.5583C110.595 12.634 110.201 12.1744 109.378 12.1744C109.001 12.1565 108.636 12.3074 108.377 12.5875C108.118 12.8676 107.992 13.2491 108.032 13.6318V16.9964H106.919V11.2451ZM117.997 9.81325V11.2713H119.218V12.2274H117.997V15.1847C117.997 15.7872 118.24 16.051 118.794 16.051C118.936 16.0505 119.078 16.0418 119.218 16.0248V16.9702C119.019 17.0067 118.816 17.0261 118.613 17.0282C117.375 17.0282 116.883 16.5842 116.883 15.4753V12.2273H115.987V11.2713H116.883V9.81325H117.997ZM120.739 9H121.842V12.1694H121.93C122.233 11.4908 122.92 11.0788 123.649 11.1391C124.202 11.1084 124.739 11.3307 125.115 11.7453C125.49 12.16 125.665 12.7238 125.591 13.2832V16.9964H124.477V13.5632C124.477 12.6446 124.058 12.1793 123.271 12.1793C122.884 12.147 122.503 12.2905 122.229 12.5716C121.955 12.8528 121.817 13.2428 121.852 13.6374V16.9964H120.739L120.739 9ZM132.08 15.4435C131.768 16.5284 130.739 17.2293 129.637 17.1074C128.885 17.1277 128.162 16.8098 127.661 16.2381C127.159 15.6665 126.929 14.8988 127.032 14.1389C126.932 13.3768 127.161 12.6079 127.66 12.0314C128.159 11.455 128.878 11.1276 129.632 11.1341C131.201 11.1341 132.148 12.2274 132.148 14.0335V14.4295H128.166V14.4931C128.13 14.9199 128.273 15.342 128.559 15.6557C128.845 15.9694 129.248 16.1455 129.667 16.1407C130.212 16.2074 130.742 15.932 131.009 15.4435L132.08 15.4435ZM128.166 13.5901H131.014C131.042 13.1997 130.908 12.8154 130.643 12.5316C130.379 12.2479 130.01 12.0912 129.626 12.1002C129.237 12.0952 128.863 12.2506 128.588 12.5311C128.313 12.8116 128.161 13.1935 128.166 13.5901ZM31.3132 25.1667C31.3161 27.8461 32.9251 30.2643 35.3996 31.308C34.9237 32.8499 34.2063 34.3069 33.2741 35.6253C32.0221 37.493 30.7094 39.3178 28.626 39.3515C26.6015 39.3981 25.9212 38.1633 23.5992 38.1633C21.2555 38.1633 20.5303 39.3178 18.5887 39.3981C16.6045 39.4714 15.0881 37.4046 13.7906 35.5544C11.1973 31.7759 9.17794 24.9059 11.8852 20.2314C13.1565 17.9531 15.5335 16.5074 18.1465 16.4232C20.1324 16.3825 21.9767 17.7608 23.1977 17.7608C24.3956 17.7608 26.6744 16.112 29.025 16.358C31.2593 16.4278 33.3298 17.5441 34.612 19.3702C32.5888 20.6107 31.3438 22.7983 31.3132 25.1667ZM27.4894 13.873C26.3873 15.2401 24.7173 16.0275 22.9585 16.0095C22.8467 14.2954 23.4226 12.6072 24.5595 11.3169C25.7108 10.009 27.314 9.18179 29.0495 9C29.1851 10.7649 28.6254 12.513 27.4894 13.873Z" fill="black"/>
</svg>
