<svg width="68" height="68" viewBox="0 0 68 68" fill="none" xmlns="http://www.w3.org/2000/svg">
<rect width="68" height="68" rx="24" fill="#AA8AFF"/>
<path d="M20.6472 40.6471C20.6472 42.5978 21.0674 44.4504 21.8221 46.1194C17.2095 44.0334 14 39.3914 14 33.9999C14 28.6083 17.2095 23.9664 21.8221 21.8804C21.0674 23.5493 20.6472 25.4019 20.6472 27.3527C20.6472 29.7742 21.2946 32.0444 22.4258 33.9999C21.2946 35.9553 20.6472 38.2256 20.6472 40.6471Z" fill="#F4F0FF"/>
<path d="M47.3528 40.6471C47.3528 42.5978 46.9326 44.4504 46.1779 46.1194C50.7905 44.0334 54 39.3914 54 33.9999C54 28.6083 50.7905 23.9664 46.1779 21.8804C46.9326 23.5493 47.3528 25.4019 47.3528 27.3527C47.3528 29.7742 46.7054 32.0444 45.5742 33.9999C46.7054 35.9553 47.3528 38.2256 47.3528 40.6471Z" fill="#F4F0FF"/>
<path d="M27.3524 20.6472C25.4017 20.6472 23.5491 21.0674 21.8801 21.8221C23.9661 17.2095 28.6081 14 33.9996 14C39.3912 14 44.0331 17.2095 46.1191 21.8221C44.4502 21.0674 42.5976 20.6472 40.6468 20.6472C38.2253 20.6472 35.9551 21.2946 33.9996 22.4258C32.0442 21.2946 29.7739 20.6472 27.3524 20.6472Z" fill="#F4F0FF"/>
<path d="M27.3524 47.3528C25.4017 47.3528 23.5491 46.9326 21.8801 46.1779C23.9661 50.7905 28.6081 54 33.9996 54C39.3912 54 44.0331 50.7905 46.1191 46.1779C44.4502 46.9326 42.5976 47.3528 40.6468 47.3528C38.2253 47.3528 35.9551 46.7054 33.9996 45.5742C32.0442 46.7054 29.7739 47.3528 27.3524 47.3528Z" fill="#F4F0FF"/>
<path d="M40.589 33.9999C40.589 32.0491 40.1688 30.1965 39.4141 28.5276C41.955 29.6767 44.0702 31.6015 45.4576 33.9999C44.0702 36.3983 41.955 38.323 39.4141 39.4722C40.1688 37.8032 40.589 35.9506 40.589 33.9999Z" fill="#F4F0FF"/>
<path d="M27.1767 33.9999C27.1767 32.0491 27.5968 30.1965 28.3516 28.5276C25.8106 29.6767 23.6954 31.6015 22.308 33.9999C23.6954 36.3983 25.8106 38.323 28.3516 39.4722C27.5968 37.8032 27.1767 35.9506 27.1767 33.9999Z" fill="#F4F0FF"/>
<path d="M33.8832 40.7054C35.8339 40.7054 37.6865 40.2853 39.3555 39.5305C38.2063 42.0715 36.2816 44.1867 33.8832 45.5741C31.4848 44.1867 29.56 42.0715 28.4109 39.5305C30.0798 40.2853 31.9324 40.7054 33.8832 40.7054Z" fill="#F4F0FF"/>
<path d="M33.8832 27.2946C35.8339 27.2946 37.6865 27.7147 39.3555 28.4695C38.2063 25.9285 36.2816 23.8133 33.8832 22.4259C31.4848 23.8133 29.56 25.9285 28.4109 28.4695C30.0798 27.7147 31.9324 27.2946 33.8832 27.2946Z" fill="#F4F0FF"/>
</svg>
