<svg width="107" height="32" viewBox="0 0 107 32" fill="none" xmlns="http://www.w3.org/2000/svg">
<path d="M39.1111 26.2197V25.9218L39.707 25.7132C40.1043 25.594 40.3625 25.4152 40.4817 25.1769C40.6207 24.9385 40.6902 24.6207 40.6902 24.2234V8.61078C40.6902 8.21351 40.6207 7.8957 40.4817 7.65734C40.3426 7.41897 40.0745 7.23027 39.6772 7.09123L39.1111 6.85287V6.55491H46.3513C49.311 6.55491 51.4463 7.10116 52.7573 8.19365C54.0881 9.26627 54.7535 10.6865 54.7535 12.4544C54.7535 13.5866 54.4755 14.6294 53.9193 15.5828C53.383 16.5164 52.4891 17.2613 51.2377 17.8175C49.9863 18.3737 48.2979 18.6517 46.1725 18.6517H45.1595V24.1341C45.1595 24.9087 45.5468 25.4152 46.3215 25.6536L47.2154 25.9218V26.2197H39.1111ZM45.1595 18.0558H46.2917C47.265 18.0558 48.0596 17.8969 48.6753 17.5791C49.2911 17.2613 49.748 16.7051 50.0459 15.9106C50.3439 15.1161 50.4928 14.0136 50.4928 12.6033C50.4928 11.1732 50.324 10.0608 49.9863 9.26627C49.6685 8.47174 49.1918 7.92549 48.5561 7.62754C47.9205 7.30973 47.126 7.15082 46.1725 7.15082H45.1595V18.0558Z" fill="white"/>
<path d="M60.7331 26.6666C59.7597 26.6666 58.8858 26.5475 58.1111 26.3091C57.3364 26.0906 56.6213 25.8125 55.9658 25.4748L55.9956 21.9292H56.2936L57.3066 23.7169C57.7436 24.5115 58.2203 25.1074 58.7368 25.5046C59.2731 25.882 59.9485 26.0707 60.7628 26.0707C61.7163 26.0707 62.481 25.8622 63.0571 25.445C63.653 25.008 63.9509 24.432 63.9509 23.7169C63.9509 23.0614 63.7424 22.5251 63.3252 22.108C62.9081 21.6909 62.1334 21.3134 61.0012 20.9758L59.7498 20.5884C58.5381 20.2309 57.5847 19.6747 56.8895 18.9199C56.1943 18.1651 55.8466 17.2414 55.8466 16.149C55.8466 14.838 56.3631 13.7256 57.396 12.8119C58.4289 11.8982 59.9087 11.4413 61.8355 11.4413C62.6102 11.4413 63.3352 11.5307 64.0105 11.7095C64.7057 11.8684 65.3712 12.1167 66.0068 12.4544L65.828 15.6722H65.5301L64.4872 13.8249C64.1098 13.1694 63.7324 12.7126 63.355 12.4544C62.9975 12.1763 62.4512 12.0372 61.7163 12.0372C61.0409 12.0372 60.4053 12.2259 59.8094 12.6033C59.2135 12.9807 58.9156 13.517 58.9156 14.2123C58.9156 14.8876 59.1638 15.4239 59.6604 15.8212C60.1769 16.2185 60.9317 16.586 61.9249 16.9236L63.2656 17.311C64.6958 17.748 65.7188 18.3538 66.3345 19.1285C66.9503 19.8833 67.2582 20.797 67.2582 21.8696C67.2582 23.3197 66.6822 24.4817 65.5301 25.3557C64.3979 26.2297 62.7989 26.6666 60.7331 26.6666Z" fill="white"/>
<path d="M74.2168 26.6666C72.9455 26.6666 71.9523 26.3488 71.2372 25.7132C70.542 25.0776 70.1944 24.0645 70.1944 22.6741V12.4842H68.1385V12.1862L68.8536 12.067C69.4694 11.928 69.9958 11.7293 70.4328 11.4711C70.8896 11.2129 71.3366 10.8653 71.7736 10.4283L74.2168 7.71692H74.5147L74.4253 11.8882H77.7624V12.4842H74.3955V23.2104C74.3955 23.9056 74.5445 24.432 74.8425 24.7896C75.1603 25.1471 75.5575 25.3259 76.0343 25.3259C76.4514 25.3259 76.8189 25.2265 77.1367 25.0279C77.4545 24.8094 77.7723 24.5214 78.0901 24.1639L78.3881 24.4618C77.9908 25.1372 77.4446 25.6735 76.7493 26.0707C76.0541 26.468 75.2099 26.6666 74.2168 26.6666Z" fill="white"/>
<path d="M79.4109 26.2197V25.9218L79.7684 25.8026C80.4835 25.5642 80.8411 25.0676 80.8411 24.3128V8.37242C80.8411 7.97515 80.7616 7.6772 80.6027 7.47856C80.4438 7.26007 80.1657 7.10116 79.7684 7.00184L79.3811 6.91246V6.6145L84.8336 5.33331L85.1912 5.60147L85.072 9.77279V19.9627C85.072 20.6977 85.072 21.4326 85.072 22.1676C85.0918 22.8827 85.1018 23.5977 85.1018 24.3128C85.1018 24.7101 85.1812 25.0378 85.3401 25.2961C85.499 25.5344 85.7672 25.7132 86.1446 25.8324L86.5319 25.9218V26.2197H79.4109Z" fill="white"/>
<path d="M93.0014 26.6666C92.0281 26.6666 91.1541 26.5475 90.3795 26.3091C89.6048 26.0906 88.8897 25.8125 88.2342 25.4748L88.264 21.9292H88.562L89.575 23.7169C90.012 24.5115 90.4887 25.1074 91.0052 25.5046C91.5415 25.882 92.2168 26.0707 93.0312 26.0707C93.9847 26.0707 94.7494 25.8622 95.3255 25.445C95.9214 25.008 96.2193 24.432 96.2193 23.7169C96.2193 23.0614 96.0108 22.5251 95.5936 22.108C95.1765 21.6909 94.4018 21.3134 93.2696 20.9758L92.0182 20.5884C90.8065 20.2309 89.8531 19.6747 89.1579 18.9199C88.4626 18.1651 88.115 17.2414 88.115 16.149C88.115 14.838 88.6315 13.7256 89.6644 12.8119C90.6973 11.8982 92.1771 11.4413 94.1039 11.4413C94.8785 11.4413 95.6035 11.5307 96.2789 11.7095C96.9741 11.8684 97.6396 12.1167 98.2752 12.4544L98.0964 15.6722H97.7985L96.7556 13.8249C96.3782 13.1694 96.0008 12.7126 95.6234 12.4544C95.2659 12.1763 94.7196 12.0372 93.9847 12.0372C93.3093 12.0372 92.6737 12.2259 92.0778 12.6033C91.4819 12.9807 91.1839 13.517 91.1839 14.2123C91.1839 14.8876 91.4322 15.4239 91.9288 15.8212C92.4453 16.2185 93.2001 16.586 94.1932 16.9236L95.534 17.311C96.9642 17.748 97.9872 18.3538 98.6029 19.1285C99.2187 19.8833 99.5266 20.797 99.5266 21.8696C99.5266 23.3197 98.9505 24.4817 97.7985 25.3557C96.6662 26.2297 95.0672 26.6666 93.0014 26.6666Z" fill="white"/>
<path d="M104.29 26.6666C103.575 26.6666 102.969 26.4184 102.473 25.9218C101.976 25.4252 101.728 24.8293 101.728 24.1341C101.728 23.4388 101.976 22.833 102.473 22.3166C102.969 21.8001 103.575 21.5419 104.29 21.5419C105.005 21.5419 105.611 21.8001 106.108 22.3166C106.604 22.833 106.852 23.4388 106.852 24.1341C106.852 24.8293 106.604 25.4252 106.108 25.9218C105.611 26.4184 105.005 26.6666 104.29 26.6666Z" fill="white"/>
<path d="M5.31777 21.3178C5.31777 22.8783 5.65389 24.3604 6.2577 25.6956C2.56758 24.0268 0 20.3132 0 16C0 11.6867 2.56758 7.97319 6.2577 6.30438C5.65389 7.63953 5.31777 9.12163 5.31777 10.6822C5.31777 12.6194 5.83569 14.4356 6.74061 16C5.83569 17.5643 5.31777 19.3806 5.31777 21.3178Z" fill="#AA8AFF"/>
<path d="M26.6822 21.3178C26.6822 22.8783 26.3461 24.3604 25.7423 25.6956C29.4324 24.0268 32 20.3132 32 16C32 11.6867 29.4324 7.97319 25.7423 6.30438C26.3461 7.63953 26.6822 9.12163 26.6822 10.6822C26.6822 12.6194 26.1643 14.4356 25.2594 16C26.1643 17.5643 26.6822 19.3806 26.6822 21.3178Z" fill="#AA8AFF"/>
<path d="M10.6827 5.31777C9.12208 5.31777 7.63999 5.65389 6.30484 6.2577C7.97364 2.56758 11.6872 -6.12346e-07 16.0004 -4.23808e-07C20.3137 -2.3527e-07 24.0272 2.56758 25.696 6.2577C24.3609 5.65389 22.8788 5.31777 21.3182 5.31777C19.381 5.31777 17.5648 5.83569 16.0004 6.74061C14.4361 5.83569 12.6199 5.31777 10.6827 5.31777Z" fill="#AA8AFF"/>
<path d="M10.6827 26.6822C9.12208 26.6822 7.63999 26.3461 6.30484 25.7423C7.97364 29.4324 11.6872 32 16.0004 32C20.3137 32 24.0272 29.4324 25.696 25.7423C24.3609 26.3461 22.8788 26.6822 21.3182 26.6822C19.381 26.6822 17.5648 26.1643 16.0004 25.2594C14.4361 26.1643 12.6199 26.6822 10.6827 26.6822Z" fill="#AA8AFF"/>
<path d="M21.2712 16C21.2712 14.4394 20.9351 12.9573 20.3313 11.6221C22.3641 12.5415 24.0562 14.0812 25.1662 16C24.0562 17.9187 22.3641 19.4585 20.3313 20.3778C20.9351 19.0427 21.2712 17.5606 21.2712 16Z" fill="#AA8AFF"/>
<path d="M10.5418 16C10.5418 14.4394 10.8779 12.9573 11.4817 11.6221C9.4489 12.5415 7.75677 14.0812 6.64684 16C7.75677 17.9187 9.4489 19.4585 11.4817 20.3778C10.8779 19.0427 10.5418 17.5606 10.5418 16Z" fill="#AA8AFF"/>
<path d="M15.9066 21.3644C17.4672 21.3644 18.9493 21.0283 20.2844 20.4245C19.3651 22.4573 17.8253 24.1494 15.9066 25.2594C13.9879 24.1494 12.4481 22.4573 11.5287 20.4245C12.8639 21.0283 14.346 21.3644 15.9066 21.3644Z" fill="#AA8AFF"/>
<path d="M15.9066 10.6356C17.4672 10.6356 18.9493 10.9717 20.2844 11.5755C19.3651 9.54271 17.8253 7.85058 15.9066 6.74065C13.9879 7.85058 12.4481 9.54271 11.5287 11.5755C12.8639 10.9717 14.346 10.6356 15.9066 10.6356Z" fill="#AA8AFF"/>
</svg>
